<?xml version="1.0" encoding="UTF-8"?>
<svg width="474" height="474" preserveAspectRatio="xMidYMid" version="1.0" viewBox="0 0 474 474" xmlns="http://www.w3.org/2000/svg">
    <path d="m100.62 339.4c0.16051-9.4332 0.38719-13.967 0.94072-18.814 0.22059-1.9315 0.45117-4.0085 0.51238-4.6156l0.11132-1.1037-1.6732-0.68894c-9.7545-4.0166-20.497-9.2989-27.828-13.684-24.89-14.888-40.108-32.32-45.002-51.55-1.1021-4.3307-1.4609-7.4106-1.4609-12.542 0-7.0532 0.65942-10.653 3.1946-17.438 1.2854-3.4403 3.6956-8.5561 5.4114-11.486 7.4474-12.717 19.092-23.533 36.318-33.735 5.25-3.1091 8.3141-4.738 17.66-9.3876 9.0213-4.4883 11.555-5.9025 12.423-6.934 0.60907-0.72385 0.63381-1.14 0.23262-3.914-0.73282-5.0671-1.2239-19.676-1.045-31.09 0.13965-8.9126 0.32756-11.875 1.0503-16.556 2.5141-16.283 7.7921-29.802 15.513-39.734 1.86-2.3927 5.7739-6.3742 8.149-8.2899 7.6643-6.1816 16.32-9.8097 26.991-11.314 3.885-0.54751 12.429-0.48958 16.949 0.1149 15.362 2.0544 30.077 7.6806 46.604 17.818 8.5113 5.2208 17.567 11.487 19.571 13.542 0.87764 0.90023 1.019 0.97142 1.9296 0.97142 1.2344 0 3.1248-0.91825 5.2569-2.5535 8.521-6.5351 13.392-9.7825 21.366-14.244 10.796-6.0398 23.703-11.518 31.791-13.493 8.6799-2.1196 22.806-3.0058 30.318-1.902 11.721 1.7222 23.749 8.7885 32.253 18.948 9.6051 11.475 15.053 26.338 17.029 46.457 0.49739 5.0652 0.60274 18.506 0.20295 25.887-0.40384 7.4566-0.86697 14.14-1.126 16.25-0.24428 1.9895-0.24826 3.9273-9e-3 4.3057 0.0998 0.15777 0.64737 0.40607 1.2167 0.55177 5.152 1.3185 25.842 12.123 35.378 18.474 17.166 11.433 29.34 25.171 35.16 39.674 1.7612 4.389 2.8741 8.6039 3.5533 13.458 0.37725 2.6957 0.31797 9.5354-0.10696 12.342-3.7775 24.946-24.151 46.984-59.725 64.603-6.4952 3.217-10.392 4.9002-13.36 5.7713l-2.5172 0.73866 0.10714 0.81631c0.0589 0.449 0.33287 3.5706 0.60874 6.937 0.56818 6.9335 0.90008 14.706 0.90192 21.121l2e-3 4.3647h-16.255l-2.2e-4 -2.659c-1.2e-4 -1.4624-0.0912-5.2327-0.20248-8.3783-0.44406-12.556-1.1315-15.653-3.4748-15.653-0.24625 0-1.0935 0.30948-1.8828 0.68772-1.9532 0.93606-4.9459 1.8746-10.193 3.1965-12.556 3.1632-25.222 5.7368-43.187 8.7749l-6.2621 1.059-4.6119 5.8338c-2.5366 3.2086-4.866 6.13-5.1766 6.4921l-0.56469 0.65823-21.606-0.1124 1.9382-2.1071c4.2411-4.6107 6.2908-7.1224 6.0276-7.3865-0.25484-0.25556-10.079-0.39571-29.003-0.41375-19.629-0.0188-34.649 0.227-34.995 0.57253-0.2861 0.28609 0.75396 1.7013 3.6963 5.0296 1.3757 1.5562 2.8065 3.1841 3.1795 3.6175l0.67819 0.78802h-21.307l-10.397-12.961-7.5028-1.2558c-19.103-3.1976-31.042-5.7321-46.039-9.7736-4.6898-1.2638-8.7494-2.2979-9.0212-2.2979-1.1634 0-1.5467 2.0712-2.606 14.082-0.2832 3.2111-0.50745 7.1796-0.50745 8.9803v3.2266h-15.714zm162.47-18.999c14.192-0.55897 19.159-1.0558 21.415-2.1421 0.64319-0.30971 1.4933-0.99193 2.2081-1.772 1.2885-1.4061 8.7837-11.63 10.603-14.463 0.63791-0.99335 2.1247-3.2961 3.3039-5.1173 5.3048-8.1923 11.743-19.418 18.295-31.899 2.9824-5.6811 14.011-27.834 14.011-28.143 0-0.42169-5.2008-11.508-8.4545-18.022-6.8804-13.774-15.061-28.209-23.714-41.841-5.8196-9.1684-12.334-18.466-14.642-20.897-1.5585-1.642-2.5138-2.1354-4.7635-2.4607-4.7906-0.69263-21.056-1.0619-47.059-1.0683-23.029-6e-3 -29.012 0.15254-38.298 1.0129l-5.7879 0.53625-6.3153 9.5322c-11.97 18.067-17.436 26.806-22.307 35.661-7.1526 13.003-16.752 32.723-17.723 36.408-0.22415 0.85049-0.19781 1.0604 0.31475 2.5085 2.5695 7.2593 14.784 31.251 23.435 46.03 11.055 18.886 19.981 32.214 22.701 33.895 0.76558 0.47313 2.8344 0.7538 11.179 1.5166 5.1473 0.47051 10.771 0.82771 15.543 0.98729 4.3217 0.14451 41.038-0.0643 46.055-0.2619zm-96.526-5.9331c0-0.67101-1.5703-3.6508-3.7152-7.05-11.471-18.18-15.445-25.034-22.263-38.405-4.2862-8.4055-5.218-10.024-5.7732-10.03-0.9718-0.0101-4.5727 10.075-8.4892 23.777-2.9884 10.455-4.7907 18.324-4.672 20.399l0.0613 1.073 1.1037 0.43636c5.8731 2.3219 38.73 10.198 42.895 10.283 0.77976 0.0158 0.85288-0.0256 0.85288-0.48261zm145.99 0.0907c11.93-2.0717 39.789-9.6198 41.032-11.117 0.34637-0.41736-0.53751-4.8386-2.6226-13.118-4.5224-17.958-8.0922-30.096-9.3102-31.656-0.30123-0.38587-0.30796-0.38575-0.6141 0.0112-0.58565 0.75939-2.542 4.222-4.6487 8.2278-1.1609 2.2075-3.0601 5.8196-4.2204 8.0271-5.1296 9.7589-10.602 19.105-18.868 32.225-2.3668 3.7564-4.0555 6.8587-4.0555 7.4499 0 0.46712 0.3677 0.4617 3.3079-0.0489zm62.372-18.173c3.0578-1.2106 13.629-6.4801 17.88-8.9127 10.453-5.982 18.158-11.777 25.116-18.891 5.0109-5.1231 8.6522-10.072 11.126-15.122 2.8301-5.7775 4.0192-10.945 4.0166-17.454-2e-3 -4.7836-0.71636-8.4927-2.4824-12.887-6.6467-16.538-24.597-32.034-51.8-44.716-4.8344-2.2538-7.6616-3.5081-7.9074-3.5081-0.43198 0-0.97283 1.8584-2.5406 8.7295-2.5205 11.047-8.8492 30.553-15.419 47.522-1.0601 2.7382-1.9274 5.1022-1.9274 5.2532s1.7036 4.8189 3.7857 10.373c6.4087 17.096 10.075 28.411 12.862 39.699 1.8677 7.5634 2.1744 8.7227 2.621 9.9068l0.44406 1.1774 0.88753-0.10004c0.48817-0.055 1.9903-0.53663 3.3382-1.0702zm-270.22 0.47111c0.81077-0.8658 1.4968-2.8806 3.2629-9.5823 3.799-14.416 9.4258-31.506 14.932-45.351l2.1141-5.316-3.1915-8.5308c-7.0376-18.811-12.349-35.628-14.863-47.061-0.7383-3.3571-1.2944-5.294-1.6656-5.8016-0.2598-0.35531-0.32025-0.35748-1.2592-0.0452-3.5066 1.1662-22.934 11.417-29.072 15.34-9.8137 6.2718-21.596 17.968-26.866 26.671-1.3013 2.1487-3.2964 6.5046-3.8409 8.3861-1.2248 4.232-1.2294 17.63-0.0074 21.846 0.6555 2.262 2.5145 6.3144 3.9915 8.7009 4.9242 7.9567 14.938 18.188 24.507 25.039 3.9187 2.8058 11.292 6.9672 20.585 11.618 6.4075 3.2065 9.4031 4.5062 10.435 4.5274 0.28783 6e-3 0.70425-0.18948 0.9397-0.4409zm237.46-84.385c2.6324-6.322 7.798-22.783 10.154-32.359 0.61109-2.4834 1.4262-5.6829 1.8114-7.11 0.54817-2.031 0.65505-2.6941 0.4919-3.0522-0.66524-1.46-4.9157-2.9007-18.787-6.3675-15.675-3.9177-25.89-5.9681-26.77-5.3733-0.3755 0.25398 0.38484 1.6246 3.6377 6.5572 6.0636 9.1949 16.287 26.94 22.831 39.628 3.9489 7.6565 5.1247 9.6325 5.7315 9.6325 0.13814 0 0.54258-0.69987 0.89877-1.5552zm-204.24-3.863c8.5861-16.429 18.857-34.11 26.23-45.152 2.8434-4.2586 3.1108-4.7533 2.783-5.1483-0.70824-0.85338-7.7791 0.41689-22.55 4.0512-14.439 3.5524-21.645 5.9277-22.814 7.5195-0.36558 0.49795-0.34955 0.57831 1.8214 9.1308 4.1758 16.45 8.8384 31.512 10.58 34.177 0.21638 0.33103 0.457 0.44582 0.84131 0.40135 0.48345-0.0559 0.79982-0.5628 3.1078-4.9789zm-16.208-57.179c1.3217-0.32327 4.0286-1.0517 6.0153-1.6187 13.954-3.9825 28.938-7.1426 47.034-9.9198 3.9048-0.59926 7.1641-1.1638 7.2429-1.2545 0.0788-0.0907 0.94089-1.2856 1.9157-2.6552 5.5663-7.821 14.116-17.61 27.271-31.224 7.4226-7.6816 11.327-12.089 12.285-13.869l0.36178-0.67178-0.68223-0.70388c-2.0398-2.1045-16.375-11.327-24.596-15.824-6.9999-3.829-15.994-7.4151-22.972-9.1596-4.9176-1.2294-10.836-2.1739-14.776-2.3581-2.7102-0.1267-5.7362 0.20983-9.7064 1.0795-12.446 2.7264-23.755 13.27-28.795 26.847-3.677 9.9062-6.3502 26.531-6.0195 37.437 0.33135 10.927 1.3587 23.239 2.0297 24.324 0.16778 0.27146 0.9068 0.17781 3.3903-0.4296zm236.29-7.5e-4c0.11427-0.21349 0.20841-0.91335 0.20921-1.5553 7.5e-4 -0.64189 0.23274-4.2374 0.51538-7.9901 1.116-14.817 0.3783-29.833-2.0261-41.239-1.3029-6.1805-5.4674-16.063-9.5595-22.684-2.653-4.2928-7.8279-8.5681-14.217-11.745-2.5859-1.286-4.6113-1.9344-8.4124-2.6931-3.8825-0.77496-6.1804-1.0064-9.993-1.0064-6.6618 0-13.927 1.3991-21.483 4.137-12.501 4.53-29.716 14.32-39.781 22.622-0.93817 0.77394-1.7414 1.4342-1.7851 1.4673-0.0436 0.03307 2.1312 2.3423 4.833 5.1315 17.251 17.81 23.611 24.876 32.561 36.176 2.6225 3.3112 4.9223 6.1811 5.1105 6.3776 0.2682 0.27997 1.8835 0.59419 7.4648 1.4521 7.8275 1.2032 13.612 2.2349 20.347 3.6292 8.4804 1.7556 11.587 2.5077 28.898 6.9968 5.4171 1.4048 6.9559 1.5988 7.3177 0.92294zm-134.75-16.173c21.407-0.50156 26.806-0.55241 33.513-0.31561 13.716 0.48431 14.148 0.49242 14.148 0.26592 0-0.24993-2.2077-2.5584-16.048-16.781-9.2118-9.4659-16.447-16.577-16.866-16.577-0.90923 0-15.383 14.247-24.123 23.745-2.6129 2.8396-8.7845 9.8954-8.7845 10.043 0 0.0549 1.2868 0.0573 2.8596 5e-3 1.5728-0.052 8.4586-0.2257 15.302-0.38604z" fill="#002aff" stroke-width=".20068"/>
    <path d="m220.14 289.88v-9.0305h-22.225l0.98491-4.8533c0.54169-2.6693 1.0947-5.0768 1.229-5.3501 0.41239-0.83946 1.1882-1.25 2.7684-1.4651 6.3934-0.86998 8.0967-1.2697 8.2934-1.9462 1.0397-3.577 2.2866-43.959 1.5386-49.827-0.52575-4.1237-1.6845-5.8822-4.3292-6.5698-0.4415-0.11478-2.5185-0.39405-4.6156-0.62059s-4.2418-0.46455-4.7661-0.52891l-0.95321-0.11701v-9.3942l0.85288-4e-3c2.8859-0.0117 21.492-0.60126 21.574-0.68361 0.0972-0.0972 0.62666-13.292 0.64278-16.019l8e-3 -1.3546h10.024l-0.0876 0.55186c-0.14189 0.89369-0.5706 16.707-0.45604 16.822 0.16274 0.16273 6.934-0.49569 8.2513-0.80235 0.64658-0.15051 1.304-0.40206 1.4609-0.55899 0.67925-0.67924 0.79296-5.2146 0.34235-13.654l-0.1259-2.358h10.52l-0.11303 1.5552c-0.19719 2.7132-0.57125 15.715-0.45546 15.831 0.061 0.061 1.3592 0.28534 2.8846 0.49834 7.3885 1.0317 11.627 2.3231 15.456 4.7096 3.3162 2.0669 6.597 5.9764 7.5279 8.9706 0.39741 1.2782 0.44987 1.8788 0.45054 5.1592 2e-3 7.5666-1.3412 10.572-6.6277 14.835-1.4268 1.1505-2.617 2.1445-2.6448 2.2089-0.0278 0.0644 0.83856 0.4181 1.9254 0.78599 7.7223 2.614 11.934 6.5389 13.473 12.555 0.95687 3.7416 0.16495 11.85-1.6347 16.737-2.1379 5.8055-10.432 11.159-20.299 13.102-0.57173 0.11258-3.143 0.45914-5.714 0.77014-2.571 0.31098-4.7251 0.61604-4.7869 0.6779-0.10397 0.10396-0.64755 13.297-0.66507 16.142l-8e-3 1.2542h-9.8332v-17.058h-10.034v18.061h-9.8332zm21.874-22.086c11.435-0.67402 17.07-2.9031 19.334-7.6477 1.1853-2.4846 1.5983-4.162 1.4976-6.0821-0.0766-1.46-0.17401-1.8137-0.77688-2.8215-1.9346-3.2343-5.582-5.834-9.8201-6.9995-2.9625-0.81468-9.3882-1.3196-16.807-1.3207l-5.4685-7.5e-4v25.344l4.3647-0.13848c2.4006-0.0762 5.8548-0.22629 7.6759-0.33364zm0.30101-33.593c7.8488-0.65386 11.521-3.2284 13.156-9.2241 0.7932-2.909 0.23409-4.95-2.1899-7.9938-1.4018-1.7602-2.4152-2.5711-3.9146-3.1321-1.4765-0.55243-5.2306-1.3618-8.1547-1.7581-3.185-0.43165-9.4465-0.49738-10.367-0.10882l-0.63405 0.26766-0.14565 2.1369c-0.13581 1.9926-0.059 7.2836 0.23826 16.392l0.12439 3.8129 5.1411-0.1295c2.8276-0.0712 5.8636-0.18968 6.7465-0.26324z" fill="#002aff" stroke-width=".20068"/>
    <path d="m153.39 426.54c-10.423-0.88205-18.552-3.9728-25.956-9.869-8.9637-7.1385-15.28-15.313-19.542-25.292-2.8906-6.7676-5.899-17.771-6.452-23.598-0.29631-3.1226-0.78295-11.63-0.88611-17.083l-0.0661-3.493c4.4479 1.0338 15.706-2.9343 15.685 0.37123-0.0153 2.3707 0.86263 12.316 1.4389 16.55 1.3758 10.109 3.0474 15.765 7.0004 23.688 3.157 6.3277 6.3459 10.65 10.314 13.979 11.797 9.8991 27.377 11.451 47.107 4.6928 10.137-3.4723 20.541-8.8596 32.789-16.979 6.3885-4.235 8.7295-6.0078 8.7295-6.6108 0-1.0222-3.7509-5.4581-11.545-13.653-7.1382-7.5056-19.133-20.713-19.742-21.782 6.97-0.1114 14.232-1e-4 21.282-0.0178l1.3926 1.3809c10.507 10.418 20.578 20.825 22.524 21.851 0.54846 0.28932 0.60276 0.27126 1.6776-0.55798 2.0746-1.6005 11.128-10.556 21.027-20.8l1.8925-1.964c7.3344 0.0451 14.432-0.14802 21.634 0.0534-0.0691 0.3434-9.733 11.3-17.057 18.994-4.9128 5.1609-11.99 12.87-13.321 14.537-1.211 1.5168-1.4338 2.1398-0.95454 2.6694 0.93686 1.0352 10.752 7.5585 17.008 11.305 7.4243 4.445 12.014 6.7646 18.698 9.4507 26.587 10.684 46.288 7.6838 58.731-8.9437 3.9782-5.3159 6.6641-10.854 8.6944-17.928 2.0599-7.1769 3.0827-14.283 3.5485-24.653l0.15825-5.6167 8.1631-0.0663 8.0968 0.0332-0.0987 3.2417c-0.45908 15.07-1.0614 19.515-2.8361 26.602-6.2677 25.028-19.465 41.014-39.104 47.369-5.8368 1.8888-8.3502 2.2207-16.857 2.2264-13.163 9e-3 -20.479-1.2931-31.506-5.6069-15.367-6.0114-33.682-16.761-42.53-24.963-2.754-2.5528-3.4308-2.9612-4.3857-2.646-0.35451 0.11701-2.27 1.4421-4.2568 2.9446-8.6034 6.5067-24.013 16.028-32.209 19.901-13.546 6.4009-22.315 9.037-33.513 10.074-3.1415 0.29091-12.28 0.42028-14.775 0.20915z" fill="#002aff"/>
    <path d="m265.65 345.92c-0.4218 0.31617-0.88324 0.57222-1.3424 0.82864-0.48666 0.27177-0.88822 0.47432-1.359 0.77892-0.24317 0.15735-0.4842 0.3191-0.71262 0.49718-0.0986 0.0769-0.18315 0.17085-0.26517 0.26517-0.026 0.0299-0.081 0.12891-0.0663 0.13258 0.19486 0.0488 0.34887-0.20017 0.51375-0.31488 0.48105-0.33463 0.77234-0.44284 1.1601-0.94465 0.0701-0.0907 0.0934-0.30123 0.11601-0.41432 7.5e-4 -5e-3 3e-3 0.0121 0 0.0166-0.0361 0.0516-0.0747 0.10162-0.11601 0.14915-0.22215 0.25548-0.44913 0.44919-0.77892 0.5469-0.0593 0.0175-0.12126 0.0238-0.1823 0.0331-0.0109 2e-3 -0.0349 0.0109-0.0331 0 0.0341-0.20481 0.51533-0.52611 0.67949-0.66292 0.0392-0.0326 0.0777-0.0659 0.11601-0.0994 6e-3 -5e-3 0.0166-9e-3 0.0166-0.0166 0-5e-3 -0.0115-2e-3 -0.0166 0-0.0452 0.0201-0.0902 0.0409-0.13258 0.0663-0.12689 0.0761-0.31684 0.18003-0.39775 0.31489-0.0145 0.0242 0.058-3e-3 0.0829-0.0166 0.0635-0.0339 0.12054-0.079 0.1823-0.11601 0.0764-0.0458 0.15294-0.0916 0.23203-0.13258 0.2806-0.1455 0.14485-0.0289 0.29831-0.1823 0.011-0.011 0.0282-0.0183 0.0332-0.0331 9e-3 -0.0267-0.0623-3e-3 -0.0829 0.0166-0.13211 0.12433-0.22597 0.24052-0.33146 0.38117-0.12197 0.16263-0.29519 0.33836-0.33146 0.54691-0.0113 0.0653 0 0.13258 0 0.19887 0 0.0387-0.0139 0.0799 0 0.11601 0.0154 0.0403 0.0501 0.0713 0.0829 0.0994 0.12249 0.105 0.24916 0.20556 0.38117 0.29832 0.3581 0.25164 0.92074 0.36681 1.3258 0.46404 1.3458 0.32298 2.0035 0.39165 3.6294 0.62976 1.4346 0.21009 1.8153 0.21533 3.4472 0.28174 0.33065 0.0134 1.1361-4e-3 1.4584-0.0331 0.83015-0.0762 0.82662-0.1143 1.591-0.26516 0.56177-0.11087 1.1322-0.18605 1.6904-0.31488 0.037-9e-3 0.51677-0.13838 0.58005-0.14916 0.43111-0.0734 0.88839-0.11676 1.3258-0.0663 0.23147 0.0267 0.45058 0.0983 0.67948 0.13258 0.46654 0.07 0.67354 0.0844 1.1435 0 0.0975-0.0175 0.41014-0.11558 0.48061-0.19886 0.20948-0.24758 0.05-0.46204-0.0663-0.71264-0.0333-0.0718-0.0536-0.15098-0.0994-0.21545-0.13093-0.1841-0.52968-0.7088-0.79549-0.82863-0.53699-0.24209-1.0917-0.44867-1.6573-0.6132-0.79741-0.23198-3.0784-0.34085-3.4803-0.3646-0.3199-0.0189-0.64081-0.0115-0.96122-0.0166-0.37565-6e-3 -0.75136-8e-3 -1.127-0.0166-0.0996-2e-3 -0.19887-0.011-0.29831-0.0166-0.12153-5e-3 -0.24296-0.0143-0.3646-0.0166-0.1657-3e-3 -0.33149 3e-3 -0.49719 0-0.442-8e-3 -0.88375-0.0293-1.3258-0.0332-1.7362-0.0149 0.20255 9e-3 -0.94465 0.0663-0.21518 0.0108-0.4309 0-0.64634 0-0.12706 0-0.25419 5e-3 -0.38118 0-1.0446-0.0356-0.83308-0.0511-1.6407-0.0663-0.18779-4e-3 -0.37586 9e-3 -0.56347 0-0.10489-0.0175-0.0659-0.0166-0.11601-0.0166" fill="#002aff"/>
    <path d="m194.33 338.02c4.4e-4 0.0477 0.0119 0.0965 2e-3 0.14302-0.0394 0.17297-0.13449 0.27128-0.27001 0.3869-0.095 0.0811-0.19621 0.15596-0.30383 0.21939-0.2571 0.15153-0.5521 0.25381-0.82792 0.36188-0.25437 0.10327-0.56604 0.20614-0.78383 0.38551-0.22069 0.18174-0.3883 0.4308-0.45308 0.71166-0.0533 0.23135-0.0158 0.60642-2e-3 0.8418 0.0221 0.28683 0.0156 0.57456 8e-3 0.86177-3e-3 0.13132-3e-3 0.22243-0.0211 0.34954-6e-3 0.04-0.0155 0.0792-0.0233 0.11878-0.0134 0.10716 4e-3 0.21371 9e-3 0.32052 4e-3 0.0813-0.0101 0.0969 0.0332 0.17197 0.0153 0.0265 0.0391 0.0472 0.0586 0.0709 0.0265 0.0242 0.0508 0.0513 0.0797 0.0728 0.0941 0.0698 0.19847 0.11306 0.30229 0.16683 0.0833 0.0431 0.16793 0.0841 0.24895 0.13139 0.18735 0.10947 0.42987 0.2787 0.60629 0.39829 0.41678 0.29151 0.81051 0.61407 1.2099 0.92856 0.1 0.0787 0.19019 0.17184 0.29997 0.23622 2.9145 1.7091 5.8464 3.3882 8.7696 5.0822 0.93426 0.3405 1.8687 0.68049 2.8118 0.99562 0.69463 0.22039 1.3728 0.49075 2.0703 0.70188 0.0634-2e-3 0.13129 0.017 0.19004-7e-3 0.18565-0.0752 0.31235-0.26399 0.40175-0.42869 0.0421-0.0775 0.066-0.16363 0.0959-0.2466 0.0252-0.07 0.0456-0.14157 0.0694-0.21199 0.0261-0.0771 0.0536-0.15365 0.0805-0.23048 0.0265-0.0949 0.0548-0.18938 0.0796-0.28476 0.0285-0.10964 0.0562-0.21956 0.0804-0.33023 0.0254-0.11603 0.0423-0.23385 0.0685-0.34971 0.0435-0.19217 0.0946-0.38251 0.17701-0.56232 0.0328-0.0716 0.077-0.13747 0.11547-0.20619 0.0995-0.13751 0.10422-0.15867 0.22068-0.26909 0.0297-0.0282 0.0632-0.0521 0.0945-0.0786 0.0339-0.0288 0.11486-0.10128 0.15334-0.12978 0.0192-0.0143 0.0402-0.0259 0.0603-0.0388 0.0448-7.5e-4 0.0797-0.0633 0.12033-0.0721 5e-3 -7.5e-4 7e-3 0.01 0.0115 0.01 4e-3 1e-4 5e-3 -7e-3 8e-3 -9e-3 4e-3 -2e-3 0.01-3e-3 0.0145-5e-3 0.0241 0.0293 0.0459-0.0278 0.0665-0.0177 0.0764 0.0375-0.0444 0.04-0.0365 0.0333 0.0166-0.0139 0.0378-0.0209 0.0565-0.0318 0.0275-0.016 0.0547-0.0326 0.082-0.0489 0.19231-0.0695 0.39607-0.0831 0.59871-0.0725 0.23598 0.0123 0.0238 0.0136 0.24294 8e-3 0.14655-0.0121 0.28737-0.061 0.43474-0.0643 0.0745-1e-3 0.11881 5e-3 0.19131 0.0119 0.0667 0.0106 0.0739 0.0109 0.13625 0.024 0.0203 5e-3 0.04 0.0139 0.0607 0.0135 0.0229-4.9e-4 0.0443-0.012 0.0668-0.0162 0.0494-9e-3 0.0607-7e-3 0.11087-5e-3 0.0583 2e-3 0.11446 0.0184 0.17179 0.027 0.0115 2e-3 0.0236 8e-3 0.0348 5e-3 0.0203-6e-3 0.0368-0.0212 0.0551-0.0317 0.0816-0.0284 0.1663-0.0123 0.24767 8e-3 0.0105 4.2e-4 0.071 0.0232 0.0781 0.0193 0.0591-0.0319 0.0524-0.0643 0.11662-0.0717 0.0214 7e-3 0.0662 0.0314 0.0879 0.0245 0.07-0.0387 0.035-0.0254 0.10394-0.0428 0.0762-4e-3 1e-3 5e-3 0.0951-0.0323 0.015-6e-3 0.0325-5e-3 0.0472-0.0115 0.0668-0.0299 0.0654-0.0527 0.14028-0.0528 0.0308 0.0129 0.0172 5e-3 0.0413 0.0253l-9.2065-6.4397c-0.0477 0.033-0.0241 0.017-0.0707 0.048-7e-3 4e-3 -0.0391 0.0252-0.0528 0.0186-7e-3 -3e-3 -5e-3 -0.0168-0.0118-0.0196-0.0102-4e-3 -0.0221 5e-3 -0.0328 2e-3 -0.077-0.0189 0.0329-0.0264-0.0707-0.0104-0.0452-5e-3 -0.0244 4e-3 -0.0615-0.0259-0.0166-3e-3 -0.0335 5e-3 -0.0502 7e-3 -0.0483 8e-3 -0.0954 0.0219-0.14189 0.0375-3e-3 5.5e-4 -0.0486 0.0139-0.0523-5e-3 -3e-3 -0.0152 0.017-0.0305 0.0115-0.045-1e-3 -5e-3 -0.0781 0.0224-0.0831 0.0238-0.0724 0.0261-0.1454 0.0592-0.22411 0.0452-0.0111-8e-3 -0.0199-0.0217-0.0334-0.0249-0.015-4e-3 -0.0306 4e-3 -0.0458 6e-3 -0.057 0.01-0.11025 0.0301-0.16494 0.048-0.0431 9e-3 -0.06 0.0155-0.10585 0.0146-0.0145-2.7e-4 -0.0288-8e-3 -0.0431-6e-3 -0.0188 3e-3 -0.0351 0.0143-0.053 0.0208-0.10855 0.04-0.0244 4e-3 -0.12685 0.0505-0.0288 0.0131-0.10829 0.0503-0.13699 0.0598-0.12915 0.0427-0.26709 0.04-0.39966 0.0658-0.0332 9e-3 -0.0674 0.0159-0.0997 0.028-0.0723 0.027-0.13915 0.0668-0.21017 0.0969-0.10407 0.0442-0.1651 0.0674-0.27764 0.0928-0.0613 0.0139-0.12376 0.0224-0.18564 0.0336-0.16394 0.0199-0.23026 0.0208-0.38394 0.0642-0.0653 0.0184-0.13225 0.0343-0.1929 0.0646-0.0948 0.0474-0.14025 0.11601-0.20214 0.19323-0.0209 0.0225-0.0418 0.045-0.0628 0.0674-0.0202 0.0216-0.0433 0.041-0.0608 0.0647-0.0658 0.0892-0.0904 0.20149-0.11559 0.30687-0.0341 0.18834-0.0651 0.37748-0.0803 0.56844-6e-3 0.0736-9e-3 0.14758-0.0128 0.22138-5e-3 0.0843-9e-3 0.16862-0.0136 0.25292-5e-3 0.0919-5e-3 0.1841-0.0148 0.27563-0.0344 0.33788-0.1086 0.69337-0.33106 0.96163-0.0445 0.0537-0.0991 0.0983-0.14867 0.14748-0.0638 0.0547-0.19498 0.18214-0.28644 0.2064-0.0301 8e-3 -0.0769 7e-3 -0.0913-0.0205-0.0357-0.0686 0.0406-0.17856 0.0445-0.24285 6.8e-4 -0.0112-0.0169-0.0146-0.0254-0.022-0.037 7e-3 -0.12404 0.0256-0.15563 0.0282-0.29934 0.0242-0.60015-0.0382-0.88922-0.10649-0.12737-0.0376-0.25566-0.0722-0.38211-0.11273-0.27901-0.0895-0.6153-0.21289-0.88504-0.32282-0.33359-0.13594-0.63537-0.27052-0.95226-0.44364-0.16251-0.0888-0.31863-0.18874-0.47796-0.28311 2.6606 1.545 5.3183 3.0948 7.9817 4.6349 0.1033 0.0597-0.20348-0.12497-0.30112-0.19355-0.0955-0.067-0.18604-0.14091-0.27774-0.21306-0.24044-0.18917-0.47664-0.38499-0.69078-0.60402-0.0721-0.0778-0.17472-0.18076-0.23639-0.27214-0.0694-0.10284-0.0688-0.19328-0.20515-0.22763-0.0187-4e-3 -0.037-0.0119-0.0562-0.0134-0.17194-0.0129 0.0489 0.0297-0.16172-4.5e-4 -0.11601-0.0166-0.21351-0.077-0.30904-0.14123-0.0457-0.0407-0.0947-0.078-0.13734-0.12186-0.22799-0.23456-0.44106-0.58262-0.55476-0.8872-0.0342-0.0916-0.0556-0.1874-0.0834-0.28109-0.042-0.41038-0.024-0.0844-0.0101-0.41221 4e-3 -0.0947-0.0172-0.17937 0.0244-0.27092 0.0818-0.18005 0.1826-0.23736 0.3314-0.37065 0.1053-0.0568 0.20429-0.12729 0.31591-0.17034 0.31249-0.12052 0.58653-0.14791 0.92088-0.15506 0.2792-6e-3 0.62038 0.0229 0.8975 0.0741 0.0944 0.0175 0.18579 0.0485 0.27869 0.0728z" fill="#002aff"/>
    <path d="m199.22 350.62c0.13068-0.0493 0.27176-0.0277 0.4064-0.0451 0.0545-7e-3 0.10699-0.0247 0.16101-0.0346 0.11197-0.0203 0.16338-0.0226 0.27386-0.0324 0.0285 0.013 0.0644 0.0158 0.0855 0.0389 0.0541 0.0595 0.0767 0.28046 7e-3 0.24104-3.2014-1.8565-6.4029-3.713-9.6044-5.5695 0.0781-0.0221 0.0383-5e-3 0.11652-0.0583 0.0199-0.013 0.0391-0.0505 0.0599-0.0389 0.0222 0.0123-4e-3 0.0528 7e-3 0.076 9e-3 0.0206 0.0346 0.0292 0.0485 0.047 0.0191 0.0246 0.036 0.0512 0.0497 0.0793 0.0118 0.0242 0.0745 0.19703 0.0829 0.21959 0.0379 0.0793 0.0244 0.17301 0.0555 0.25382 9e-3 0.0245 0.0844 0.0951 0.0967 0.11681 0.024 0.0425 0.0489 0.14627 0.0609 0.19051 3.2316 1.8619 6.4669 3.7173 9.6948 5.5857 0.0183 0.0106 0.0213 0.0393 0.04 0.0491 0.0693 0.0367 0.24927-0.0393 0.31944-0.061 0.0166 9e-3 0.0311 0.0236 0.0497 0.0269 0.0463 8e-3 0.22095-3e-3 0.2729-6e-3 0.0337-2e-3 0.0676-0.0161 0.10079-0.0101 0.0268 5e-3 0.047 0.0274 0.0706 0.0411 0.0308 0.0549 0.3227 0.0266 0.34847 0.0399 0.0631 0.0326 0.0258 0.14878 0.0217 0.18352-3.1981-1.8613-6.3962-3.7226-9.5943-5.5838 0.0713-0.0867 0.19724-0.28867 0.26945-0.0925 0.0245 0.0865 8e-3 0.14482-0.0115 0.23343l10.094 4.9816c-0.0141-2e-3 -0.0365 8e-3 -0.0424-5e-3 -0.0231-0.0501 0.0325-0.11557 0.01-0.16512 0.39924-4.4084 5.5321 1.3357-9.5449-6.3735-0.0456 0.0277-0.14837 0.10049-0.21217 0.10667-0.0512 5e-3 -0.24679-0.0954-0.30652-0.0616-0.037 4e-3 -0.0741 0.0151-0.11124 0.012-0.0286-2e-3 -0.0541-0.0189-0.0812-0.0281-0.10404-0.0354-0.2028-0.0952-0.31373-0.0944-0.0323-0.052-0.0454-0.11008-0.0756-0.16194-9e-3 -0.0157-0.0187-0.034-0.035-0.042-0.0195-0.01-0.0836-0.018-0.0648-7e-3 3.1884 1.8508 6.3856 3.6863 9.5784 5.5294-0.0472 0.015-0.10636 0.0448-0.15905 0.0229-0.0343-0.0143-0.0824-0.0922-0.11742-0.10363-0.0296-0.01-0.0622 2e-3 -0.0932 3e-3 -0.0269-9e-3 -0.0538-0.0187-0.0807-0.028-0.0343-0.0345-0.0833-0.0782-0.10596-0.12309-0.012-0.0238-0.0179-0.0503-0.0237-0.0763-5e-3 -0.0244 2e-3 -0.0525-0.01-0.0742-7e-3 -0.0117-0.037 2e-3 -0.0388-0.011-6e-3 -0.0439 0.0124-0.0878 0.0185-0.13164 4e-3 -0.0588 0.0201-0.19807-6e-3 -0.21349-3.216-1.8993-6.4288-3.8051-9.6827-5.6387-0.0504-0.0284-0.0914 0.0711-0.13903 0.10404-0.0385 0.0267-0.0779 0.0526-0.11925 0.0747-0.036 0.0193-0.0748 0.0328-0.11221 0.0492-0.0794 0.0142-0.15289 0.0299-0.23399 0.0334-0.0431 1e-3 -0.0863-5e-3 -0.12932-2e-3 -0.15821 7e-3 -0.31616 0.0385-0.4753 0.0188z" fill="#002aff"/>
</svg>
