<?xml version="1.0" encoding="UTF-8"?>
<svg enable-background="new 0 0 1200 400" version="1.1" viewBox="0 0 1200 400" xml:space="preserve" xmlns="http://www.w3.org/2000/svg">
<style type="text/css">
	.st0{fill:#C62827;}
	.st1{fill:#C43030;}
	.st2{fill:#C3302F;}
	.st3{fill:#C01F21;}
	.st4{fill:#CB4B4B;}
	.st5{fill:#E6ACAB;}
	.st6{fill:#D77476;}
	.st7{fill:#D9797A;}
	.st8{fill:#BE1F21;}
	.st9{fill:#C52021;}
	.st10{fill:#CD2322;}
	.st11{fill:#C62121;}
	.st12{fill:#C31F21;}
	.st13{fill:#C21F21;}
	.st14{fill:#CA2322;}
	.st15{fill:#D32224;}
	.st16{fill:#CF2222;}
	.st17{fill:#D42224;}
	.st18{fill:#CA2222;}
	.st19{fill:#D42124;}
	.st20{fill:#CA2221;}
	.st21{fill:#C82221;}
	.st22{fill:#D62324;}
	.st23{fill:#CB2322;}
	.st24{fill:#D62225;}
	.st25{fill:#D62325;}
	.st26{fill:#CA2321;}
	.st27{fill:#D12224;}
	.st28{fill:#DA2324;}
	.st29{fill:#D92325;}
	.st30{fill:#D82425;}
	.st31{fill:#D62224;}
	.st32{fill:#D72425;}
	.st33{fill:#DD2426;}
	.st34{fill:#D42125;}
	.st35{fill:#DD2225;}
	.st36{fill:#DE2426;}
	.st37{fill:#DB2325;}
	.st38{fill:#DD2226;}
	.st39{fill:#D12123;}
	.st40{fill:#DE2526;}
	.st41{fill:#E02526;}
	.st42{fill:#DB2326;}
	.st43{fill:#CF2123;}
	.st44{fill:#FFFFFF;}
</style>


    <path class="st0" d="m216.6 348.3h-1.6c-0.5-0.2-1-0.1-1.5-0.1h-2-4.5-1.9-1.6c-0.6 0.1-1.2-0.1-1.7 0.1h-0.5c-0.7-0.4-1.4-0.1-2.1-0.2h-1.3c-0.5-0.1-1-0.1-1.5-0.1h-1.1-1.2c-0.3-0.1-0.6-0.1-0.9-0.1-0.4 0-0.8-0.2-1.2-0.2-0.2 0-0.5-0.1-0.7-0.1-0.4-0.1-0.8-0.2-1.2-0.1-6.8-0.8-13.5-2.3-20.1-4.2-8.9-2.6-17.4-5.9-25.5-10.2-8.7-4.6-16.9-10-24.5-16.3-4.4-3.6-8.6-7.5-12.5-11.6-4.9-5.2-9.4-10.6-13.4-16.5-4.1-6-7.8-12.2-11-18.7-5.3-10.9-9.1-22.4-11.4-34.3-0.5-2.6-1-5.2-1.2-7.8 0-0.4 0-0.8-0.1-1.2 0-0.2-0.1-0.5-0.1-0.7 0-0.4-0.1-0.8-0.1-1.2 0-0.3 0-0.6-0.1-0.9v-1.2-1.1c0-0.5 0-1-0.1-1.5v-1.3-1.9c0-0.1 0-0.2-0.1-0.3-0.1-0.4 0.1-0.8-0.1-1.1v-0.7c0.2-0.5 0.2-0.9 0-1.4v-0.7c0.2-0.6 0-1.2 0.1-1.8v-4.3c-0.1-0.6 0.1-1.2-0.1-1.8v-0.7c0.2-0.5 0.2-0.9 0-1.4v-0.7c0.2-0.3 0.1-0.7 0.1-1.1 0-0.1 0.1-0.2 0.1-0.3v-1.9-1.3c0.1-0.5 0.1-1 0.1-1.5v-1.1-1.2c0.1-0.3 0.1-0.6 0.1-0.9 0-0.4 0.2-0.8 0.2-1.2 0-0.2 0.1-0.5 0.1-0.7 0.1-0.4 0.2-0.8 0.1-1.2 0.8-6.8 2.3-13.6 4.2-20.2 2.5-8.7 5.8-17 10-25 4.6-8.9 10.1-17.2 16.5-24.9 1.1-1.3 2.3-2.6 3.4-4 0.3-0.4 0.7-0.7 1.2-0.9 0.5-0.1 1 0.1 1.4 0.5l53.1 53.1c0.4 0.5 0.5 1-0.1 1.5-0.3 0.2-0.6 0-0.8 0.3 0 0.1-0.1 0.2-0.2 0.2-0.3 0.4-0.2 0.8-0.1 1.2 0.5 0.9 1.1 1.7 2.1 2.1 0.3 0.2 0.4 0.5 0.5 0.8 0.3 0.6 0.9 0.6 1.4 0.6 1.2-0.2 2.4-0.1 3.6-0.1 0.5 0.1 0.8 0.6 1.2 0.9 0.1 0.1 0.3 0.2 0.4 0.3 0.2 0.3 0.5 0.5 0.7 0.9 0.3 0.8 0 1.4-0.6 1.9-0.4 0.3-0.8 0.6-1 1.1-0.1 0.3-0.4 0.6-0.6 0.8-0.1 0.1-0.2 0.1-0.3 0.2-1.7 0.8-3.4 1.3-5.3 1.4-1.2 0.1-2.4 0.5-3.5 1-0.2 0.2-0.4 0.3-0.5 0.5l-0.2 0.2c-0.2 0.2-0.1 0.4 0 0.6 0.1 0.1 0.1 0.3 0.2 0.4v0.7c-0.2 0.3-0.4 0.6-0.7 0.9-0.3 0.4-0.8 0.6-0.9 1.2 0 0.3-0.1 0.5-0.1 0.8 0.1 0.2 0.2 0.4 0.5 0.4 0.3 0.1 0.5 0.2 0.6 0.4 0.1 0.3 0.2 0.5 0.3 0.8v0.5c-0.1 0.2-0.2 0.4-0.4 0.6-0.9 0.1-1.4 0.6-1.6 1.4-1.2 1.5-2.9 2.2-4.5 3.1-0.3 0.1-0.5 0.1-0.7 0.4v0.2c1.7 0.4 3.4 0.3 4.7-1.1 0.4-0.5 0.9-0.9 1.6-0.9 0.2 0 0.3 0.1 0.5 0.2 0.3 0.2 0.5 0.5 0.7 0.6l0.3 0.3c0.1 0.3 0.3 0.5 0.6 0.4 0.2 0 0.4 0 0.5-0.1 0.5-0.1 0.7-0.4 0.9-0.8 0.1-0.1 0.1-0.2 0.2-0.2 0.9-0.5 1.8-0.9 2.5-1.7 1.2-0.4 1.2-0.4 1.8 0.9 0.5 0 0.8-0.4 1.3-0.3 0.7 0.3 1-0.1 1.2-0.7 0.1-0.1 0.2-0.1 0.3-0.2 1 0 1.4 0.5 1.4 1.4 0 0.5 0 1.1-0.1 1.6v0.4c-0.3 1-0.6 2-0.4 3 0 0.2 0 0.5-0.1 0.7-0.7 1.7-0.9 3.6-1.3 5.4 0 0.1 0 0.2-0.1 0.3-0.2 0.5-0.5 0.9-0.5 1.5v0.3c-0.2 0.4-0.3 0.9-0.3 1.3 0 0.3-0.1 0.5-0.3 0.8-0.3 0.4-0.6 0.7-0.7 1.2-0.3 0.7-0.6 1.3-1 2-0.2 0.3-0.4 0.6-0.5 1 0 0.1-0.1 0.2-0.2 0.3-0.2 0.2-0.4 0.4-0.6 0.5-0.1 0.1-0.2 0.1-0.3 0.2-0.7 0.1-1.5 0.4-2.2 0.7-0.7 0.1-1.1 0.6-1.2 1.3s-0.4 1.3-0.5 2v2.3c0 1.3 0.1 2.5-0.6 3.7 0 0.1-0.1 0.2-0.2 0.3-0.5 0.4-0.9 1-1.6 1.3-0.5 0.1-0.8 0.4-1 0.9-0.4 0.5-0.8 0.9-1.3 1.2-0.5 0.1-0.8 0.5-1 0.9-0.4 0.5-0.9 1.1-1.5 1.4-0.6 0.1-1 0.6-1.2 1.1-0.4 0.6-0.9 1-1.4 1.5-0.2 0.2-0.3 0.4-0.4 0.6-0.2 0.3-0.4 0.5-0.7 0.6-0.8 0.2-1.2 1-1.9 1.3-0.8 0.3-1.3 0.9-1.7 1.5s-0.9 1-1.4 1.5c-0.2 0.2-0.3 0.4-0.4 0.6-0.2 0.3-0.4 0.5-0.7 0.6-0.8 0.2-1.2 1-1.9 1.3-0.6 0.1-0.9 0.6-1.2 1.1s-0.7 0.8-1.1 1.2c-0.2 0.2-0.2 0.4-0.4 0.6-0.2 0.3-0.4 0.5-0.7 0.6-0.7 0.2-1.1 0.8-1.6 1.1-0.4 0.2-0.9 0.4-1 0.9-0.3 0.4-0.6 0.7-1.1 1-0.5 0.1-0.8 0.5-1 0.9-0.3 0.4-0.6 0.7-1 1-0.4 0-0.6 0.3-0.8 0.7-0.2 0.3-0.5 0.6-0.8 0.7-0.4 0-0.6 0.3-0.8 0.7-0.1 0.2-0.3 0.4-0.6 0.5-0.4 0.1-0.6 0.3-0.8 0.7-0.2 0.2-0.3 0.4-0.6 0.5-0.7 0.1-1 0.7-1.1 1.3-0.6 0.8-1.3 1.4-2.2 1.7-0.7-0.2-1.1 0.4-1.6 0.7-1 0.7-1.9 1.5-3 2.1-0.4 0.2-0.5 0.7-0.6 1-0.6 0.8-1.4 1.2-2.3 1.6-0.5 0.1-0.8 0.3-1.1 0.7-1.1 0.9-2.2 1.6-3.6 2.1-0.4 0-0.8 0.2-1.1 0.5-0.1 0.1-0.3 0.1-0.5 0.2-0.5-0.1-1-0.2-1.1 0.6-0.5 0.8-1.4 1.2-2.3 1.3-0.5-0.2-0.9-0.5-1.1 0.3-0.1 0.1-0.2 0.1-0.3 0.2-0.5 0.1-1.1 0.2-1.5 0.8-2.2 1.4-4.7 2.1-7.2 2.8-0.2 0-0.3 0.1-0.4 0.2 0 0.1-0.1 0.2-0.1 0.4 0 0.3 0.1 0.4 0.4 0.5 0.1 0 0.2 0.1 0.3 0.2 1 0.6 2 1 3.2 0.8 1.3-0.2 2.6-0.3 3.6-1.2 1.4-0.6 2.7-1.3 4.2-1.6 0.5 0 1.3 0.8 1.4-0.4 0-0.1 0-0.3 0.1-0.3 1.7-1.2 3.4-2.4 5.4-3.1 0.6 0.3 0.8-0.2 0.9-0.6 0.5-0.8 1.2-1.3 2.2-1.5 1.1 0 2.1-0.7 2.4-1.7 1.6-1.7 3.4-3.1 5.5-4.1 0.7 0.1 1-0.2 1-0.8 0.2-0.4 0.5-0.7 1-0.8 0.3-0.1 0.6 0 0.8-0.3 0.2-0.2 0.4-0.3 0.6-0.5 0.2-0.1 0.4-0.2 0.6-0.4s0.4-0.4 0.6-0.5c0.3-0.1 0.4-0.2 0.6-0.5 0.2-0.2 0.4-0.4 0.6-0.5 1.3-0.8 2.4-1.8 3.5-2.9 0.2-0.3 0.5-0.6 0.8-0.8 0.3-0.1 0.5-0.3 0.7-0.5 0.2-0.3 0.5-0.5 0.8-0.7 0.4-0.1 0.6-0.3 0.8-0.7 0.2-0.3 0.5-0.6 0.8-0.7 0.5-0.1 0.8-0.4 1-0.9 0.3-0.4 0.6-0.7 1.1-1 0.5-0.1 0.8-0.5 1-0.9 0.3-0.4 0.6-0.7 1-1 0.5-0.1 0.8-0.4 1-0.8 0.3-0.5 0.7-0.8 1.1-1.2 0.2-0.2 0.2-0.4 0.3-0.6 0.2-0.4 0.4-0.6 0.8-0.8 0.8-0.1 1.2-0.9 1.9-1.2 0.6-0.1 1-0.5 1.2-1.1 0.5-0.7 1-1.2 1.7-1.7 0.4-0.1 0.3-0.5 0.4-0.7 0.1-0.4 0.4-0.7 0.8-0.9 1-0.2 1.5-1.2 2.3-1.7 0.3-0.2 0.3-0.5 0.4-0.8 0.2-0.6 0.6-1 1.3-1.2 0.1 0 0.2 0 0.3 0.1 0.1 0 0.1 0 0.2-0.1 0.6-0.7 1.2-1.4 2-2 0.5-0.2 0.9-0.5 1.2-1 0.4-0.5 1-0.8 1.3-1.4 0.5-0.4 1.1-0.5 1.7-0.5 0.5 0 1 0.1 1.5-0.1 2.2-0.2 2.9-0.7 3.5-2.9 0.2-0.9 0.3-1.8 1.1-2.4 0.5-0.2 0.8-0.6 1.1-1 0.5-0.4 0.8-0.9 1.2-1.5 0.4-0.4 0.1-0.8 0.1-1.2 0.1-0.8 0.3-1.6 1.1-2.1 0.8-0.1 1-0.6 0.9-1.3 0-0.3 0.2-0.6 0.5-0.8 0.2-0.1 0.5-0.3 0.7-0.5 0.3-0.2 0.6-0.4 0.6-0.8 0.3-0.5 0.7-1 0.9-1.6 0.1-0.2 0.3-0.4 0.6-0.6s0.7-0.3 1-0.6c0.5-0.2 0.6-0.7 0.6-1.2 0.1-0.5 0.4-0.8 0.8-1 0.2-0.1 0.5-0.2 0.6-0.4 0.3-0.2 0.2-0.5 0.2-0.8 0.3-1.1 1.1-1.9 1.7-2.9 0-0.4 0.7-0.7 0-1-0.3-0.1-0.5 0-0.8 0.1-0.3 0.2-0.7 0.3-1 0.3-1.6-0.3-1.7-0.3-0.9-1.8 0.2-0.4 0.2-0.7 0.1-1.1 0.4-1.3 1.2-2.3 2.2-3.2 0.9-0.2 1.4-0.7 1.3-1.7 0.2-0.9 0.7-1.6 1.4-2.3 0.7-0.4 1.1-0.9 1.1-1.8 1.1-2.3 2.1-4.7 3.2-7 0.8-0.6 1.4-1.3 1.6-2.3 0.2-0.7 0.5-1.4 0.8-2 0.3-0.3 0.3-0.7 0.3-1.1 0-0.1 0-0.2 0.1-0.3 0-0.1 0.1-0.2 0.2-0.3 0.4-1.5 0-3.1 0.3-4.6 0.3-1 0.7-1.8 1.9-1.7 0.9 0.7 0.4 1.8 0.8 2.7v0.4c0 0.2-0.1 0.3-0.2 0.5-0.4 0.5 0 1 0 1.5-0.1 0.7-0.1 1.5-0.1 2.2-0.1 0.7-0.4 1.4-0.2 2.2-0.3 2.5-1.3 4.8-2.5 7-0.2 0.3-0.4 0.6-0.8 0.8-0.6 0.2-1.1 0.4-0.9 1.2-0.4 1.2-1.2 2.4-1.2 3.7 0 0.3 0.1 0.3 0.4 0.3 0.8 0.1 1.5 0.3 2 1 0.1 0.9 0.5 1.7 1.4 1.9 0.5 0.5 0.7 1.1 0.8 1.8-0.1 0.3-0.1 0.5 0.3 0.4 0.5 0 0.8 0.2 1 0.7v0.3c-0.1 0.4 0.1 0.7 0.3 1v0.3c0 0.2-0.1 0.4-0.3 0.6-0.7 0.6-1.4 1.1-1.8 1.9-0.2 0.3-0.5 0.6-0.9 0.7-0.3 0.1-0.6 0-0.8 0.3-0.2 0.2-0.3 0.5-0.4 0.8-0.1 0.2-0.2 0.5-0.4 0.7 0 0.1-0.1 0.2-0.2 0.3-0.4 1-0.1 2.1-0.4 3 0 0.3-0.2 0.5-0.4 0.7-0.6 0.2-1.1 0.6-1.3 1.3-0.7 1-1.6 1.9-2.6 2.7-0.5 0.2-1 0.4-1.2 0.9-0.2 0.3-0.5 0.5-0.8 0.7-0.2 0.1-0.4 0.2-0.6 0.4-0.3 0.3-0.5 0.6-0.7 1-0.2 0.3-0.5 0.5-0.9 0.7-0.4 0-0.7 0-1 0.4-0.2 0.3-0.5 0.6-0.7 1l-0.3 0.3c-0.4 0.2-0.8 0.4-1.1 0.7-0.1 0.1-0.2 0.3-0.3 0.5-0.2 0.7-1.2 0.8-1.2 1.7 0 0.1 0.1 0.2 0.2 0.2 0.7 0.3 1.4 0.1 2 0.2 0.4 0 0.8 0 1.2 0.2s0.7 0.6 1.2 0.8c0.6 0.5 0.9 1.2 1.4 1.7 0.5 0.6 0.3 1.3 0 2-0.2 0.3-0.2 0.7-0.1 1.1v0.5c0 1.3 0.9 0.8 1.6 0.8 1.2 0.4 2.4 0.8 2.7 2.2-0.1 0.7-0.3 1.4-0.4 2-0.6 1.9-0.6 3.8-0.3 5.7 0.1 0.6-0.2 1.2-0.2 1.8 0 0.5 0.1 0.9 0.2 1.3 0 1.1-0.5 2.2-1 3.2-0.2 0.5-0.5 0.9-0.5 1.4-0.3 0.7-0.3 1.4 0 2.1 0.1 0.6 0.3 1.1 0.5 1.6 0.3 1 0.4 2-0.1 2.8-1.2 1.9-2 4.1-3.2 6-0.1 0.2-0.2 0.4-0.4 0.6-0.5 0.4-0.9 0.8-1 1.4-0.2 0.5-0.5 0.9-1 1.1-1.2 0.3-2 1.3-2.8 2.1-0.3 0.4-0.5 0.8-0.7 1.3-1.2 1.5-2.5 1.7-4.1 0.7-0.8-0.5-1.4-1-2.1-1.6h-0.1s-0.1 0-0.1 0.1c-0.1 0.5 0.2 0.6 0.5 0.8 0.4 0.3 0.8 0.6 1 1.1 0.5 1.3 1.7 2 2.6 2.9 0.2 0.2 0.5 0.4 0.8 0.5l1.8 0.9c0.6 0.3 0.8 0.8 0.1 1.3-0.5 0.1-1.1-0.1-1.6 0.2v0.2c0.1 0.2 0.2 0.5 0.2 0.7-0.2 0.6 0.3 1 0.7 1.2 0.9 0.5 1.5 1.4 2.3 2.1 0.6 0.5 0.8 1.3 1.2 1.8 0.1 0.1 0.1 0.2 0.2 0.3 0.3 0.7 0.9 0.7 1.5 0.7 0.9 0.3 1.8 0.5 2.8 0.3 0.4 0 0.7 0.1 1 0.4 0.2 0.3 0.5 0.6 0.8 0.8 0.8 0.9 0.7 2 0.9 3.1-0.1 0.8-0.3 1.5-0.1 2.3 0 0.7-0.3 1.4-0.9 1.8-0.8 0.2-1.5 0.5-1.7 1.4-0.2 0.5-0.7 0.7-1.1 1-0.3 1 0.5 0.6 0.9 0.6 0.5 0.1 0.9 0.2 1.3 0.3 0.9 0.4 1.8 0.3 2.7 0.1 1.5 0.2 3.1 0.3 4.2 1.5 0.2 0.3 0.2 0.9 0.7 1 0.2 0.2 0.4 0.4 0.6 0.5 0.3 0.4 0.6 0.9 1.1 1.1 0.4 0.4 0.7 0.8 1.2 0.9 0.5 0.3 0.8 0.8 1.2 1.2 0.3 0.4 0.5 0.8 1 0.8 0.2 0 0.4 0.1 0.6 0 0.9-0.2 1.1 0.3 1 1-0.1 1.1-0.5 2.1-0.4 3.2 0 0.8 0.1 1.5 0.6 2.2 0.1 0.2 0.1 0.3 0.1 0.5 0 0.4-0.2 0.9 0.3 1.3 0.5 0.7 1.3 1 2.1 1 2.1 0.6 4.2 0.6 6.4 0.4 0.9 0 1.6-0.4 2-1.3 0.2-0.5 0.2-1 0-1.6-0.1-0.1-0.1-0.3-0.2-0.4 0.1-0.4 0-0.8-0.3-1.1-0.3-0.6-0.4-1.2-0.5-1.8-0.2-0.6-0.2-1.2-0.4-1.8 0-0.6 0-1.3-0.2-1.9-0.1-0.7 0-1.4-0.1-2.1-0.2-1-0.2-2.1-0.6-3.1v-1.1c0.2-0.6 0.6-1 1.1-1.2 0.6-0.2 1.1-0.5 1.7-0.1 0.3 0.2 0.8 0.4 1 0.7 0.1 0.2 0.2 0.3 0.2 0.5 0.2 1.9 0.7 3.8 0.8 5.7 0.2 2.9 0.3 5.7-0.3 8.6-0.1 0.3 0 0.6-0.1 0.9 0 0.1 0 0.3-0.1 0.4-0.9 2.3-1 4.7-1.2 7.2-0.1 1-0.3 1.9-0.3 2.9 0 0.7 0 1.3 0.4 1.9 0.1 0.2 0.2 0.4 0.2 0.7 0 1.1 0.9 1.1 1.6 1.4 0.5 0.2 1 0.2 1.5 0.1 0.4 0 0.8-0.1 1.2-0.2h1.1c0.8 0.3 1.6 0.2 2.4 0.3s1.5-0.3 2-1c0.6-1.1 0.8-2.3 0.6-3.6-0.3-0.9-0.7-1.8-1-2.7-0.5-1.2-0.7-2.4-0.9-3.7v-1.4c0.1-0.5 0.1-1 0-1.5 0-0.1 0-0.2 0.1-0.3 0.2-0.4 0.5-0.7 0.6-1.1 0.1-0.2 0.1-0.4 0.3-0.5 0.3-0.2 0.5-0.6 0.4-1v-0.3c0.1-0.2 0.2-0.4 0.4-0.5 0.4-0.2 0.9-0.1 1.3-0.2 0 0-0.1 0-0.1 0.1-0.3 0-0.4-0.2-0.4-0.4 0.5-1.4 1.9-1.3 3-1.7 1.2 0.2 1.7-0.1 1.8-1.3 0-0.4 0.2-0.7 0.3-1.1 0.1-0.1 0.2-0.3 0.3-0.4 0.3-0.6 0.2-1.2 0.1-1.8-0.4-0.9-0.4-1.8-0.3-2.7-0.1-0.8 0.3-1.5 0.4-2.2 0.1-0.4 0.3-0.6 0.7-0.8 0.4-0.1 0.8-0.3 0.6-0.8 0-0.4 0.2-0.7 0.4-1 0.6-0.4 0.6-1 0.8-1.6 0.2-0.4 0.3-0.8 0.4-1.2 0.5-2.9 0.1-5.9 0.4-8.8 0-0.3 0-0.5 0.2-0.8 1-1 1.1-2.4 1.4-3.7 0.1-0.8 0.1-1.6 0-2.4 0-0.2-0.1-0.4-0.1-0.5 0-0.4 0-0.9-0.1-1.3-0.3-1.1-0.5-2.3-0.8-3.4-0.1-1 0.1-1.9 0.4-2.8 0.2-0.5 0.6-0.8 1.1-1 0.6-0.1 1.3 0.1 1.1-0.9 0.1-0.5 0.3-0.8 0.7-1 0.2-0.1 0.4-0.1 0.5-0.2 0.2-0.2 0.3-0.5 0.3-0.8 0.1-0.5 0.4-1 0.5-1.5 0.3-0.9 0.7-1.7 0.5-2.7 0-0.6 0.3-1 0.7-1.4 0.9-0.5 1.7-1.2 2.3-2.1 0.1-0.1 0.2-0.2 0.4-0.3 0.3-0.1 0.7-0.2 1-0.3 0.6-0.1 0.9-0.6 1-1.2 0.8-1.4 2-2.6 2.7-4 0.5-1.5 0.5-2.9-0.4-4.2-0.2-0.3-0.3-0.5-0.3-0.8 0.1-0.5 0-1.1-0.1-1.6-1.5-5.5-2.2-11.2-3.5-16.7-0.3-1.2-0.3-2.5 0.1-3.8 0.1-0.4 0.4-0.6 0.6-0.8 0.1-0.1 0.2-0.1 0.3-0.1 0.7 0.1 0.9 0.6 1.1 1.2 0 0.4 0 0.8 0.5 0.9 1 0.6 1.6 1.5 2 2.6-0.1 1 0.7 1.5 1.3 2.2 0.2 0.2 0.4 0.4 0.5 0.6 0.1 0.4 0.4 0.6 0.7 0.8 0.2 0.3 0.5 0.5 0.7 0.8 0.1 0.4 0.4 0.6 0.7 0.8 0.2 0.3 0.5 0.5 0.7 0.8 0.1 0.4 0.4 0.6 0.7 0.8 0.2 0.2 0.4 0.4 0.5 0.6 0.1 0.4 0.4 0.6 0.7 0.8 0.2 0.2 0.3 0.4 0.5 0.6 0.1 0.2 0.3 0.4 0.4 0.6s0.3 0.4 0.5 0.6c0.1 0.2 0.2 0.4 0.4 0.6s0.5 0.3 0.8 0.4c1 0.9 1.8 1.8 2.4 3 0 0.1 0 0.2-0.1 0.4v0.1c0.2 0.1 0.5 0.2 0.8 0.2 0.4 0 0.8 0 1.2-0.3 0.3-0.2 0.5-0.5 0.6-0.8s0.1-0.5 0.1-0.8-0.2-0.5-0.4-0.7c-0.3-0.3-0.6-0.6-0.9-0.8-0.6-0.6-1.2-1.3-1.5-2.2-0.1-0.3-0.1-0.6-0.2-1-0.4-0.8-0.6-1.6-1.6-1.8-1.1-0.6-1.7-1.6-2.1-2.7 0-0.2 0-0.5 0.1-0.7 0-0.2 0.1-0.3 0.2-0.5 2.2-2.2 4.3-4.5 6.7-6.6 0.5-0.3 1 0 1.3 0.3 0.6 0.6 1.3 1.1 1.9 1.8 0.3 0.5 0.7 1 1.2 1.4 1.5 1.3 3 2.7 4.4 4.2l57.4 57.4c0.5 0.5 1.2 1 1.4 1.8 0 0.5-0.3 1-0.5 1.4-2.8 4-5.9 7.9-9.1 11.6-3.4 3.9-7 7.6-10.7 11.1-6.5 6.1-13.6 11.5-21.2 16.2-4.1 2.5-8.3 4.9-12.7 7-11 5.3-22.5 9.2-34.5 11.5-2.5 0.5-5 1-7.6 1.2-0.4 0-0.8 0-1.2 0.1-0.2 0-0.5 0.1-0.7 0.1-0.4 0-0.8 0.1-1.2 0.1-0.3 0-0.6 0-0.9 0.1h-1.2-1.1c-0.5 0-1 0-1.5 0.1h-1.3-2c-0.9 1.1-1.1 1-1.3 1.2z"/>
    <path class="st1" d="m206.8 348.1h4.7c0.1 0.1 0.1 0.2 0 0.2h-4.7c-0.2 0-0.2-0.1 0-0.2z"/>
    <path class="st2" d="m69.7 206.4v4.7c-0.1 0.1-0.2 0.1-0.2 0v-4.7c0.1-0.2 0.2-0.2 0.2 0z"/>
    <path class="st3" d="m201 348.3c-0.5-0.6-1.4-0.1-2-0.4 0.7 0.1 1.6-0.4 2.2 0.4h-0.2z"/>
    <path class="st4" d="m211.4 348.3v-0.2h2.1l0.1 0.1-0.1 0.1h-2.1z"/>
    <path class="st4" d="m206.8 348.1v0.2h-1.9c-0.1 0-0.1-0.1-0.1-0.1s0-0.1 0.1-0.1h1.9z"/>
    <path class="st5" d="m201.7 348.3c0.5-0.5 1.1-0.1 1.6-0.2 0.2 0 0.2 0.1 0 0.2h-1.6z"/>
    <path class="st3" d="m69.5 211h0.2c-0.1 0.5 0.2 1.1-0.2 1.6v-1.6z"/>
    <path class="st3" d="m69.7 206.4h-0.2v-1.6c0.4 0.4 0.2 1 0.2 1.6z"/>
    <path class="st6" d="m203.3 348.3v-0.2h1.6v0.2h-1.6z"/>
    <path class="st3" d="m69.5 213.4c0.3 0.5 0.4 0.9 0 1.4v-1.4z"/>
    <path class="st3" d="m69.5 202.7c0.4 0.5 0.3 0.9 0 1.4v-1.4z"/>
    <path class="st7" d="m213.5 348.3v-0.2c0.5 0.1 1-0.2 1.4 0.2h-1.4z"/>
    <path class="st0" d="m105.8 114.9c5.2-5.9 11-11.2 17.2-16.1 19.5-15.2 41.4-24.7 65.8-28.3 23.7-3.4 46.8-1 69.3 7.4 5.2 2 10.3 4.2 15.2 6.8 5.2 2.7 10.1 5.7 14.9 9 2.7 1.9 5.3 3.9 8 6 2.5 2 4.9 4.2 7.4 6.2 1.7 1.5 3.3 3.2 4.9 4.8 0.3 0.4 0.1 0.8-0.2 1.1-0.2 0.2-0.4 0.5-0.6 0.7l-56.8 56.8c-0.2 0.2-0.5 0.5-0.8 0.7-0.4 0.3-0.8 0.5-1.3 0.1-0.1-0.1-0.2-0.3-0.3-0.4 0.1-0.6 0-1.1-0.5-1.5-0.7-0.6-1-1.7-2-2.1-0.7-1.6-0.8-3.3-1.3-4.9-0.2-1.4-0.6-2.7-1.2-4-0.5-1.4-1.1-2.8-1.4-4.3-0.1-0.9-0.2-1.8-0.4-2.6 0-0.5-0.2-0.9-0.3-1.3 0.1-1-0.5-1.6-1.3-2s-1.5-1-2-1.8c-0.3-0.2-0.6-0.5-1-0.5-0.1 0-0.3-0.1-0.4-0.2-0.3-0.2-0.7-0.1-1-0.3-0.1-0.1-0.3-0.2-0.4-0.3-0.1-0.4-0.4-0.7-0.8-1-1.8-1-3.3-2.5-5.1-3.6-0.5-0.3-0.9-0.3-1.4 0-0.5 0-0.8-0.1-1.1-0.5-0.1-0.1-0.1-0.2-0.1-0.3-0.8-0.8-0.8-1.8-0.8-2.8-0.1-0.4 0-0.7 0-1.1s0-0.7-0.2-1c-0.4-0.8-1.2-1.1-2-1.5-0.3-0.2-0.4-0.4-0.5-0.7-0.1-0.4 0-0.8 0-1.1 0.4-2.1 0.8-4.2 1.3-6.4 0.1-0.4 0.1-0.8 0.1-1.1 0.3-2 0.7-4 0.3-6-0.1-0.3-0.1-0.6-0.1-0.9-0.3-0.7-0.2-1.6-0.9-2.2-0.4-0.4-0.7-0.9-0.6-1.5 0-0.2 0.3-0.4 0.3-0.5-1-0.7-1-2.2-2.3-2.6-0.1 0-0.2-0.1-0.2-0.2-0.1-0.2-0.2-0.5-0.5-0.6-0.1-0.1-0.2-0.1-0.2-0.2-0.2-0.3-0.1-0.6-0.1-1 0.1-0.4 0.2-0.7 0-1.1-0.2-0.5-0.5-0.8-0.7-1.3v-0.4c0-0.2-0.2-0.2-0.4-0.3-0.4-0.1-0.6-0.4-0.8-0.7-0.2-0.4-0.5-0.4-0.9-0.5-0.7-0.2-1.4-0.5-2-0.9-0.1 0-0.2-0.1-0.3-0.2-0.4-0.4-0.8-0.3-1.2 0-0.1 0.1-0.2 0.1-0.3 0.2-0.5 0.2-0.9 0.4-1.5 0.3-0.2 0-0.3-0.4-0.4-0.3-1.4 1.4-3.4 2.2-4.4 4.2-0.2 0.3-0.4 0.4-0.7 0.5-0.4 0-0.8 0.1-1.2 0.2-0.3 0-0.6-0.1-0.9-0.2-0.5-0.5-1.2-0.5-1.8-0.4-0.3 0.1-0.5 0.2-0.8 0.1-1-0.4-1.5 0.2-1.9 0.9-0.1 0.1-0.2 0.1-0.3 0.2-1 0.3-1.6 1.2-1.6 2.3 0 0.6-0.3 1-1 1.2-0.2 0-0.4 0.1-0.5 0.3-0.2 0.3-0.7 0.4-0.3 0.9 0.3 0.1 0.6-0.2 0.9-0.1s0.5 0.1 0.7 0.4c0.1 0.3 0 0.6-0.3 0.8-0.2 0-0.2 0-0.1 0.2 0 0.2 0 0.4-0.2 0.5-0.3 0.2-0.5 0.4-0.8 0.5-0.4 0.1-0.8 0-0.9 0.5 0 0.1 0 0.1 0.1 0.2 0.2 0.1 0.4 0 0.5 0 0.5-0.1 1-0.6 1.5-0.4 0.2 0 0.5 0.3 0.7 0.1 1.3-1 2.6-1.9 3.2-3.5 0.2-0.3 0.5-0.4 0.8-0.4 0.5 0 0.9 0.2 1.4 0.3 0.3 0.4 0.8 0 1.1 0.3 0.3 0.8-0.2 1.2-0.7 1.6-0.1 0-0.2 0.1-0.3 0.1-0.4 0.1-0.4 0.3-0.3 0.6v0.3c0 0.5-0.2 0.8-0.6 1.1v0.1s0 0 0.1 0c0.7 0.3 0.7 0.9 0.5 1.6-0.3 0.8-0.5 1.5-1.2 2-0.1 0-0.2 0.1-0.3 0.1-0.5 0.1-0.8 0.4-1.1 0.7-0.5 0.5-0.3 0.7 0.4 0.6 0.4-0.1 0.8-0.1 1 0.3 0.3 0.6 0 1.1-0.5 1.5-0.1 0.1-0.2 0.1-0.3 0.1-0.4 0.1-0.8 0.3-1 0.6-0.5 0.8-0.9 1.7-1.8 2-0.2 0.1-0.1 0.3 0 0.5 0.5 0.3 1-0.3 1.5-0.1 0.6 0.4 1.3 0.3 1.9 0.5 0.2 0.2 0.2 0.5 0.2 0.8v0.3c-0.2 0.4-0.3 0.8-0.3 1.2-0.1 0.5-0.3 0.9-0.8 1.1-0.3 0.2-1.2-0.2-0.7 0.8 0.1 0.2 0 0.5 0 0.8 0.1 0.4 0 0.7-0.1 1.1-0.1 0.3-0.3 0.5-0.5 0.6-0.4 0.2-0.2 0.7-0.5 1-0.7 0.8-1.6 0.7-2.5 0.5-0.8-0.2-1.5-0.7-2.3-0.7 0 0-0.1 0-0.1 0.1v0.4c0 0.5 0.3 0.9 0.7 1.2 1 0.7 1.8 1.6 2.6 2.8-0.1-0.3-0.1-0.1-0.1-0.2-0.3-0.4-0.4-0.8 0.2-0.9 0.9 0.2 1.3 0.9 1.5 1.7 0 0.5 0.2 0.9 0 1.4-0.6 0.6-1.3 1.2-1.7 2.1-1.7 0.9-3.2 2.2-4.9 3.1-1.2 0.7-2.5 1.3-3.9 1.6 0.7-0.3 0.7-0.3 1.1 0.3-0.6 0.9-1.6 1-2.5 1.2-1.3-0.3-1.7 0-2.7 1.2-0.7 0.9-1.2 1.9-1.8 2.9-0.3 0.5-0.1 0.7 0.1 1 0.1 1-0.6 1.6-1.2 2.2-0.6 0.2-1 0.9-1.7 1.1-1.3 0.5-2.4 2.7-1.9 3.9 0 0.5-0.2 0.9-0.5 1.2-0.3 0.1-0.5 0.4-0.4 0.8-0.1 0.5-0.3 1-0.9 1.1-1.1 0-1.9 0.7-2 1.6-0.7 1.1-1.1 2.4-1.9 3.5-0.9 0.7-2.1 1.2-1.7 2.7v0.5c-0.1 0.4-0.2 0.7 0.2 1 0.2 0.1 0.4 0.4 0.3 0.7-0.2 0.2-0.4 0.4-0.7 0.4h-0.5c-0.4-0.4-1-0.2-1.5-0.2-0.1 0-0.2 0-0.3-0.1-0.4-0.3-0.9-0.2-1.3-0.2-0.1 0-0.2 0-0.3-0.1-0.4-0.3-0.8-0.1-1.2 0-1.1-0.1-2.3-0.2-3.2-1.1-0.1-0.7-0.6-1.2-1.3-1.4-0.6-0.2-1.1-0.6-1.6-1 0 0 0-0.1-0.1-0.2 0.3-0.4 0.4-0.7 0-1.1-0.2-0.1-0.3-0.3-0.5-0.5-17.4-17.4-34.7-34.8-52.1-52.1-0.4-0.3-0.7-0.8-1.3-0.9z"/>
    <path class="st0" d="m286.4 235.9c1.1 0.2 2.1 0.3 3.2 0.5 0.1 0.1 0.2 0.1 0.3 0.2 0.8 0.1 1.6 0.2 2.3 0 0.1 0 0.3-0.1 0.4-0.2 1.2-0.4 2.2-1.1 3.1-1.9 0.1-0.1 0-0.2-0.1-0.2h-0.7c-0.1-0.1-0.3-0.1-0.4-0.2-0.5 0-1.1-0.2-1.7-0.1-2 0-3.9-0.6-5.8-1.2-0.9-0.5-1.8-0.8-2.8-0.9-2.8-0.9-5.4-2.2-7.9-3.7-0.1-0.6 0.3-0.4 0.6-0.4-0.4-0.5-0.9 0-1.4-0.1s-0.9-0.4-1.3-0.7c0-0.3 0-0.5-0.3-0.8-0.9-0.7-2-1-2.9-1.7-3.3-2.1-6.5-4.2-9.6-6.5-1.5-1.1-3-2.3-4.6-3.2-0.1 0-0.3-0.1-0.4 0-0.1-0.1-0.2-0.1-0.3-0.2-0.2-0.6-0.4-1.2-1.2-1.3-0.1-0.1-0.3-0.2-0.3-0.3-0.2-0.8-0.5-1.5-1.4-1.7-0.1-0.2-0.1-0.3-0.2-0.5 0.2-0.5 0-1-0.2-1.4-0.2-0.5-0.4-1.1-0.5-1.6-0.1-0.3 0.4-0.5-0.1-0.8-0.9-0.5-1.7-1.3-2.7-1.6-0.4-0.7-0.5-1.6-1.6-1.7-0.1-0.3-0.3-0.6-0.5-0.9-0.2-2.2-0.6-4.4-1-6.6-0.3-1.6-0.8-3.2-0.9-4.9-0.1-0.8 0.1-1.7-0.1-2.5-0.1-0.9 0.1-1.7 0.6-2.4h0.4c0.9-1 1.7-2.1 1.7-3.5 0.4-2.1 0.3-4.1 0.5-6.2-0.1-1.1 0.3-2.1 0-3.2v-0.5c0.1-0.2 0.1-0.5 0.2-0.7 0.1-0.8 0-1.6 0.3-2.3 0.6 0.3 0.8-0.3 1.1-0.6l57.4-57.4c0.4-0.4 0.9-0.7 1-1.4 0.4 0.1 0.6 0.5 0.9 0.7 19.7 20.5 32.4 44.6 37.2 72.6 6.3 36.9-0.9 71.1-21.5 102.5-0.2 0.3-0.4 0.6-0.6 0.8-0.4-0.3-0.8-0.6-1.1-1l-62.5-62.5c-0.3-0.3-0.6-0.7-0.9-1 0.6-0.5 1-0.1 1.5 0.2 1.6 1 3.2 2.1 4.8 3.2 1.6 1.2 3.4 1.9 5 3 0.8 0.5 1.6 1 2.5 1.5 0.6 0.3 1.1 0.5 1.7 0.4 1 0.5 2 1 2.9 1.5 0.5 1.2 1.6 1 2.6 1.1 0.5 0.5 1.4 0.3 1.9 0.9v0.1c0.1 0.1 0.2 0 0.3 0.1 0.9 0.4 1.9 1 3.1 1.2z"/>
    <path class="st3" d="m247.2 215.9c0.2 0.8 0.3 1.6 0.8 2.3 0.2 0.5-0.3 0.2-0.5 0.4 0.6 0.3 0.9 1.1 1.7 0.8 0.4 0 0.7 0.2 1.1 0 0.6 0.1 0.8-0.3 0.9-0.8l0.3-0.9c0.2-0.1 0.4-0.4 0.6-0.4 1.7 0.6 3.2 1.5 4.6 2.6 0.2 0.2 0.4 0.5 0.4 0.8-2.1 2.3-4.2 4.4-6.5 6.5-1.4-1.2-2.6-2.6-3.5-4.2-0.6-1.1-1.6-1.9-2.3-3-1.1-1.7-2.2-3.4-3.5-5-0.2-0.2-0.3-0.5-0.1-0.7 0.2-0.3 0.5-0.2 0.8-0.1s0.6 0.3 0.9 0.5c-0.4-0.3-0.9-0.5-1.4-0.7-0.4-0.2-0.4-0.3 0-0.7 1.1 0.5 2.1 1.1 3.2 1.6 0.4 0.3 0.8 0.1 1.2 0.1 0.3-0.1 0.3-0.4 0.4-0.6 0-0.1 0-0.2 0.1-0.2 0.2-0.3-0.2-0.8 0.4-0.9 0.1 0.4 0.2 0.7 0.3 1.1 0.2 0.5 0 1 0.1 1.5z"/>
    <path class="st8" d="m257.1 220.8c-1.6-1.2-3.3-2.3-5.1-3.3-0.1-0.7 0.1-0.9 0.8-0.5 0.2 0.1 0.5 0.4 0.8 0.3 2.7 1.5 5.2 3.4 7.7 5.1 1.8 1.2 3.6 2.4 5.3 3.7 0.4 0.5 1 0.8 1.6 1 2.4 1.4 4.7 2.7 7.1 4.1-0.3 0.6-0.6 0.8-1.2 0.5-2.6-1.6-5.1-3.2-7.7-4.7-2.3-1.2-4.1-3.1-6.5-4.1-0.6-0.6-1.2-1.1-1.8-1.7-0.4-0.3-0.6-0.6-1-0.4z"/>
    <path class="st8" d="m241.5 213.3c-0.3 0.6 0.4 0.5 0.6 0.7 0.5 0.4 1.2 0.5 1.7 1-1 0.3-1.6-0.8-2.4-0.7 1.4 2.1 2.6 4.3 4.2 6.2 1.2 1.4 1.9 3.1 3.3 4.4 0.7 0.6 1.2 1.4 1.5 2.3l-0.2 0.2c-0.3 0.2-0.5-0.2-0.7-0.2-1-1.2-1.9-2.4-2.8-3.7 0.1-0.4-0.2-0.5-0.5-0.7-2.5-3.2-4.7-6.5-6.9-9.8 0-0.4 0.2-0.6 0.6-0.6 0.6 0.4 1.2 0.6 1.6 0.9z"/>
    <path class="st3" d="m241.5 241.7c-1.1-3.8-1.7-7.7-2.4-11.6-0.3-1.9-0.8-3.7-1.2-5.5-0.3-1.6-0.3-3.1 0.5-4.6 0.2-0.5 0.5-0.8 0.6 0l-0.1 0.1c-0.1 0.2-0.1 0.6-0.5 0.7-0.5 1.8-0.2 3.6 0.2 5.4 1.2 4.8 1.7 9.8 3 14.6 0.1 0.3 0.2 0.5 0.2 0.8 0 0-0.1 0.3-0.3 0.1z"/>
    <path class="st8" d="m177.8 203.2c-0.3 0.2-0.5 0.4-0.8 0.6-0.5 0.1-0.8 0.4-0.9 0.9-0.2 0.3-0.4 0.6-0.7 0.8-0.6 0.2-0.7 1-1.5 1-0.3-0.5 0.4-0.9 0.3-1.4 0.9-1.6 1.9-3.1 3-4.5 0.5 0.9-0.7 1.5-0.5 2.4 0.3 0 0.9-0.5 1.1 0.2z"/>
    <path class="st9" d="m209.1 293.8c0.7 1 0.7 2.2 0.9 3.3 0.7 3 1 6.1 0.5 9.2-0.2 1.1-0.4 2.2-0.9 3.2 0.2-2.1 0.7-4.1 0.7-6.2 0-2.8-0.5-5.6-1-8.3-0.1-0.4-0.1-0.8-0.2-1.2z"/>
    <path class="st10" d="m160.9 174.5c0.5 0.7 1.1 0.7 1.8 0.5 1.4-0.4 2.7-0.4 4.1-0.1 0.9 0.2 1.7 0.6 2.3 1.4 0.1 0.5 0.2 1 0 1.5-0.1 0.1-0.2 0.3-0.3 0.4-0.2 0-0.4 0-0.3-0.2 0.4-1.3-0.4-1.9-1.3-2.4-0.2-0.1-0.4-0.3-0.7-0.4-1.4 0-2.7-0.1-4.1 0.2-1.1 0.2-1.5-0.1-1.5-0.9z"/>
    <path class="st8" d="m121.9 256.4c-1.7 1.4-3.5 2.8-5.4 3.9-0.2-0.5 0.1-0.7 0.4-1 1.3-1 2.7-1.9 4-2.9 0.4-0.2 0.7-0.2 1 0z"/>
    <path class="st11" d="m208.7 317.7c0 0.3 0 0.6-0.1 0.8-0.2 0.4 0 0.8-0.2 1.2-0.3 0.7 0 1.5 0 2.2-0.9-0.9-0.4-2-0.3-3 0.3-2.7 0.4-5.5 0.9-8.2 0.1-0.5 0.1-1 0.5-1.4-0.2 1.4-0.4 2.8-0.5 4.2-0.2 0.5 0 1-0.2 1.5v0.8c-0.2 0.7 0.1 1.4-0.1 1.9z"/>
    <path class="st12" d="m196.5 306.4c0 0.4 0 0.8 0.1 1.2-0.9-1.7-0.5-3.4-0.3-5.2 0.1-0.8 0.6-1.9-1-0.9-0.1 0-0.3-0.1-0.4-0.1 0.8-0.3 1.1-1.5 2.2-1.3-0.2 1.1-0.4 2.3-0.6 3.4-0.1 0.9-0.1 1.9 0 2.9z"/>
    <path class="st11" d="m184 234.8c-0.3 1.2-0.2 2.5-0.2 3.8 0 1.2 0.2 2.5 0 3.7-0.1 0.1 0 0.4-0.2 0.5-0.1 0-0.2 0-0.2-0.1 0.3-2.4-0.4-4.9 0.2-7.3 0-0.2 0.2-0.4 0.2-0.6 0-0.1 0.1-0.1 0.2 0z"/>
    <path class="st3" d="m160.3 182.4c-1.1 0.3-2.1 0.8-3.2 0.8-0.1-0.6 0.4-0.4 0.7-0.5 1.5-0.3 3-0.8 4.6-0.8 1.4 0 2.6-0.9 3.9-1.3-1.1 1-2.4 1.5-3.9 1.6-0.7 0.2-1.4 0-2.1 0.2z"/>
    <path class="st8" d="m167.2 175.4c1.7 0.3 1.6 1.5 1.6 2.8-0.4 0.8-1 1.3-1.6 1.8-0.1-0.1-0.3 0-0.5-0.2 0.1-0.6 0.5-0.9 1-1.2 0.6-0.4 0.8-0.9 0.6-1.6-0.1-0.3-0.4-0.5-0.7-0.7l-0.2-0.2c0-0.2-0.3-0.4-0.2-0.7z"/>
    <path class="st8" d="m172.4 275.2c1.1 1.1 2.3 2 3.2 3.3-0.1 0.1 0 0.4-0.2 0.5-0.8-1.1-1.9-1.7-2.8-2.6-0.4-0.4-0.5-0.8-0.2-1.2z"/>
    <path class="st13" d="m94.4 273.1c2.5 1.4 5 0.4 7.4-0.2-1.4 1.6-5.8 1.7-7.4 0.2 0.1 0.1 0 0.1 0 0z"/>
    <path class="st8" d="m129.8 254.8 3.3-2.7c0.1 0.1 0.4 0 0.5 0.2-1.2 1.1-2.3 2.2-3.7 3-0.3-0.2-0.1-0.4-0.1-0.5z"/>
    <path class="st14" d="m228.2 289c0.1-0.5 0.2-0.9 0.2-1.4 0.2-1.4 0-2.8 0.1-4.2 0-0.4-0.1-0.8 0.1-1.2 0-0.7-0.2-1.5 0.5-2-0.5 3.1 0 6.2-0.5 9.3-0.4 0.1-0.2-0.4-0.4-0.5z"/>
    <path class="st3" d="m219.4 319.5c-0.4-1.7-1.5-3.3-1.8-5 0-0.3-0.1-0.5-0.1-0.8 0.2-0.2 0-0.5 0.2-0.7 0.4 2.2 1.2 4.2 2.1 6.3-0.1 0-0.2 0.3-0.4 0.2z"/>
    <path class="st8" d="m177 263.8c-0.7 1-1.5 1.7-2.5 2.3-0.1 0-0.3 0-0.5-0.2 0.6-0.9 1.7-1.3 2.4-2.3 0.2-0.3 0.4 0.1 0.6 0.2z"/>
    <path class="st15" d="m168.4 268.7c1.3 0.7 2.1 2 3.2 2.9 0 0.4-0.2 0.4-0.5 0.2-0.9-1-2.1-1.7-2.7-3.1z"/>
    <path class="st3" d="m148.9 196.6h0.7c0.6 0.1 1.2 0.1 1.8 0 1.1 0.1 2.1-0.5 3-1 0.1 0.3 0 0.5-0.3 0.7-1.6 0.8-3.4 0.9-5.2 0.7-0.1 0-0.1-0.2 0-0.4z"/>
    <path class="st8" d="m158.9 171.4c0.5 0.8 1.5 1.2 1.8 2.2-0.2 0.1-0.5 0.3-0.5 0.2-0.6-0.8-1.7-1.2-1.9-2.3 0.2-0.2 0.4-0.1 0.6-0.1z"/>
    <path class="st8" d="m116 265.2c0.9-0.6 1.7-1.3 2.6-1.9 0.3 0.5-0.1 0.8-0.4 1-0.5 0.4-1 0.7-1.5 1.1-0.4 0.4-0.5 0-0.7-0.2z"/>
    <path class="st16" d="m199.4 310.4c0.6 0 1.2-0.2 1.8 0s1.3 0 2 0.2c1-0.2 2.1 0.2 3.2-0.2 0.1 0.1 0.1 0.3 0 0.4-2.2 0-4.3 0.2-6.5-0.2-0.3 0-0.5-0.1-0.8-0.2 0.1-0.1 0.2-0.1 0.3 0z"/>
    <path class="st3" d="m161.4 193.5c0.2-0.1 0.3-0.2 0.5-0.3 1.8-0.6 1.8-0.6 1.7 1.2 0 0.2 0 0.5 0.1 0.7-0.3-0.2-0.6-0.5-0.5-0.8 0.3-1.1-0.3-1-1-0.8-0.6 0.6-0.6 0.5-0.8 0z"/>
    <path class="st14" d="m242.6 248.3c-0.4-0.3-0.1-0.6 0-0.9 0.3-1.3-0.1-2.5-0.4-3.7 1.1 1.4 1 3 0.4 4.6z"/>
    <path class="st11" d="m172.2 272c0.7 0.3 1.3 0.6 2 0.8 0.4 0.2 0.7 0.4 0.7 0.8s-0.3 0.5-0.6 0.7c-0.1-0.1-0.2-0.1-0.3-0.2 0-0.1 0-0.2 0.1-0.2 0.6-0.4 0.1-0.5-0.1-0.7-0.6-0.3-1.3-0.6-2-1-0.1-0.2-0.1-0.3 0.2-0.2z"/>
    <path class="st3" d="m167 200.1c-0.4 1.8-0.7 3.7-1.1 5.5 0 0.1-0.2 0.2-0.2 0.4 0.1-1.8 0.7-3.6 1-5.4 0-0.2 0.2-0.4 0.3-0.5z"/>
    <path class="st8" d="m223 304.3c0.7-0.5 1.4-1 1.9-1.6 0.1 0.2 0.4 0.1 0.4 0.4-0.2 0.7-1.5 1.4-2.3 1.2z"/>
    <path class="st3" d="m214.9 323.7c1 0 2.1 0.8 3.1 0 0.3-0.2 0.5-0.6 0.8-0.8 0.2 0 0.2 0.2 0.3 0.3-0.7 1-1.7 1.4-2.9 1-0.6-0.2-1.2 0.1-1.8-0.3 0.2-0.2 0.4-0.1 0.5-0.2z"/>
    <path class="st8" d="m188.4 195.7c0.7 0.4 1.1 1 1.4 1.8-1 0-1.5-0.7-1.4-1.8z"/>
    <path class="st8" d="m161.4 193.5c0.2 0.3 0.5 0.2 0.7 0.1-0.6 0.9-1.5 1.4-2.6 1.6 0.6-0.7 1.2-1.3 1.9-1.7z"/>
    <path class="st8" d="m106 271.3c0.5-0.2 0.9-0.5 1.4-0.7 0.2 0.3 0.5 0.1 0.8 0.3-0.7 0.3-1.2 1.4-2.2 0.4z"/>
    <path class="st3" d="m229.1 279.4c0.3-1.2 0.6-2.3 1-3.5 0-0.1 0.1-0.1 0.2-0.1s0.2 0.1 0.2 0.1c-0.2 0.9-0.4 1.7-0.7 2.5 0 0.5-0.2 0.9-0.7 1z"/>
    <path class="st8" d="m144.9 236.2c-0.4 0.5-0.9 1-1.4 1.3-0.1-0.1-0.3 0-0.5-0.2 0.5-0.7 0.9-1.4 1.9-1.6 0.2 0.2 0 0.3 0 0.5z"/>
    <path class="st8" d="m253.6 232.7c-0.5-0.6-1-1.2-1.4-1.8 0.2-0.2 0.5-0.5 0.7 0 0.4 0.6 1 1.1 1.2 1.9-0.2 0-0.4-0.1-0.5-0.1z"/>
    <path class="st8" d="m242.4 224.7c0.5 0.6 1 1.3 1.6 1.9-0.1 0.1 0 0.4-0.2 0.5-0.6-0.7-1.7-1.2-1.4-2.4z"/>
    <path class="st3" d="m157.9 221.3c0.1 1.4 0 2.7-1.1 3.8 0.5-1.2 0.8-2.4 0.7-3.8 0.1-0.1 0.1-0.1 0.2-0.1s0.1 0 0.2 0.1z"/>
    <path class="st3" d="m229.9 271.8c-0.2-1.1-0.7-2.1-0.7-3.3 0-0.1 0.1-0.2 0.2-0.2l0.9 3.3c-0.1 0.1-0.2 0.3-0.4 0.2z"/>
    <path class="st17" d="m185.9 212.2c-0.8 1-1.8 2-2.8 2.8-0.2 0.1-0.3 0-0.2-0.2 1-0.8 1.8-1.6 2.6-2.6 0-0.1 0.2-0.6 0.4 0z"/>
    <path class="st8" d="m180.1 229.8c0.5 0.5 1 0.9 1.6 1.2-0.8 0.7-1.2 0-1.8-0.5-0.4-0.2-0.2-0.5 0.2-0.7z"/>
    <path class="st8" d="m182.8 290.1c-0.4 0.7-0.9 1.1-1.6 1.4-0.2-0.2-0.5-0.5 0-0.6 0.6-0.1 0.6-1.4 1.6-0.8z"/>
    <path class="st17" d="m189.3 175.1c0-0.5 0.1-1 0.5-1.4-0.4 1.7 0 3.5-0.5 5.2-0.2-1.2-0.1-2.5 0-3.8z"/>
    <path class="st8" d="m179.3 197.5c0.5-0.6 0.9-1.3 1.4-1.9 0.2 1.1-0.4 1.9-1.4 1.9z"/>
    <path class="st3" d="m225.4 299.4c-0.5-1-0.6-2-0.5-3 0.2-0.1 0.3 0.1 0.4 0.2 0 1 0 1.9 0.5 2.8-0.1 0.1-0.1 0.1-0.2 0.1 0 0.1-0.1 0-0.2-0.1z"/>
    <path class="st8" d="m170.7 216.4c0.3-0.5 0.5-1 0.9-1.4 0.3 0.2 0.5 0.4 0.2 0.8s-0.5 0.8-0.7 1.3c-0.2-0.4-0.3-0.5-0.4-0.7z"/>
    <path class="st8" d="m156 191.3c-0.4 0.6-0.9 1.1-1.6 1.4-0.1-0.8 0.7-1.5 1.6-1.4z"/>
    <path class="st17" d="m219.1 323.2-0.3-0.3c0.6-1.1 0.9-2.2 0.5-3.5 0.1-0.1 0.3-0.2 0.4-0.2 0.2 1.4 0.2 2.8-0.6 4z"/>
    <path class="st3" d="m166.5 193.4c0.6-0.5 1-0.4 1.4 0.2 0.2 0.4 0.1 0.9 0 1.3-0.4 0.5 0.1 1.2-0.5 1.6 0-0.5 0-1 0.1-1.5 0.3-1 0.1-1.6-1-1.6z"/>
    <path class="st11" d="m206.1 298.1c-0.2-0.9-0.3-1.9-0.5-2.8 0.1-0.2 0.1-0.2 0.2 0 0.6 0.9 0.4 2.1 0.7 3-0.1 0.1-0.1 0.1-0.2 0.1-0.1-0.1-0.1-0.2-0.2-0.3z"/>
    <path class="st3" d="m256.9 238.3c-0.4-0.9-0.9-1.7-1.3-2.6 0.5 0 0.6 0.4 0.9 0.7s0.3 0.6 0.5 0.9c0.1 0.4 0.4 0.7-0.1 1z"/>
    <path class="st8" d="m146.3 240.3c0.4-0.4 0.8-0.7 1.2-1.1 0.1 0.1 0.4 0 0.5 0.2-0.2 0.7-0.8 1-1.4 1.2-0.2-0.1-0.3-0.1-0.3-0.3z"/>
    <path class="st18" d="m178.2 281.7c1.1 0.1 2.3-0.2 3.3 0.5-1.1 0.2-2.2-0.2-3.3-0.2-0.1-0.1-0.1-0.1 0-0.3-0.1 0.1 0 0 0 0z"/>
    <path class="st8" d="m108.2 265.6c-0.4 0.3-0.7 0.5-1.2 0.6-0.2-0.2-0.5 0-0.8-0.2 0.6-0.5 1.2-1 2-0.4z"/>
    <path class="st19" d="m150.7 236.1c0.8-0.7 1.6-1.4 2.3-2.1 0.1 0 0.2 0 0.3 0.1 0.1 0.2-0.1 0.3-0.2 0.4-0.5 0.4-0.9 0.9-1.4 1.3-0.3 0.3-0.5 0.7-1 0.3z"/>
    <path class="st8" d="m150.7 230.8c-0.4 0.4-0.8 0.7-1.2 1.1-0.1-0.1-0.3 0-0.5-0.2 0.3-0.6 0.7-1 1.4-1.2 0.2 0.2 0.3 0.2 0.3 0.3z"/>
    <path class="st19" d="m154.7 232.4c0.8-0.7 1.5-1.4 2.3-2.1 0.2-0.1 0.3 0 0.3 0.2-0.8 0.6-1.5 1.3-2.1 2.1-0.1 0.1-0.1 0.1-0.2 0-0.2 0-0.2-0.1-0.3-0.2z"/>
    <path class="st20" d="m232.6 262.6c0.4-0.8 0.8-1.7 1.2-2.5 0.1-0.1 0.2-0.1 0.2 0 0 0.6-0.4 1.1-0.5 1.6-0.2 0.3-0.2 0.7-0.5 0.9-0.1 0.2-0.3 0.2-0.4 0z"/>
    <path class="st3" d="m234 260.1h-0.2c0.2-0.9 0.5-1.9 0.7-2.8 0.4 1.1-0.1 1.9-0.5 2.8z"/>
    <path class="st8" d="m179.9 292.3c-0.2 0.9 0.8 0.9 1.2 1.3-0.7 0.4-1.1 0-1.5-0.4-0.4-0.5 0-0.7 0.3-0.9z"/>
    <path class="st8" d="m238.4 253.4c0.5-0.4 0.9-0.8 1.4-1.2 0.3 1-0.6 1.1-1.1 1.4-0.1 0-0.3-0.1-0.3-0.2z"/>
    <path class="st14" d="m155.7 189.1h0.2c0.5 0.1 1.1 0.1 1.2 0.6s-0.5 0.8-0.9 1.1v-0.5c0-0.3 0-0.5-0.2-0.7-0.2-0.1-0.5-0.2-0.7-0.2 0.1-0.2 0.1-0.4 0.4-0.3z"/>
    <path class="st17" d="m235.2 256.2c0.6-0.9 1.5-1.4 2.3-2.1-0.5 1-1.3 1.6-2.3 2.1z"/>
    <path class="st8" d="m191 296.7c0.4 0.2 0.7 0.5 0.9 0.9-0.1 0.1 0 0.4-0.2 0.5-0.7-0.1-0.9-0.6-1.2-1.2 0.1-0.2 0.3-0.1 0.5-0.2z"/>
    <path class="st8" d="m139.1 241.5c-0.4 0.4-0.8 0.7-1.2 1.1-0.1-0.1-0.3 0-0.5-0.2 0.4-0.5 0.7-1 1.4-1.2 0.2 0.2 0.3 0.2 0.3 0.3z"/>
    <path class="st8" d="m185.9 212.2c-0.2-0.2-0.3-0.1-0.5 0 0.4-0.5 0.2-1.6 1.4-1.2-0.2 0.5-0.5 0.9-0.9 1.2z"/>
    <path class="st3" d="m199.4 310.4h-0.3c-0.9 0-1.6-0.5-2.1-1.2-0.2-0.3-0.2-0.4 0.2-0.5 0.6 0.9 1.4 1.2 2.2 1.7z"/>
    <path class="st8" d="m125.4 253.6c-0.4 0.5-0.9 0.9-1.4 1.1-0.1-0.9 0.5-1.1 1.2-1.4 0 0.2 0.2 0.2 0.2 0.3z"/>
    <path class="st21" d="m161.7 214.5c-0.5 0.9-1.6 0.6-2.3 1.2-0.1 0-0.2 0-0.3-0.1-0.1-0.2 0.1-0.3 0.2-0.4 0.8-0.2 1.6-0.4 2.4-0.7z"/>
    <path class="st8" d="m159.3 215.2c-0.1 0.2-0.1 0.3 0 0.5-0.3 0.3-0.6 0.6-0.9 1-0.2 0-0.3 0.1-0.5 0 0.2-0.8 0.7-1.3 1.4-1.5z"/>
    <path class="st10" d="m177.4 223.8c0.2 0 0.3 0 0.4 0.2 0.1 0.1 0.1 0.2 0 0.3-0.8-0.4-1.7-0.2-2.5-0.2-0.5 0-1 0.1-1.5-0.2 1.2-0.3 2.4-0.2 3.6-0.1z"/>
    <path class="st8" d="m230.7 264.8 1.2-1.2c0.2 1.1 0 1.3-1.2 1.2z"/>
    <path class="st22" d="m186.4 184.5c0.6-0.7 1.2-1.4 1.8-2.1-0.2 1.1-0.9 1.7-1.8 2.1z"/>
    <path class="st8" d="m104.7 267.4c-0.4 0.3-0.7 0.5-1.2 0.5 0.1-0.7 0.6-1 1.2-1.2 0.5 0.2-0.7 0.4 0 0.7z"/>
    <path class="st19" d="m187.5 209.3c0 0.4-0.1 0.9-0.5 1.1 0.3-1.2 0-2.4 0.5-3.6 0.2 0.9 0.1 1.7 0 2.5z"/>
    <path class="st8" d="m180.1 204.3c0.1-0.7 0-1.3-0.8-1.6 0.1-0.1 0.1-0.1 0.2 0 1.1-0.1 1.2 0 0.6 1.6z"/>
    <path class="st8" d="m141.2 245c0.3-0.3 0.6-0.6 1-0.9 0.1 0.1 0.4 0 0.5 0.2-0.2 0.6-0.6 0.8-1.2 0.9-0.2 0-0.3 0-0.3-0.2z"/>
    <path class="st19" d="m144.9 236.2c-0.2-0.1-0.1-0.3 0-0.5 0.7-0.4 1-1.3 1.9-1.4-0.5 0.8-1.2 1.3-1.9 1.9z"/>
    <path class="st8" d="m189.3 175.1v3.8h-0.2c0.1-1.2-0.1-2.5 0.2-3.8z"/>
    <path class="st19" d="m147.9 239.4c-0.1-0.1-0.3-0.1-0.5-0.2 0.6-0.6 1.2-1.1 1.8-1.7 0.2-0.1 0.3 0 0.3 0.2-0.6 0.5-1.1 1.1-1.6 1.7z"/>
    <path class="st11" d="m206.3 310.9v-0.4c0.7-0.2 1.2-0.6 1.6-1.2 0.1-0.1 0.2-0.1 0.2 0-0.1 0.9-1 1.1-1.8 1.6z"/>
    <path class="st8" d="m177.4 223.8h-3.6v-0.2c1.1 0.1 2.4-0.2 3.6 0.2z"/>
    <path class="st3" d="m157.9 216.6c0.2-0.1 0.3-0.1 0.5 0-0.5 0.6-0.4 1.4-0.5 2 0 0.1-0.1 0.1-0.2 0.1s-0.2-0.1-0.2-0.1c0.1-0.6 0.3-1.3 0.4-2z"/>
    <path class="st23" d="m157.9 229.4c0.5-0.4 1.1-0.8 1.6-1.1 0 0.7-0.9 0.9-1.2 1.4-0.2 0.1-0.4 0.1-0.4-0.3z"/>
    <path class="st8" d="m156 186.8c-0.3 0.4-0.6 0.8-0.9 1.2-0.2 0-0.2-0.2-0.3-0.3 0.1-0.6 0.6-1 0.9-1.4 0.3 0.2 0.3 0.4 0.3 0.5z"/>
    <path class="st8" d="m155.4 226.6c-0.2 0.2-0.5 0.4-0.7 0.7-0.1-0.1-0.4 0-0.5-0.2 0.2-0.5 0.5-1 1.2-0.9 0.2 0.1 0 0.3 0 0.4z"/>
    <path class="st8" d="m187.9 189.2c-0.3 0.4-0.6 0.8-0.9 1.2-0.1-1 0.2-1.4 0.9-1.2z"/>
    <path class="st24" d="m192 202.4c-0.4 0.9-1 1.5-1.9 1.9 0.4-0.7 1.1-1.4 1.9-1.9z"/>
    <path class="st8" d="m131.9 248c-0.3 0.3-0.6 0.6-1 0.9-0.1-0.1-0.4 0-0.5-0.2 0.3-0.4 0.6-0.8 1.2-0.9 0.1 0.1 0.3 0.1 0.3 0.2z"/>
    <path class="st8" d="m139.1 246.9c0.3-0.3 0.6-0.6 1-0.9 0.1 0.1 0.3 0 0.5 0.2-0.3 0.4-0.6 0.8-1.2 0.9-0.2-0.1-0.3-0.1-0.3-0.2z"/>
    <path class="st16" d="m229.4 268.3-0.2 0.2c-0.2-1.1-0.1-2.2 0.7-3.1-0.2 1-0.7 1.9-0.5 2.9z"/>
    <path class="st24" d="m191.2 172.2c0.3-0.3 0.5-0.2 0.5 0.2 0.1 0.9 0.1 1.7 0 2.6-0.6-0.9 0-2-0.5-2.8z"/>
    <path class="st9" d="m167.5 196.4c0 1-0.1 2.1-0.5 3-0.1-1 0-2.1 0.5-3z"/>
    <path class="st3" d="m208.7 322.4c0.6 0.4 1 1.1 1.8 1.2l0.1 0.1-0.1 0.1c-0.8-0.1-1.8-0.1-1.8-1.4z"/>
    <path class="st8" d="m165 194.2c0.4-0.4 0.9-0.7 1.5-0.7-0.2 0.9-0.7 1.1-1.5 0.7z"/>
    <path class="st8" d="m153.3 228.5c-0.3 0.3-0.6 0.6-1 0.9-0.1-0.1-0.4 0-0.5-0.2 0.3-0.4 0.6-0.8 1.2-0.9 0.1 0 0.3 0 0.3 0.2z"/>
    <path class="st19" d="m149.1 231.7c0.1 0.1 0.3 0.1 0.5 0.2-0.5 0.5-1.1 1-1.6 1.5-0.2 0.1-0.3 0-0.3-0.2 0.6-0.4 1-0.9 1.4-1.5z"/>
    <path class="st8" d="m254 238.8c0.4 0.2 0.8 0.4 1.2 0.7-0.1 0.2-0.4 0.1-0.5 0.2-0.5-0.1-0.9-0.3-1.2-0.7 0.2-0.1 0.4-0.2 0.5-0.2z"/>
    <path class="st19" d="m139.1 241.5c-0.1-0.1-0.2-0.2-0.3-0.2 0.7-0.4 1-1.3 1.9-1.4-0.3 0.7-1 1.1-1.6 1.6z"/>
    <path class="st19" d="m143 237.3c0.1 0.1 0.3 0.1 0.5 0.2-0.5 0.5-1.1 1-1.6 1.5-0.2 0.1-0.3 0-0.3-0.2 0.6-0.4 1.1-0.9 1.4-1.5z"/>
    <path class="st17" d="m182.1 193.5c0.4-0.6 0.8-1.2 1.2-1.9 0 1-0.4 1.6-1.2 1.9z"/>
    <path class="st8" d="m230.3 276h-0.2v-3c0.1-0.2 0.1-0.2 0.2 0l0.2 0.2c-0.3 0.9 0.1 1.8-0.2 2.8z"/>
    <path class="st8" d="m226.3 293.8c0.2-0.3 0.5-0.7 0.7-1 0.4 0.2 0.4 0.5 0.2 0.9-0.3 0.4-0.6 0.5-0.9 0.1z"/>
    <path class="st25" d="m191.7 298.1c0.1-0.1 0.1-0.3 0.2-0.5 0.4 0.4 0.9 0.8 1 1.4-0.6-0.1-0.9-0.5-1.2-0.9z"/>
    <path class="st8" d="m182.8 214.8 0.2 0.2c-0.2 0.4-0.6 0.6-1 0.9-0.1-0.1-0.3 0-0.5-0.2 0.4-0.5 0.9-0.7 1.3-0.9z"/>
    <path class="st26" d="m175.4 279c0.1-0.1 0.1-0.3 0.2-0.5 0.6 0.7 1 1.4 1 2.3-0.5-0.5-0.5-1.4-1.2-1.8z"/>
    <path class="st8" d="m175.7 210.1c0.3-0.3 0.6-0.7 0.9-1 0.3 0.7-0.2 1.1-0.7 1.5-0.2-0.1-0.2-0.3-0.2-0.5z"/>
    <path class="st8" d="m123.9 259.4c0.4-0.3 0.8-0.6 1.2-1 0.1 1-0.3 1.3-1.2 1z"/>
    <path class="st19" d="m151.9 229.2c0.1 0.1 0.3 0.1 0.5 0.2-0.5 0.5-1.1 1-1.6 1.4l-0.2-0.2c0.4-0.4 0.9-0.9 1.3-1.4z"/>
    <path class="st3" d="m206.8 304.3c-0.2-0.6-0.4-1.2-0.2-1.9 0.1-0.2 0.1-0.2 0.2 0 0.4 0.5 0.1 1.1 0.5 1.6-0.2 0.2-0.2 0.5-0.5 0.3z"/>
    <path class="st27" d="m164.1 210.8c-0.2 0.9-0.6 1.7-1.2 2.4-0.1-0.1-0.1-0.2 0-0.3 0.3-0.7 0.8-1.3 0.9-2.1 0.1-0.1 0.2-0.1 0.3 0z"/>
    <path class="st21" d="m206.8 304.3c0.1-0.1 0.3-0.2 0.4-0.2 0 0.7 0.2 1.3 0.5 1.9 0 0.2 0 0.3-0.2 0.2-0.3-0.6-0.6-1.2-0.7-1.9z"/>
    <path class="st19" d="m146.3 240.3c0.1 0.1 0.2 0.2 0.3 0.2-0.7 0.2-0.8 1.4-1.9 1.2 0.5-0.4 1.1-0.9 1.6-1.4z"/>
    <path class="st8" d="m134 246.2c-0.3 0.3-0.6 0.6-1 0.9-0.1-0.1-0.3 0-0.5-0.2 0.2-0.5 0.7-0.7 1.2-0.9 0.1 0 0.3 0 0.3 0.2z"/>
    <path class="st23" d="m227.5 291.9c0.2-0.6 0.4-1.2 0.5-1.8 0.2 0 0.3 0 0.2 0.2-0.2 0.6 0 1.4-0.7 1.6z"/>
    <path class="st8" d="m157.9 229.4c0.2 0.1 0.3 0.2 0.5 0.3-0.3 0.5-0.8 0.6-1.2 0.9-0.1-0.1-0.2-0.2-0.3-0.2l1-1z"/>
    <path class="st15" d="m155.4 226.6c-0.2-0.2-0.1-0.3 0-0.5 0.5-0.4 1-0.8 1.4-1.2-0.2 0.9-0.8 1.3-1.4 1.7z"/>
    <path class="st8" d="m189.3 295.5c0.4 0.1 0.7 0.3 1 0.7 0 0.1-0.1 0.2-0.3 0.2-0.3-0.2-1.3 0.1-0.7-0.9z"/>
    <path class="st8" d="m112.9 267.3c0.3-0.2 0.7-0.5 1-0.7 0.3 0.5-0.1 0.8-0.4 1-0.4 0.3-0.3-0.2-0.6-0.3z"/>
    <path class="st8" d="m137.2 248.5c0.2-0.2 0.5-0.4 0.7-0.7 0.1 0.1 0.4 0 0.5 0.2-0.3 0.4-0.6 0.8-1.2 0.9-0.1-0.1 0-0.3 0-0.4z"/>
    <path class="st28" d="m182.1 294.1c1 0 2-0.1 3 0-1 0.3-2 0.4-3 0z"/>
    <path class="st17" d="m225.4 296.7c-0.1-0.1-0.3-0.2-0.4-0.2 0.1-0.7 0.5-1.3 0.9-1.9 0 0.7-0.6 1.3-0.5 2.1z"/>
    <path class="st22" d="m137.5 242.5c0.1 0.1 0.3 0.1 0.5 0.2-0.5 0.4-0.9 0.8-1.4 1.2-0.2 0.1-0.3 0-0.3-0.2 0.5-0.4 0.9-0.8 1.2-1.2z"/>
    <path class="st8" d="m239.9 221.2c0.3 0.3 0.5 0.6 0.6 1-0.2 0.1-0.3 0.4-0.5 0.1-0.4-0.3-0.4-0.7-0.1-1.1z"/>
    <path class="st17" d="m217.7 313c-0.1 0.2-0.1 0.5-0.2 0.7-0.1-0.9-0.2-1.8 0-2.8 0.4 0 0.4 0.2 0.2 0.5v1.6z"/>
    <path class="st29" d="m184 234.8h-0.2c0.1-0.6 0.1-1.3 0.5-1.9 0.2 0.7-0.1 1.3-0.3 1.9z"/>
    <path class="st10" d="m208.2 309.2h-0.2c0.1-0.6 0.1-1.3 0.2-1.9 0.4 0.7 0.3 1.3 0 1.9z"/>
    <path class="st10" d="m206.6 293c0.7-0.3 1.4-0.6 2.1 0 0 0.2 0 0.3-0.2 0.2-0.5-0.4-1.1-0.1-1.6 0-0.3 0.1-0.4 0-0.3-0.2z"/>
    <path class="st26" d="m178.2 281.7v0.3c-0.5-0.4-1.6-0.1-1.6-1.2 0.4 0.5 1.1 0.5 1.6 0.9z"/>
    <path class="st22" d="m142.6 244.3c-0.1-0.1-0.3-0.1-0.5-0.2 0.5-0.4 0.9-0.8 1.4-1.2 0.2-0.1 0.3 0 0.3 0.2-0.5 0.3-0.9 0.7-1.2 1.2z"/>
    <path class="st30" d="m230.3 276c0.1-0.9-0.2-1.9 0.2-2.8v2.8h-0.2z"/>
    <path class="st12" d="m155.8 194.8c1-0.5 1.2 0.1 1.2 0.9h-0.3c-0.2-0.3-0.4-0.5-0.7-0.7 0-0.1-0.1-0.2-0.2-0.2z"/>
    <path class="st8" d="m174 274.1c0.1 0.1 0.2 0.1 0.2 0.2-0.8 0.1-1.6-0.3-2.4 0.2 0-0.2-0.1-0.3-0.2-0.5 0.8-0.1 1.6-0.1 2.4 0.1z"/>
    <path class="st25" d="m134 246.2c-0.1-0.1-0.2-0.2-0.3-0.2 0.6-0.3 0.9-1.1 1.7-1.1-0.3 0.5-0.9 0.9-1.4 1.3z"/>
    <path class="st22" d="m153.3 228.5-0.2-0.2c0.5-0.3 0.9-0.7 1.2-1.2 0.1 0.1 0.3 0.1 0.5 0.2-0.6 0.4-1.1 0.8-1.5 1.2z"/>
    <path class="st22" d="m246.5 229.7c0.3 0.3 0.5 0.6 0.8 0.9 0.1 0.2 0 0.3-0.2 0.3-0.3-0.2-0.5-0.4-0.7-0.7s-0.2-0.5 0.1-0.5z"/>
    <path class="st8" d="m246.5 229.7c-0.1 0.1-0.1 0.3-0.2 0.4-0.4-0.2-0.6-0.5-0.7-0.9 0-0.1 0.1-0.2 0.2-0.3 0.3 0.3 0.5 0.5 0.7 0.8z"/>
    <path class="st17" d="m157.5 218.7h0.2c0.2 0.9 0.2 1.7 0 2.6h-0.2v-2.6z"/>
    <path class="st3" d="m159.7 170.1c-0.3-0.2-0.6-0.6-1-0.2 0.1-1.1 0.6-0.6 1.1-0.3 0.2 0.1 0.3 0.2 0.2 0.4 0 0.2-0.2 0.2-0.3 0.1z"/>
    <path class="st3" d="m158.9 171.4c-0.1 0.2-0.3 0.1-0.5 0.1 0-0.5-0.4-1.2 0.3-1.6 0 0.5-0.1 1 0.2 1.5z"/>
    <path class="st8" d="m185.9 194.3c0.2 0.1 0.3 0.3 0.5 0.4-0.2 0.2-0.3 0.6-0.7 0.2-0.3-0.3-0.3-0.5 0.2-0.6z"/>
    <path class="st8" d="m197.2 308.8c-0.1 0.2-0.1 0.3-0.2 0.5-0.6-0.4-0.5-0.9-0.2-1.4 0.1 0.2 0.3 0.5 0.4 0.9z"/>
    <path class="st8" d="m149.6 237.8c-0.1-0.1-0.2-0.2-0.3-0.2l0.7-0.7c0.3 0.4 0.3 0.9-0.4 0.9z"/>
    <path class="st8" d="m183.5 285.8c0.3 0.9 0.3 1.9 0 2.8v-2.8z"/>
    <path class="st8" d="m248.5 232c0.2 0.2 0.4 0.5 0.6 0.7-0.1 0.1 0 0.4-0.2 0.5-0.4-0.2-0.6-0.5-0.7-0.9 0-0.2 0.1-0.3 0.3-0.3z"/>
    <path class="st8" d="m128.2 251.3c-0.2 0.2-0.5 0.4-0.7 0.6-0.1-0.1-0.4 0-0.5-0.2 0.2-0.4 0.5-0.6 0.9-0.7 0.1 0.1 0.2 0.1 0.3 0.3z"/>
    <path class="st31" d="m245.9 228.9c-0.1 0.1-0.2 0.2-0.2 0.3-0.3-0.2-0.5-0.4-0.7-0.7-0.2-0.2-0.2-0.4 0.2-0.5 0.2 0.3 0.4 0.6 0.7 0.9z"/>
    <path class="st8" d="m172.6 213.6c0.2-0.2 0.4-0.5 0.6-0.7 0.1 0 0.2 0.2 0.2 0.2 0 0.5-0.3 0.7-0.7 0.9-0.1 0 0-0.2-0.1-0.4z"/>
    <path class="st19" d="m137.2 248.5c0.2 0.1 0.1 0.3 0 0.5-0.3 0.2-0.5 0.4-0.7 0.7-0.3 0.2-0.5 0.2-0.5-0.2 0.4-0.4 0.8-0.7 1.2-1z"/>
    <path class="st15" d="m218.2 308.5c0.2-0.6 0.4-1.2 1-1.6v0.3c0.1 0.5-0.3 0.8-0.5 1.2-0.1 0.2-0.2 0.3-0.2 0.5-0.3-0.1-0.5-0.1-0.3-0.4z"/>
    <path class="st8" d="m245.1 228c-0.1 0.1-0.1 0.3-0.2 0.5-0.4-0.2-0.6-0.5-0.7-0.9 0-0.1 0.1-0.2 0.2-0.3l0.7 0.7z"/>
    <path class="st8" d="m129.8 249.9c-0.2 0.2-0.5 0.4-0.7 0.6-0.1-0.1-0.3 0-0.5-0.2 0.2-0.4 0.5-0.6 0.9-0.7 0.1 0.1 0.3 0.2 0.3 0.3z"/>
    <path class="st24" d="m173.5 213.1-0.2-0.2c0.4-0.5 0.8-1 1.2-1.4 0.1 0.7-0.7 1.1-1 1.6z"/>
    <path class="st29" d="m206.3 298.3h0.2v2.3s-0.1 0-0.1 0.1l-0.1-0.1c0-0.4 0-0.7-0.1-1.1 0-0.4-0.1-0.8 0.1-1.2z"/>
    <path class="st8" d="m93.8 272.2c0.3 0.3 0.6 0.5 0.7 1-0.8 0-1-0.4-0.7-1z"/>
    <path class="st8" d="m187.5 209.3v-2.4h0.2c-0.2 0.7 0.2 1.6-0.2 2.4z"/>
    <path class="st8" d="m190.5 199.4 0.5 0.5c-0.2 0.2-0.3 0.6-0.7 0.2-0.3-0.4 0-0.6 0.2-0.7z"/>
    <path class="st8" d="m207.5 306.2 0.2-0.2c0.7 0.2 0.4 0.7 0.2 1.1-0.2-0.2-0.3-0.6-0.4-0.9z"/>
    <path class="st8" d="m191.2 179.2c0 0.8 0.1 1.6-0.2 2.4 0-0.8-0.2-1.6 0.2-2.4z"/>
    <path class="st8" d="m178.9 218.5c-0.3 0.2-0.5 0.4-0.8 0.6-0.1-0.1-0.4 0-0.5-0.2 0.4-0.4 0.8-0.6 1.3-0.4z"/>
    <path class="st32" d="m174 274.1h-2.3c0.7-0.4 1.5-0.1 2.3-0.2v0.2z"/>
    <path class="st24" d="m158.4 196.4c0.4-0.4 0.8-0.8 1.1-1.2 0 0.7-0.2 1.3-1.1 1.2z"/>
    <path class="st25" d="m140.5 246.2c-0.1-0.1-0.3-0.1-0.5-0.2 0.4-0.3 0.8-0.7 1.1-1 0.1 0.1 0.2 0.2 0.3 0.2-0.4 0.3-0.7 0.6-0.9 1z"/>
    <path class="st8" d="m247.1 230.8c0.1-0.1 0.2-0.2 0.2-0.3 0.2 0.1 0.4 0.3 0.5 0.6 0.1 0.2 0.1 0.4 0 0.6-0.4-0.2-0.7-0.4-0.7-0.9z"/>
    <path class="st24" d="m132.6 246.9c0.1 0.1 0.3 0.1 0.5 0.2-0.4 0.3-0.7 0.7-1.1 1-0.1-0.1-0.2-0.2-0.3-0.2 0.3-0.3 0.6-0.6 0.9-1z"/>
    <path class="st30" d="m214.9 323.7c-0.2 0.1-0.3 0.1-0.5 0.2h-1.2c-0.3 0.1-0.6 0.3-0.7-0.2 0.9-0.1 1.7-0.2 2.4 0z"/>
    <path class="st8" d="m225.4 299.4h0.2c0.2 0.7 0.2 1.4 0 2.1-0.1 0.1-0.1 0.2-0.2 0.3v-2.4z"/>
    <path class="st19" d="m134.4 250.9c0.4-0.3 0.8-0.6 1.1-1 0.6 0.1 0.1 0.3 0 0.5-0.3 0.2-0.5 0.4-0.7 0.7-0.2 0.1-0.3 0.1-0.4-0.2z"/>
    <path class="st22" d="m138.4 248c-0.1-0.1-0.3-0.1-0.5-0.2 0.4-0.3 0.8-0.6 1.1-1 0.1 0.1 0.2 0.2 0.3 0.2-0.4 0.3-0.7 0.6-0.9 1z"/>
    <path class="st19" d="m129.8 249.9-0.2-0.2c0.4-0.2 0.7-0.5 0.9-0.9 0.1 0.1 0.3 0.1 0.5 0.2-0.4 0.2-0.8 0.6-1.2 0.9z"/>
    <path class="st8" d="m181.9 248.3v2.3c-0.3-0.8-0.3-1.6 0-2.3z"/>
    <path class="st3" d="m219.2 347.9c-0.7 0.2-1.5 0.2-2.2 0.2 0.7-0.4 1.5-0.2 2.2-0.2z"/>
    <path class="st8" d="m135.6 250.4c0.1-0.2 0.1-0.3 0-0.5l0.5-0.5c0.2 0.1 0.3 0.2 0.5 0.2-0.3 0.4-0.6 0.7-1 0.8z"/>
    <path class="st8" d="m126.5 252.7c-0.2 0.1-0.3 0.3-0.5 0.4-0.1-0.1-0.4 0-0.5-0.2 0.2-0.4 0.5-0.6 0.9-0.7 0.3 0.2 0.1 0.3 0.1 0.5z"/>
    <path class="st33" d="m225.7 301.5v-2.1h0.2c-0.1 0.7 0.2 1.5-0.2 2.1z"/>
    <path class="st3" d="m70 218.8c-0.2-0.7-0.2-1.5-0.2-2.2 0.4 0.7 0.1 1.5 0.2 2.2z"/>
    <path class="st27" d="m157 195.7c0.4 0.2 0.7 0.5 1 0.9-0.7 0-1-0.3-1-0.9z"/>
    <path class="st34" d="m178.7 261.3c-0.1 0.6-0.4 1.1-1 1.4 0.1-0.6 0.4-1.1 1-1.4z"/>
    <path class="st25" d="m241.5 241.7c0.1-0.1 0.3-0.2 0.4-0.2-0.1 0.5 0.4 0.9 0 1.4-0.1-0.4-0.3-0.8-0.4-1.2z"/>
    <path class="st8" d="m219.3 306.4 0.7-0.7c0.2 0.1 0.3 0.2 0.5 0.3-0.3 0.3-0.6 0.7-1.2 0.4z"/>
    <path class="st3" d="m254.7 239.7c0.2-0.1 0.3-0.2 0.5-0.2 0.4 0.3 0.8 0.2 1.1 0-0.4 0.8-1 0.2-1.6 0.2z"/>
    <path class="st19" d="m174 266c0.1 0.1 0.3 0.1 0.5 0.2-0.4 0.3-0.8 0.7-1.1 1-0.1-0.6 0.4-0.8 0.6-1.2z"/>
    <path class="st3" d="m103.4 267.8c-0.4 0.4-0.9 0.5-1.5 0.7 0.3-0.7 0.9-0.6 1.5-0.7z"/>
    <path class="st13" d="m228.2 290.4-0.2-0.2c0.1-0.4 0.2-0.8 0.2-1.2 0.1 0.2 0.3 0.3 0.4 0.5-0.1 0.3-0.2 0.6-0.4 0.9z"/>
    <path class="st32" d="m244.5 227.3c-0.1 0.1-0.2 0.2-0.2 0.3l-0.5-0.5c0.1-0.1 0.1-0.3 0.2-0.5 0.2 0.3 0.3 0.5 0.5 0.7z"/>
    <path class="st17" d="m133.5 252.2c-0.1-0.1-0.3-0.1-0.5-0.2 0.3-0.2 0.6-0.5 0.9-0.7 0.2-0.1 0.3 0 0.2 0.2-0.2 0.2-0.4 0.4-0.6 0.7z"/>
    <path class="st28" d="m230.3 272.9h-0.2c-0.1-0.4-0.1-0.8-0.2-1.2 0.1-0.1 0.3-0.1 0.4-0.2v1.4z"/>
    <path class="st25" d="m175.7 210.1c0.1 0.1 0.1 0.3 0.2 0.5-0.4 0.1-0.5 0.7-0.9 0.4 0.2-0.3 0.4-0.6 0.7-0.9z"/>
    <path class="st3" d="m165.7 205.9c0 0.6 0 1.2-0.5 1.7-0.1-0.6 0-1.2 0.5-1.7z"/>
    <path class="st8" d="m172 267.8c0.2-0.6 0.4-0.7 0.9-1-0.1 0.6-0.4 0.8-0.9 1z"/>
    <path class="st35" d="m177.7 224.3v-0.3c0.6 0 0.9 0.4 1 0.9-0.4 0-0.7-0.3-1-0.6z"/>
    <path class="st32" d="m251 235c0.3 0.3 0.5 0.5 0.5 0.9-0.3 0-0.6-0.2-0.7-0.5-0.2-0.2-0.2-0.4 0.2-0.4z"/>
    <path class="st22" d="m167.5 222.2c0.3-0.4 0.5-0.7 1-0.9-0.3 0.5-0.3 1-1 0.9z"/>
    <path class="st36" d="m191.9 200.5c0.7 0.4 0.8 0.9 0.2 1.5v-0.3c-0.2-0.3-0.4-0.6-0.2-0.9v-0.3z"/>
    <path class="st3" d="m206.6 293c0.1 0.1 0.1 0.2 0.2 0.2l-0.9 0.9c-0.1-0.2-0.1-0.3 0-0.5 0.1-0.3 0.3-0.6 0.7-0.6z"/>
    <path class="st8" d="m191.9 200.8c0.2 0.3 0.3 0.6 0.2 0.9-0.2-0.3-0.9-0.4-0.2-0.9z"/>
    <path class="st24" d="m176.8 220.1c-0.2 0.4-0.6 0.7-1 0.9-0.2 0.1-0.3 0-0.3-0.2 0.5-0.2 0.8-0.7 1.3-0.7z"/>
    <path class="st37" d="m206.8 302.5h-0.2v-0.4c-0.1-0.5-0.2-1 0-1.5 0.4 0.6 0.1 1.3 0.2 1.9z"/>
    <path class="st30" d="m190 296.4c0.1-0.1 0.2-0.2 0.3-0.2 0.2 0.2 0.4 0.4 0.7 0.5-0.1 0.1-0.3 0.1-0.5 0.2-0.1-0.2-0.3-0.3-0.5-0.5z"/>
    <path class="st30" d="m250 233.8c0.2 0.2 0.3 0.4 0.5 0.7 0.1 0.2 0 0.3-0.2 0.3l-0.5-0.5c-0.1-0.3-0.1-0.4 0.2-0.5z"/>
    <path class="st8" d="m153 234.5c0.1-0.2 0.1-0.3 0-0.5l0.5-0.5c0.3 0.6 0.2 0.9-0.5 1z"/>
    <path class="st29" d="m169.6 219.6c0.1-0.4 0.1-0.8 0.2-1.1 0.2 0.4 0.7 0.9-0.2 1.1z"/>
    <path class="st3" d="m218.2 308.5 0.3 0.3c-0.2 0.3-0.2 0.8-0.7 0.9-0.1-0.5 0.1-0.9 0.4-1.2z"/>
    <path class="st8" d="m156.1 189.6c0.2 0 0.5 0 0.5 0.3 0 0.2-0.2 0.3-0.3 0.4-0.2-0.2-0.2-0.4-0.2-0.7z"/>
    <path class="st32" d="m248.9 233.1c0.1-0.1 0.1-0.3 0.2-0.5 0.2 0.2 0.4 0.4 0.5 0.7 0.1 0.2 0 0.3-0.2 0.3-0.2-0.1-0.3-0.3-0.5-0.5z"/>
    <path class="st8" d="m155.7 189.1-0.3 0.3c-0.4 0-0.6-0.3-0.7-0.7 0.1-0.1 0.3-0.1 0.5 0 0.1 0.1 0.3 0.3 0.5 0.4z"/>
    <path class="st22" d="m129.8 254.8c0.2 0.2 0.1 0.3 0 0.5l-0.5 0.5c-0.3 0.2-0.4 0.2-0.5-0.2 0.4-0.3 0.7-0.6 1-0.8z"/>
    <path class="st22" d="m181.7 215.7c0.1 0.1 0.3 0.1 0.5 0.2-0.3 0.3-0.6 0.5-0.9 0.8-0.2 0.1-0.3 0-0.2-0.2 0.2-0.3 0.4-0.5 0.6-0.8z"/>
    <path class="st3" d="m217.7 311.3c-0.1-0.1-0.1-0.3-0.2-0.5 0-0.3 0-0.7 0.2-1 0.1 0.6 0.5 1 0 1.5z"/>
    <path class="st19" d="m180.7 217.1c-0.3 0.3-0.6 0.7-1.1 0.8 0.2-0.3 0.5-0.6 0.7-1 0.2-0.2 0.4-0.2 0.4 0.2z"/>
    <path class="st22" d="m128.6 250.4c0.1 0.1 0.3 0.1 0.5 0.2-0.3 0.2-0.6 0.5-0.9 0.7-0.1-0.1-0.2-0.2-0.3-0.2 0.3-0.2 0.6-0.4 0.7-0.7z"/>
    <path class="st22" d="m177.7 219c0.1 0.1 0.3 0.1 0.5 0.2-0.3 0.3-0.6 0.7-1.1 0.8 0.2-0.4 0.4-0.7 0.6-1z"/>
    <path class="st17" d="m126.5 252.7c-0.2-0.2-0.1-0.3 0-0.5l0.5-0.5c0.1 0.1 0.3 0.1 0.5 0.2-0.4 0.3-0.7 0.5-1 0.8z"/>
    <path class="st32" d="m247.7 231.7v-0.6c0.2 0.3 0.5 0.5 0.7 0.8-0.1 0.1-0.2 0.2-0.2 0.3l-0.5-0.5z"/>
    <path class="st3" d="m156 186.8c-0.1-0.2-0.1-0.3-0.2-0.5 0.3-0.2 0.5-0.5 0.8-0.7 0 0.5-0.3 0.9-0.6 1.2z"/>
    <path class="st8" d="m134.2 251.5-0.2-0.2c0.2-0.1 0.3-0.3 0.5-0.4 0.1 0.1 0.3 0.1 0.5 0.2-0.2 0.2-0.5 0.4-0.8 0.4z"/>
    <path class="st8" d="m180.7 217.1c-0.1-0.1-0.3-0.1-0.5-0.2 0.1-0.3 0.4-0.4 0.7-0.5l0.2 0.2c0 0.2-0.2 0.3-0.4 0.5z"/>
    <path class="st3" d="m155.2 188.7c-0.1 0.2-0.3 0.1-0.5 0 0.1-0.3 0.2-0.6 0.2-0.9l0.3 0.3v0.6z"/>
    <path class="st32" d="m253.6 232.7c0.2-0.2 0.3-0.1 0.5 0 0.1 0.3 0.3 0.6 0.2 1-0.3-0.4-0.5-0.7-0.7-1z"/>
    <path class="st8" d="m128.9 255.5c0.1 0.1 0.3 0.1 0.5 0.2-0.1 0.3-0.4 0.4-0.7 0.5-0.1-0.1-0.2-0.1-0.3-0.2 0.1-0.2 0.3-0.3 0.5-0.5z"/>
    <path class="st8" d="m249.4 233.6c0.1-0.1 0.2-0.2 0.2-0.3 0.1 0.2 0.3 0.3 0.4 0.5-0.1 0.1-0.1 0.3-0.2 0.5-0.2-0.1-0.4-0.4-0.4-0.7z"/>
    <path class="st8" d="m127.2 256.9c0.2-0.1 0.3-0.3 0.5-0.4 0.1 0.1 0.4 0 0.5 0.2-0.1 0.3-0.4 0.4-0.7 0.5-0.1-0.2-0.3-0.2-0.3-0.3z"/>
    <path class="st8" d="m126 257.8c0.2-0.1 0.3-0.3 0.5-0.4 0.1 0.1 0.4 0 0.5 0.2-0.2 0.4-0.6 0.4-1 0.2z"/>
    <path class="st38" d="m188.9 180.3c0.1-0.4 0.1-0.8 0.2-1.1 0.3 0.4 0.4 0.8-0.2 1.1z"/>
    <path class="st32" d="m249.6 227.3c0.3-0.2 0.5 0.2 0.7 0.2v0.7c-0.2-0.2-0.5-0.6-0.7-0.9z"/>
    <path class="st8" d="m218.7 308.3c0.2-0.4 0.3-0.8 0.5-1.2 0.2 0.6-0.2 0.9-0.5 1.2z"/>
    <path class="st3" d="m114.2 261.8c-0.2 0.5-0.7 0.6-1.2 0.7 0.3-0.5 0.7-0.7 1.2-0.7z"/>
    <path class="st3" d="m167.2 175.4c0.1 0.2 0.2 0.5 0.2 0.7-0.4-0.2-0.7-0.5-0.9-0.9 0.3 0.1 0.5 0.2 0.7 0.2z"/>
    <path class="st3" d="m164.1 210.8h-0.3c0.2-0.4 0.3-0.9 0.8-1.1-0.1 0.4-0.3 0.8-0.5 1.1z"/>
    <path class="st8" d="m250.3 234.8c0.1-0.1 0.2-0.2 0.2-0.3 0.1 0.2 0.3 0.3 0.4 0.5-0.1 0.1-0.1 0.3-0.2 0.5-0.2-0.2-0.4-0.4-0.4-0.7z"/>
    <path class="st3" d="m109.6 264.6c-0.3 0.4-0.7 0.6-1.2 0.7 0.2-0.5 0.7-0.7 1.2-0.7z"/>
    <path class="st30" d="m212.1 324.1c-0.5 0-1.1 0.1-1.6-0.2 0.5-0.2 1-0.1 1.6-0.1 0.1 0.1 0.1 0.2 0 0.3z"/>
    <path class="st8" d="m189.4 205c-0.2 0.1-0.3 0.3-0.5 0.4-0.1-0.1-0.4 0-0.5-0.2 0.2-0.4 0.6-0.4 1-0.2z"/>
    <path class="st32" d="m188.4 205.2c0.1 0.1 0.3 0.1 0.5 0.2-0.3 0.3-0.6 0.5-0.9 0.8-0.1-0.4 0.2-0.7 0.4-1z"/>
    <path class="st8" d="m177.7 207.6c0.1-0.2 0.3-0.4 0.4-0.5 0.2 0.4 0.3 0.7-0.2 1-0.1-0.2-0.1-0.4-0.2-0.5z"/>
    <path class="st33" d="m205.8 293.6v0.5 1.2h-0.2c-0.1-0.6-0.2-1.2 0.2-1.7z"/>
    <path class="st8" d="m172.2 272-0.3 0.3c-0.3 0-0.5-0.2-0.7-0.5 0.1-0.1 0.3-0.1 0.5-0.2 0.1 0.1 0.3 0.2 0.5 0.4z"/>
    <path class="st8" d="m182.4 282.5c0.3 0 0.4 0.2 0.4 0.5-0.1 0.1-0.2 0.4-0.4 0.2-0.3-0.2-0.1-0.5 0-0.7z"/>
    <path class="st3" d="m165.2 207.6c0 0.5 0 1.1-0.5 1.4 0-0.6 0.1-1.1 0.5-1.4z"/>
    <path class="st8" d="m94.5 271.3c-0.2 0.2-0.5 0.3-0.7 0.5-0.4-1 0.4-0.4 0.7-0.5z"/>
    <path class="st8" d="m167.5 265.9c-0.2 0.1-0.5 0.2-0.7 0.3-0.1-0.2-0.2-0.4 0-0.5 0.3-0.2 0.5 0 0.7 0.2z"/>
    <path class="st32" d="m127 257.6c-0.1-0.1-0.3-0.1-0.5-0.2 0.2-0.2 0.4-0.3 0.7-0.5 0.1 0.1 0.2 0.2 0.3 0.2-0.2 0.2-0.4 0.3-0.5 0.5z"/>
    <path class="st32" d="m128.1 256.6c-0.1-0.1-0.3-0.1-0.5-0.2 0.2-0.2 0.4-0.3 0.7-0.5 0.1 0.1 0.2 0.2 0.3 0.2-0.1 0.2-0.3 0.4-0.5 0.5z"/>
    <path class="st24" d="m238.4 253.4c0.1 0.1 0.2 0.2 0.3 0.2-0.3 0.1-0.5 0.6-0.9 0.2 0.2-0.1 0.4-0.3 0.6-0.4z"/>
    <path class="st24" d="m125.6 252.9c0.1 0.1 0.3 0.1 0.5 0.2-0.2 0.2-0.4 0.3-0.7 0.5-0.1-0.1-0.2-0.2-0.3-0.2l0.5-0.5z"/>
    <path class="st8" d="m136.3 243.6c0.1 0.1 0.2 0.2 0.3 0.2-0.1 0.2-0.3 0.4-0.5 0.4-0.2-0.2-0.2-0.5 0.2-0.6z"/>
    <path class="st8" d="m143.7 243.2c-0.1-0.1-0.2-0.2-0.3-0.2l0.5-0.5c0.2 0.2 0.3 0.5-0.2 0.7z"/>
    <path class="st8" d="m141.6 238.7c0.1 0.1 0.2 0.2 0.3 0.2-0.1 0.2-0.3 0.4-0.5 0.4-0.1-0.2-0.2-0.5 0.2-0.6z"/>
    <path class="st3" d="m222 347.6c-0.5 0.2-1 0.2-1.5 0.2 0.5-0.3 1-0.1 1.5-0.2z"/>
    <path class="st8" d="m147.7 233.1c0.1 0.1 0.2 0.2 0.3 0.2-0.1 0.2-0.3 0.4-0.5 0.4-0.2-0.2-0.2-0.5 0.2-0.6z"/>
    <path class="st3" d="m197.7 347.8c-0.5 0-1 0.1-1.5-0.2 0.5 0.1 1-0.1 1.5 0.2z"/>
    <path class="st36" d="m179.8 228.3v1.4c-0.3-0.5-0.3-1 0-1.4z"/>
    <path class="st28" d="m161.2 227.8c0.5-0.1 0.9-0.1 1.4 0-0.5 0.3-0.9 0.3-1.4 0z"/>
    <path class="st3" d="m212.1 324.1v-0.2c0-0.1 0.1-0.2 0.2-0.2h0.2c0.2 0.2 0.4 0.2 0.7 0.2-0.2 0.3-0.7 0.2-1.1 0.2z"/>
    <path class="st8" d="m175.6 220.8c0.1 0.1 0.2 0.2 0.3 0.2-0.1 0.2-0.3 0.4-0.5 0.4-0.5-0.4 0-0.4 0.2-0.6z"/>
    <path class="st3" d="m70.2 221.6c-0.2-0.5-0.2-1-0.2-1.5 0.3 0.5 0.2 1 0.2 1.5z"/>
    <path class="st28" d="m191.5 176.4v0.4c-0.3-0.5-0.3-0.9 0-1.4 0.1 0.4 0.1 0.7 0 1z"/>
    <path class="st32" d="m172.6 213.6c0.1 0.1 0.1 0.3 0.2 0.5-0.2 0.1-0.4 0.5-0.7 0.2 0.2-0.3 0.4-0.5 0.5-0.7z"/>
    <path class="st3" d="m167.7 176.4c0.4 0.1 0.8 0.1 0.7 0.7-0.3-0.2-0.5-0.4-0.7-0.7z"/>
    <path class="st32" d="m177.7 207.6c0.1 0.1 0.1 0.3 0.2 0.5-0.2 0.1-0.4 0.5-0.7 0.2 0.2-0.3 0.4-0.5 0.5-0.7z"/>
    <path class="st8" d="m220.5 306c0.2-0.3 0.4-0.5 0.8-0.5-0.1 0.4-0.5 0.4-0.8 0.5z"/>
    <path class="st3" d="m70 197.3c0-0.5-0.1-1 0.2-1.5 0 0.5 0.1 1-0.2 1.5z"/>
    <path class="st3" d="m149.8 195.5c-0.2 0.4-0.5 0.7-1 0.7 0.3-0.4 0.6-0.7 1-0.7z"/>
    <path class="st32" d="m166.8 179.9c0.1 0.1 0.3 0.1 0.5 0.2-0.2 0.3-0.5 0.5-0.9 0.5 0.1-0.2 0.2-0.5 0.4-0.7z"/>
    <path class="st8" d="m156.5 183.6v1.4c-0.1-0.1-0.1-0.2-0.2-0.3-0.1-0.4-0.2-0.7 0-1.1h0.2z"/>
    <path class="st3" d="m70.2 194.8c0-0.4 0-0.9 0.2-1.3 0 0.4 0.1 0.8-0.2 1.3z"/>
    <path class="st3" d="m70.5 192.7c0-0.4 0-0.8 0.2-1.2 0 0.3 0.1 0.8-0.2 1.2z"/>
    <path class="st3" d="m70.7 190.8c0-0.4 0-0.8 0.2-1.2 0 0.4 0.1 0.8-0.2 1.2z"/>
    <path class="st37" d="m156.3 183.6v1.1c-0.3-0.4-0.3-0.8 0-1.1z"/>
    <path class="st8" d="m156.1 195c0.4 0 0.6 0.3 0.7 0.7-0.3-0.2-0.6-0.4-0.7-0.7z"/>
    <path class="st3" d="m162.8 212.9v0.3c0 0.4-0.1 0.6-0.5 0.7 0.1-0.4 0.2-0.7 0.5-1z"/>
    <path class="st8" d="m162.3 214.1c0 0.2-0.2 0.4-0.5 0.4-0.1-0.5 0.1-0.6 0.5-0.4z"/>
    <path class="st8" d="m191.5 176.4v-1c0.1-0.1 0.1-0.2 0.2-0.2 0 0.4 0 0.8-0.2 1.2z"/>
    <path class="st8" d="m238.5 220.8c0.1-0.2 0.3-0.5 0.5-0.7 0 0.4 0 0.7-0.5 0.7z"/>
    <path class="st3" d="m70.4 224c-0.2-0.4-0.2-0.8-0.2-1.3 0.3 0.4 0.2 0.8 0.2 1.3z"/>
    <path class="st3" d="m70.7 226c-0.2-0.4-0.2-0.8-0.2-1.2 0.3 0.3 0.2 0.8 0.2 1.2z"/>
    <path class="st3" d="m70.9 227.8c-0.2-0.4-0.2-0.8-0.2-1.2 0.3 0.4 0.2 0.8 0.2 1.2z"/>
    <path class="st8" d="m208.4 293.2 0.2-0.2c0.3 0 0.4 0.2 0.4 0.5-0.2 0.1-0.4 0-0.6-0.3z"/>
    <path class="st3" d="m191.2 347.1c-0.4 0-0.8 0-1.2-0.2 0.4 0 0.8-0.1 1.2 0.2z"/>
    <path class="st3" d="m228.2 346.9c-0.4 0.2-0.8 0.2-1.2 0.2 0.4-0.3 0.8-0.2 1.2-0.2z"/>
    <path class="st3" d="m193.1 347.4c-0.4 0-0.8 0-1.2-0.2 0.3 0 0.8-0.1 1.2 0.2z"/>
    <path class="st3" d="m226.4 347.2c-0.4 0.2-0.8 0.2-1.2 0.2 0.4-0.3 0.8-0.2 1.2-0.2z"/>
    <path class="st3" d="m195.2 347.6c-0.4 0-0.9 0-1.3-0.2 0.4 0 0.9-0.1 1.3 0.2z"/>
    <path class="st3" d="m224.4 347.4c-0.4 0.2-0.9 0.2-1.3 0.2 0.4-0.3 0.8-0.2 1.3-0.2z"/>
    <path class="st8" d="m154.9 232.7h0.2c-0.1 0.2-0.1 0.6-0.4 0.5-0.2-0.1 0.2-0.3 0.2-0.5z"/>
    <path class="st8" d="m257.1 237.3c-0.3-0.2-0.4-0.6-0.5-0.9 0.4 0.2 0.5 0.5 0.5 0.9z"/>
    <path class="st8" d="m253.6 239c-0.3-0.1-0.5-0.1-0.6-0.4 0.4-0.1 0.4 0.2 0.6 0.4z"/>
    <path class="st29" d="m183.3 242.7h0.2c0.2 0.2 0.1 0.5 0 0.8 0 0.1 0 0.3-0.1 0.4-0.2-0.4-0.1-0.8-0.1-1.2z"/>
    <path class="st8" d="m233.1 262.7c0-0.4 0.2-0.7 0.5-0.9 0 0.4-0.1 0.7-0.5 0.9z"/>
    <path class="st38" d="m179.5 202.6h-0.2-0.6c0.2-0.4 0.5-0.1 0.8 0z"/>
    <path class="st8" d="m200.1 131c0.6 0 1-0.5 1.6-0.6 0.9-0.4 1.5-1 1.9-1.9 0.6-1 1.2-1.9 1.8-2.9 0.2-0.1 0.3-0.2 0.5-0.3 0.2 0.4 0.4 0.8 0.4 1.3-0.2 0.5 0 1-0.1 1.4 0 0.4-0.2 0.3-0.1 0.2 0.3-0.3-0.1-0.9 0.3-1.2 0.3 0.6 0 1.4 0.2 2 0.5 0.1 0.6-0.4 0.9-0.6 0.6-0.2 0.6 0.3 0.7 0.6 0.1 0.5 0 1.1-0.5 1.4s-1.1 0.3-1.6 0.5c-1 0.1-1.9-0.1-2.9 0s-1.8 0.9-2.8 1c0.1-0.3-0.3-0.6-0.3-0.9z"/>
    <path class="st8" d="m198 142.2c-2.3 2-4.9 3.5-7.7 4.6-0.6-0.1-0.6-0.1-1.5 0.2v-0.2c2.9-1.3 5.6-3 8.2-4.8 0.3-0.2 0.6-0.3 1-0.3 0 0 0 0.1 0.1 0.1 0 0.1-0.1 0.3-0.1 0.4z"/>
    <path class="st8" d="m187.8 147.8c-1.7 0.7-2.8 2-3.5 3.7-0.3 0.6-0.6 1.1-1 1.7-0.5-0.4-0.4 0.5-0.9 0.4 0.2-1.2 0.7-2.3 1.4-3.2 0.7-0.8 1.1-1.8 2.1-2.5 0.8-0.6 1.2-0.7 1.9-0.1z"/>
    <path class="st8" d="m234.5 143.6c-1.2-0.9-2.3-1.7-3.5-2.6-0.7-0.6-1.4-1.2-2.3-1.4-0.2-0.1-0.5-0.3-0.7-0.4 0.2-0.7 0.7-0.6 1.2-0.3 2 1.3 3.9 2.7 5.8 4 0.3 0.2 0.4 0.5 0.4 0.9-0.4 0.2-0.6-0.4-0.9-0.2z"/>
    <path class="st8" d="m212.4 102.2c-1.6 1.3-3.3 2.6-4.9 3.9 0-0.2-1.1 0.1-0.3-0.6 1.1-1 2.4-1.8 3.5-3 0.4-0.5 1.1-0.7 1.7-1 0.3 0.2-0.3 0.4 0 0.7z"/>
    <path class="st8" d="m194.5 133.8c1.3 1 2.8 1.7 3.7 3.1-0.3 0.8 0.8 0.9 0.8 1.7-1.8-1.2-3.1-2.8-4.5-4.3-0.1-0.1 0-0.4 0-0.5z"/>
    <path class="st8" d="m198.1 115.1c1.1-0.8 2-1.8 3-2.7 0.3-0.3 0.6-0.6 1-0.7 0.2 0.4 0.3 0.7-0.1 1-1 0.9-1.9 2-3 2.8-0.6 0.5-0.7 0.1-0.9-0.4z"/>
    <path class="st8" d="m241 148.5c-0.6-0.6-1.2-1.2-2-1.5-0.4-0.2-0.7-0.4-0.8-0.9 0.3-0.4-0.4-0.8 0-1.2 0.7 0.9 1.5 1.6 2.6 2.1 0.7 0.3 1 1 0.9 1.8-0.4 0.3-0.4-0.3-0.7-0.3z"/>
    <path class="st8" d="m180.5 156.6c-1.1 1-1.4 2.5-2.1 3.7-0.6-0.1-0.7-0.3-0.4-0.9 0.4-0.8 0.8-1.7 1.1-2.5 0.3-0.6 0.7-0.9 1.3-0.8 0.3 0.2 0.1 0.3 0.1 0.5z"/>
    <path class="st8" d="m200.9 123.5c-0.6 1-1.6 1.7-2.5 2.6-0.4-0.5-0.4-1.2 0.2-1.4 0.8-0.3 1.1-0.8 1.4-1.5 0.3-0.5 0.6-1.1 1.4-1.1 0.2 0.6-0.5 0.9-0.5 1.4z"/>
    <path class="st8" d="m248.6 170.6c-0.1-1.3-1-2-1.9-2.8 0.1-0.6-0.9-0.9-0.4-1.6 1.2 0.6 1.8 1.7 2.6 2.7 0.3 0.4 0 0.7-0.3 1 0.2 0.2 0.3 0.5 0 0.7z"/>
    <path class="st8" d="m223.5 112.2c-0.7-0.9-1.4-1.7-2.1-2.6 0-0.2-0.4-0.4-0.2-0.7 0.8 0 1.4 0.2 1.6 1.1 0.1 0.5 0.6 0.7 0.9 1 0.4 0.4 0.7 0.9 0.8 1.5-0.5 0.3-0.5-0.7-1-0.3z"/>
    <path class="st8" d="m159.7 170.1c0.2-0.1 0.1-0.3 0.1-0.5 1 0.1 1.8 0.7 2.6 1.2 0.4 0.2 0.7 0.6 0.4 1.1-1.1-0.4-2.2-1-3.1-1.8z"/>
    <path class="st8" d="m227 138.7c-1.9-0.5-2.2-1.4-1-3 0.2 0 0.6 0.2 0.5 0.3-0.7 1 0.5 1.7 0.5 2.7z"/>
    <path class="st8" d="m176.7 163.3c-0.5 0.8-1.2 1.3-2.1 1.6-0.1-0.2-0.6 0-0.6-0.4 0-0.3 0.2-0.5 0.5-0.6 0.5-0.2 0.9-0.6 1.3-1 0.5-0.4 0.8-0.3 0.9 0.4z"/>
    <path class="st9" d="m246.3 166.1c-0.1 0.6 0.9 1 0.4 1.6-1.2-1.5-1.4-3.3-1.8-5.1-0.1-0.4-0.1-0.8-0.2-1.2 0-0.1 0.1-0.2 0.2-0.2 0.6 1.2 0.6 2.5 1 3.7 0.2 0.5 0.3 0.8 0.4 1.2z"/>
    <path class="st3" d="m223.3 130.1c0.2-2.1 0.8-4.2 1.2-6.3 0.2-0.1 0.3 0.1 0.4 0.2-0.4 1.8-0.8 3.7-1.1 5.5 0 0.3 0 0.5-0.2 0.8-0.2 0-0.2-0.1-0.3-0.2z"/>
    <path class="st8" d="m199.8 108c-0.5 0.6-1.1 1.3-1.6 1.9-0.1-0.3-0.6 0.3-0.6-0.2 0-0.7 1.7-2.3 2.4-2.4 0.2 0.3-0.1 0.4-0.2 0.7z"/>
    <path class="st8" d="m201.9 119.8-0.8 0.8c-0.5 0.6 0.2 0.3 0.4 0.4-0.7 0.4-1.1 0.1-1-0.6 0.1-0.9 1.1-1.3 1.6-1.9 0 0 0.1 0.2 0.1 0.4 0.2 0.4-0.5 0.5-0.3 0.9z"/>
    <path class="st8" d="m171 171.7c0.5 0.5 1.1 1 1.6 1.4-0.2 0.5-0.5 0.5-0.9 0.2-0.3-0.2-0.7-0.4-0.9-0.6-0.5-0.4-0.5-0.8 0.2-1z"/>
    <path class="st12" d="m225 117.3v-0.2c0.1-0.1 0-0.4 0.2-0.5 0.5 1.4 0.3 2.8 0.1 4.2-0.1 0.7 0.1 1.5-0.4 2.1-0.1 0-0.2-0.1-0.2-0.2v-0.3c0.2-0.4 0-0.9 0.2-1.3v-1.1c0.2-0.9 0.2-1.8 0.1-2.7z"/>
    <path class="st21" d="m243.6 157.5c-0.4-1.5-1.2-2.9-1.4-4.4 0.1-0.1 0.1-0.1 0.2 0 0.5 1.4 1.1 2.7 1.4 4.2 0.1 0.2 0 0.3-0.2 0.2z"/>
    <path class="st8" d="m200.2 125.9c0.3-0.2 0.6-0.3 1-0.5 0.2 0 0.4-0.1 0.7-0.1 0.2-0.1 0.6-0.2 0.6 0.1 0 0.2 0.3 0.7-0.3 0.7-0.2 0.1-0.5 0.1-0.7 0.2-0.6 0.3-1 0.2-1.3-0.4z"/>
    <path class="st3" d="m243.6 157.5 0.2-0.2c0.7 1.2 1 2.6 1.2 3.9-0.1 0.1-0.1 0.2-0.2 0.2-0.4-1.2-0.8-2.6-1.2-3.9z"/>
    <path class="st8" d="m199.6 140.8c-0.2 0.4-0.5 0.7-0.9 0.9-0.2-0.1-0.4 0.2-0.7 0 0.1-1 0.8-1.5 1.6-1.9 0.3 0.3-0.2 0.7 0 1z"/>
    <path class="st16" d="m226.6 134.8c-0.6-1-1.7-1.2-2.4-2-0.3-0.4-0.7-0.6-0.8-1.1 0-0.1 0.1-0.2 0.2-0.2l0.5 0.5c0.7 0.5 1.4 1 2.1 1.6 0.1 0.3 0.4 0.7 0.4 1.2z"/>
    <path class="st8" d="m201.2 129.4c-0.1 0.4-0.4 0.7-0.6 1-0.3-0.3-0.5 0.3-0.8 0.2 0-0.5 0.4-0.9 0.6-1.3 0.3-0.8 0.6-0.7 0.8 0.1z"/>
    <path class="st13" d="m202.1 126.1c0.2-0.4 0.6-0.9-0.3-0.6-0.2 0.1-0.4 0.1-0.6-0.1 0.5-0.3 1-0.5 1.6-0.9 0.1 1-0.1 1.8-0.6 2.6 0-0.3-0.1-0.7-0.1-1z"/>
    <path class="st8" d="m203.5 111.4c0.6-0.2 1.1-0.4 1.7-0.6 0.6 0.3 0.1 0.6 0 1-0.5 0.1-0.6 0.6-1 0.9-0.2-0.3 0.1-0.6 0-1-0.2-0.3-0.5 0-0.7-0.3z"/>
    <path class="st39" d="m199.8 108c-0.2-0.3 0.2-0.5 0.2-0.7 0.6-0.6 1.1-1.3 2.1-1.2 0.2-0.1 0.5-0.1 0.7-0.2 0.1 0.2 0.4 0 0.5 0.3-1.3 0.2-2.4 0.9-3.5 1.8z"/>
    <path class="st14" d="m200.3 131.9c0.9-0.4 1.7-0.8 2.6-1.2 0.1 0.1 0.3 0.1 0.3 0.3-1.1 0.5-2.4 0.7-3.1 1.8-0.4 0-0.4-0.2-0.2-0.5l0.4-0.4z"/>
    <path class="st8" d="m226.1 133.6c-1-0.2-1.5-0.9-2.1-1.6 0.9 0.2 1.7 0.6 2.1 1.6z"/>
    <path class="st19" d="m172.7 168.2c-0.1 0.6-0.6 0.9-1 1.3-0.6 0.5-0.9 1.1-0.8 1.9-0.7-0.5-0.3-1.1 0-1.6 0.5-0.6 1-1.2 1.8-1.6z"/>
    <path class="st8" d="m202.1 106.1-2.1 1.2c0.5-0.9 0.9-1.8 2.1-1.2z"/>
    <path class="st21" d="m242.4 153.1h-0.2c-0.4-0.7-0.2-1.6-0.5-2.3 0.1-0.1 0-0.4 0.2-0.5 0.4 0.9 0.5 1.8 0.5 2.8z"/>
    <path class="st3" d="m241.9 150.3c-0.1 0.2-0.1 0.3-0.2 0.5-0.3-0.8-0.5-1.5-0.8-2.3 0.5-0.3 0.5 0.3 0.7 0.4 0.2 0.5 0.3 0.9 0.3 1.4z"/>
    <path class="st3" d="m224.8 115.9c-0.2-0.7-0.4-1.5-0.6-2.2 0.9 0.4 0.6 1.4 1 2-0.1 0.1-0.2 0.3-0.4 0.2z"/>
    <path class="st18" d="m197.6 113.8c-0.3 0.9-1.1 1.3-1.9 1.6-0.1 0.1-0.2 0.1-0.3 0v-0.2c0.3-0.6 0.9-0.6 1.4-0.9 0.2-0.2 0.5-0.4 0.8-0.5z"/>
    <path class="st8" d="m196.5 112.4c0 0.2-0.3 0.3 0 0.5-0.5 0.2-0.6-0.2-0.6-0.5-0.1-0.6 0.3-0.9 0.9-1.1l0.1 0.1c0.1 0.4-0.5 0.5-0.4 1z"/>
    <path class="st8" d="m177.9 161.5c-0.1 0.3-0.3 0.5-0.4 0.8-0.3-0.2-0.7-0.4-0.4-0.9 0.4-0.5 0.6-0.1 0.8 0.1z"/>
    <path class="st15" d="m238.2 145c0 0.4 0.4 0.8 0 1.2-0.2-0.7-0.7-1.2-1.2-1.6 0.6-0.4 0.8 0.2 1.2 0.4z"/>
    <path class="st19" d="m180.5 156.6c-0.2-0.1-0.1-0.3 0-0.5 0.5-0.4 1-0.8 1.5-1.1-0.3 0.7-0.9 1.2-1.5 1.6z"/>
    <path class="st17" d="m171.7 173.3c0.3-0.1 0.6-0.1 0.9-0.2 0.2 0.4 0.2 0.7-0.4 0.7-0.4 0-0.8-0.1-1.2-0.2 0.2-0.2 0.4-0.3 0.7-0.3z"/>
    <path class="st39" d="m199.6 140.8c-0.3-0.3 0-0.6 0-0.9-0.1-0.5-0.1-1-0.2-1.5 0.7 0.7 0.7 1.5 0.2 2.4z"/>
    <path class="st19" d="m219.8 104.7c-0.6-0.4-1-0.8-1.4-1.4-0.1-0.2 0-0.3 0.2-0.3 0.2 0.3 0.4 0.5 0.7 0.7 0.2 0.2 0.4 0.2 0.5 0.5v0.5z"/>
    <path class="st8" d="m196.8 114.2c-0.3 0.5-0.9 0.6-1.4 0.9 0.1-0.7 0.7-0.9 1.4-0.9z"/>
    <path class="st40" d="m248.6 170.6v-0.7l0.2 0.2c-0.1 0.8 0.2 1.7-0.2 2.5-0.2-0.5-0.1-1.1 0-1.7v-0.3z"/>
    <path class="st8" d="m172.9 166.5c0-0.6 0.1-1 0.5-1.2 0 0.5 0 0.5-0.5 1.2z"/>
    <path class="st15" d="m203.4 106.1c-0.2-0.1-0.4-0.2-0.5-0.3 0.7 0.2 1.5-0.4 2.1 0.4-0.6 0-1.1 0-1.6-0.1z"/>
    <path class="st30" d="m221.2 108.9c0.1 0.2 0.5 0.4 0.2 0.7-0.4-0.4-1.2-0.5-0.9-1.4h0.2c0.3 0.2 0.3 0.5 0.5 0.7z"/>
    <path class="st3" d="m234.5 143.6c0.4-0.4 0.6 0.1 1 0.2l0.2 0.2c0.2 0.1 0.2 0.1 0 0.2-0.6 0.1-0.9-0.4-1.2-0.6z"/>
    <path class="st8" d="m199.8 132.4c0.1 0.1 0.1 0.3 0.2 0.5 0 0.3-0.2 0.4-0.4 0.5-0.5-0.6-0.5-0.9 0.2-1z"/>
    <path class="st37" d="m168.9 173.3c-0.5 0.1-0.9 0-1.4-0.2 0.5-0.3 1-0.4 1.4 0.2z"/>
    <path class="st30" d="m170.5 173.5c-0.5 0.1-0.9-0.1-1.4-0.2 0.5-0.1 1.1-0.6 1.4 0.2z"/>
    <path class="st8" d="m203.5 114c-0.8-0.8-0.1-0.8 0.5-0.9 0.1 0.4-0.1 0.7-0.5 0.9z"/>
    <path class="st24" d="m200.9 123.5c-0.3-0.6 0.4-0.9 0.5-1.4h0.3c0 0.6-0.4 1-0.8 1.4z"/>
    <path class="st30" d="m224.7 122.6 0.2 0.2v1.2c-0.1-0.1-0.3-0.1-0.4-0.2-0.1-0.4 0.1-0.8 0.2-1.2z"/>
    <path class="st37" d="m235.7 144.2v-0.2c0.4 0 0.9-0.1 1.2 0.3-0.5 0.5-0.9 0-1.2-0.1z"/>
    <path class="st22" d="m213.8 101.5c0.6-0.3 1.2-0.3 1.9 0-0.7 0.1-1.3 0.1-1.9 0z"/>
    <path class="st8" d="m213.8 101.5h1.9v0.2h-1.9v-0.2z"/>
    <path class="st29" d="m167.2 173.1c-0.4 0.1-0.8-0.1-1.1-0.2 0.4-0.3 0.9-0.4 1.1 0.2z"/>
    <path class="st8" d="m218.7 103.1c-0.1 0.1-0.2 0.2-0.2 0.3l-0.7-0.7c0.4-0.3 0.6 0 0.9 0.4z"/>
    <path class="st29" d="m224.8 115.9c0.1-0.1 0.3-0.1 0.4-0.2v0.9c-0.1 0.1-0.1 0.3-0.2 0.5-0.1-0.5-0.2-0.8-0.2-1.2z"/>
    <path class="st8" d="m219.8 104.2-0.5-0.5c0.2 0 0.5 0 0.7 0.1 0.1 0 0.2 0.2 0.2 0.3 0 0.3-0.2 0.2-0.4 0.1z"/>
    <path class="st36" d="m197.5 112.4c0.3-0.1 0.4-0.5 0.7-0.3 0.2 0.1 0 0.3-0.1 0.5-0.2 0-0.4 0-0.6-0.2z"/>
    <path class="st8" d="m202.6 117.6c-0.2-0.3-0.1-0.6 0.1-0.6 0.3 0 0.2 0.2 0.1 0.4 0 0.1-0.1 0.1-0.2 0.2z"/>
    <path class="st25" d="m203.5 114c0.2-0.3 0.3-0.6 0.5-0.9h0.3c-0.1 0.5-0.3 0.9-0.7 1.2 0-0.1-0.1-0.2-0.1-0.3z"/>
    <path class="st36" d="m223.6 131.5-0.2 0.2c-0.1-0.5-0.2-1.1 0-1.6l0.2 0.2v1.2z"/>
    <path class="st8" d="m194.3 132.9c-0.2-0.1-0.5-0.1-0.3-0.4 0-0.1 0.2-0.2 0.3-0.1 0.2 0.1 0 0.3 0 0.5z"/>
    <path class="st8" d="m220.8 107.3v-1.4c0.3 0.4 0.3 0.9 0 1.4z"/>
    <path class="st41" d="m206.8 106.3c-0.3 0.5-0.8 0.3-1.2 0.2 0.4-0.3 0.8-0.1 1.2-0.2z"/>
    <path class="st8" d="m221.2 108.9c-0.3-0.1-0.4-0.4-0.5-0.7 0.8-0.1 0.4 0.4 0.5 0.7z"/>
    <path class="st8" d="m196.8 111.2c0.1-0.3 0.1-0.7 0.4-0.7s0.1 0.3 0.1 0.5c-0.2 0.1-0.2 0.4-0.5 0.2z"/>
    <path class="st42" d="m203.5 111.4c0.3 0.1 0.5 0.2 0.8 0.3-0.5 0-1 0.1-1.4-0.2 0.2-0.1 0.4-0.1 0.6-0.1z"/>
    <path class="st8" d="m197.8 113.4c-0.2 0-0.5 0.2-0.5-0.2l0.1-0.2c0.3-0.1 0.3 0.2 0.4 0.4z"/>
    <path class="st8" d="m202.9 115.4c-0.2-0.1-0.5-0.1-0.3-0.5 0 0 0.1-0.1 0.2-0.1 0.2 0.2 0 0.5 0.1 0.6z"/>
    <path class="st8" d="m195.4 115.4h0.3c0.2 0.4 0.6 0.1 0.9 0.2-0.5 0.3-0.9 0.5-1.2-0.2z"/>
    <path class="st30" d="m201.9 119.8c-0.3-0.4 0.2-0.6 0.3-0.9h0.3c-0.1 0.4-0.4 0.7-0.6 0.9z"/>
    <path class="st13" d="m202.2 127.1c0 0.5-0.1 0.9-0.5 1.2 0-0.5 0.1-0.9 0.5-1.2z"/>
    <path class="st8" d="m196.8 133-0.2-0.2c0.1 0 0.2-0.1 0.2-0.1 0.1 0 0.2 0.1 0.2 0.2 0 0-0.1 0-0.2 0.1z"/>
    <path class="st8" d="m256.6 214.8c0.2-0.4 0.4-0.2 0.6-0.1 2 1.4 3.9 2.8 5.9 4.2s4 2.9 6.2 4.1c1.9 1.1 3.8 2.2 5.6 3.5 0.2 0.1 0.4 0.3 0.4 0.6-0.3 0.2-0.7-0.4-1 0.1-0.2-0.2-0.5-0.3-0.7-0.5-0.2-0.3-0.5-0.6-0.9-0.5-5.5-3.2-10.7-6.8-15.6-10.7-0.1-0.3-0.4-0.5-0.5-0.7z"/>
    <path class="st13" d="m206.1 109.6c0.3-1.3 1-2.2 2.1-2.9 0.6-0.3 1-0.3 1.4 0.2 0.5 0.6 0 1-0.5 1.3-1 0.5-1.8 1.3-2.6 2-0.4 0-0.3-0.3-0.4-0.6z"/>
    <path class="st11" d="m245.4 191.5c0.7 3.2 1.4 6.4 1.9 9.6 0.1 0.6 0.5 1.2 0 1.8-0.8-3.8-1.6-7.6-2.1-11.4 0.1-0.2 0.1-0.2 0.2 0z"/>
    <path class="st8" d="m249.4 205.5c1.6 0 2.5 1.1 3.5 2.1 0.2 0.2 0.5 0.6 0.2 0.9-0.4 0.3-0.4-0.3-0.7-0.4h-0.3c-0.6-0.8-1.6-1-2.3-1.7-0.1-0.3-0.4-0.5-0.5-0.8l0.1-0.1z"/>
    <path class="st8" d="m248 183.3c0.3 0.2 0.3 0.5 0.2 0.8-0.3 1.2-1.2 2-1.7 3.1-0.1 0.2-0.3 0.3-0.4 0.1-0.1-0.1 0-0.3 0.1-0.4-0.3-0.5 0.4-0.9 0.3-1.4 0.2-0.5 0.5-0.9 0.9-1.2 0.2-0.2 0.2-0.7 0.6-1z"/>
    <path class="st11" d="m248 183.3c-0.2 0.3 0 1-0.7 0.9 1-2.1 0.7-4.5 1-6.7 0.2-0.2 0-0.5 0.2-0.7h0.3c-0.5 2.2-0.1 4.4-0.8 6.5z"/>
    <path class="st8" d="m280.8 233.8c-0.6 0.2 0.3 0.4-0.1 0.7-0.6-0.2-1.4-0.4-2-0.6s-0.8-0.6-0.5-1.2c0.9 0.4 1.7 0.7 2.6 1.1z"/>
    <path class="st8" d="m249.1 219.6c-1.2 0.3-1.9-0.4-2-2 0.5-0.1 0.3 0.9 0.9 0.5 0.3 0.3 0.6 0.6 1 0.9-0.1 0.4 0.4 0.4 0.1 0.6z"/>
    <path class="st8" d="m247.8 203.8c0.4-0.8 0.8-0.7 1.2 0 0.3 0.5 0.5 1 0.5 1.6-0.5 0.2-0.6-0.4-0.9-0.5-0.5-0.2-0.7-0.6-0.8-1.1z"/>
    <path class="st11" d="m206.1 130.8c0.3-0.3 0.6-0.2 1-0.3 1-0.3 1.2-1.2 0.4-2.1 0.1-0.3 0.2-0.6 0.5-0.7 0.8 2.3 0.3 3.2-1.9 3.3-0.2-0.1-0.2-0.2 0-0.2z"/>
    <path class="st8" d="m275.6 227.8c0.3-0.8 0.7-0.9 1.3-0.3 0.5 0.4 1 0.7 1.5 1.1-0.9 0.3-1.3-0.9-2.1-0.3-0.2-0.2-0.5-0.3-0.7-0.5z"/>
    <path class="st8" d="m253.1 211.5c0.6-0.7 0.9-0.2 1.2 0.3 0.3 0.4 0.4 0.9 0.4 1.4-0.5 0.2-0.6-0.4-0.9-0.5-0.4-0.3-0.6-0.7-0.7-1.2z"/>
    <path class="st16" d="m206.1 109.6c0.1 0.2 0.3 0.5 0.4 0.7-0.4 0.5-0.8 1.1-1.4 1.5 0-0.3 0.1-0.6 0-1 0.4-0.4 0.7-0.8 1-1.2z"/>
    <path class="st10" d="m174.3 205c0.3 0.5-0.3 0.9-0.3 1.4 0.1 0.2 0.1 0.3 0 0.5-0.1 0.5-0.5 0.7-0.9 1.2 0.2-1.3 0.6-2.2 1.2-3.1z"/>
    <path class="st8" d="m255 213.4c1.1-0.2 1.3 0.1 1.1 1.4-0.4-0.3-0.8-0.6-1.2-1 0-0.1-0.1-0.3 0.1-0.4z"/>
    <path class="st8" d="m228.6 282.1c-0.1 1.8 0.3 3.6-0.2 5.5 0.1-1.8-0.1-3.7 0.2-5.5z"/>
    <path class="st21" d="m286.4 235.9c-1.3 0.1-2.5-0.8-3.8-0.9-0.1 0-0.1-0.1-0.1-0.1s0-0.1 0.1-0.1c1.4 0 2.6 0.5 3.8 1.1z"/>
    <path class="st8" d="m251.2 218.7c0.1 0.4 0.8-0.2 0.6 0.3-0.2 0.4-0.5 1.2-1.3 0.7-0.1-0.2-0.4 0-0.5-0.3 0.4-0.2 0.9-0.4 1.2-0.7z"/>
    <path class="st27" d="m284.3 232c1.1-0.2 2 0.2 2.8 0.9-1-0.3-1.9-0.6-2.8-0.9z"/>
    <path class="st14" d="m228.6 139.6c0.9-0.1 1.9 0.5 2.3 1.4-0.7-0.4-1.5-0.9-2.3-1.4z"/>
    <path class="st16" d="m253.6 217.3c-0.4 0.3-0.6 0-0.9-0.2-0.5-0.3-0.6 0.1-0.7 0.4 0 0.3-0.2 0.4-0.5 0.2 0.5-1.4 0.5-1.4 2.1-0.4z"/>
    <path class="st27" d="m203.6 128.4c-0.2 1.1-0.8 1.7-1.9 1.9l1.9-1.9z"/>
    <path class="st15" d="m206.1 130.8v0.2c-1 0.3-2 0-2.9 0.1l-0.3-0.3h3.2z"/>
    <path class="st43" d="m240 212.5-0.6 0.6c-0.2-0.3-0.5-0.7-0.8-1.1 0.7-0.1 1 0.3 1.4 0.5z"/>
    <path class="st37" d="m248.7 176.8h-0.2c-0.2-0.7-0.2-1.4 0-2.1v-1.1c0.4 1 0.1 2.1 0.2 3.2z"/>
    <path class="st8" d="m246.3 214.5c0.4 0.2 0.7 0.5 0.4 0.9s-0.4 0-0.6-0.2c-0.1-0.1-0.3-0.1-0.3-0.3 0.2-0.1 0.4-0.3 0.5-0.4z"/>
    <path class="st17" d="m174 206.9c-0.1-0.2-0.2-0.3 0-0.5 0.5-0.2 0.7-1 1.4-0.9-0.4 0.5-0.8 1.1-1.4 1.4z"/>
    <path class="st23" d="m268.2 227.1c-0.8 0.1-1.3-0.2-1.6-1 0.5 0.4 1.1 0.7 1.6 1z"/>
    <path class="st19" d="m248.4 205c0.5-0.2 0.6 0.4 0.9 0.5 0.1 0.4 0.6 0.5 0.5 0.9-0.5-0.4-1-0.8-1.4-1.4z"/>
    <path class="st8" d="m196.5 306.4c-0.3-1-0.3-2 0-3v3z"/>
    <path class="st42" d="m292.4 236.6c-0.9 0.3-1.8 0.3-2.8 0 0.4-0.2 0.8-0.1 1.2 0h0.6c0.4-0.1 0.7-0.2 1 0z"/>
    <path class="st8" d="m225 117.3c0.3 0.9 0.3 1.9 0 2.8v-2.8z"/>
    <path class="st8" d="m248.4 174.7v2.1c-0.1 0.2-0.1 0.5-0.2 0.7 0-0.9 0-1.9 0.2-2.8z"/>
    <path class="st8" d="m157.7 221.3v-2.6h0.2v2.6h-0.2z"/>
    <path class="st36" d="m206.4 127c0 0.6-0.1 1.1-0.1 1.7-0.1-0.7-0.3-1.4 0-2.1 0 0.1 0 0.3 0.1 0.4z"/>
    <path class="st33" d="m245.4 191.5h-0.2c-0.2-0.9-0.2-1.7 0-2.6 0.4 0.9 0.1 1.7 0.2 2.6z"/>
    <path class="st17" d="m255 213.4c0.1 0.2 0.1 0.3 0 0.5-0.5-0.3-0.9-0.7-1.1-1.2 0.5-0.2 0.6 0.4 0.9 0.5l0.2 0.2z"/>
    <path class="st32" d="m250 219.4c0.2 0.1 0.4 0.2 0.5 0.3h-1.4c-0.1-0.2-0.4-0.2-0.2-0.5 0.4 0 0.8 0.1 1.1 0.2z"/>
    <path class="st28" d="m252.7 209.6c0.5 0.3 0.5 0.4 0.2 1.4 0-0.4-0.4-0.9-0.2-1.4z"/>
    <path class="st8" d="m160.3 182.4c0.7-0.4 1.5-0.1 2.2-0.2-0.8 0.3-1.5 0.1-2.2 0.2z"/>
    <path class="st19" d="m196.8 111.2c0.2-0.1 0.3-0.1 0.5-0.2-0.1 0.6-0.4 1-0.8 1.4-0.3-0.5 0.3-0.8 0.3-1.2z"/>
    <path class="st8" d="m248.6 170.9v1.7c-0.1 0.2-0.1 0.3-0.2 0.5 0.1-0.7 0-1.4 0.2-2.2z"/>
    <path class="st23" d="m272.6 226.1c0.7-0.1 0.8-0.1 0.9 0.5-0.3-0.1-0.6-0.3-0.9-0.5z"/>
    <path class="st8" d="m151.4 196.6c-0.6 0.3-1.2 0.3-1.8 0h1.8z"/>
    <path class="st37" d="m292.9 234.1c0.6-0.3 1.2-0.3 1.8 0-0.5 0.2-1 0.2-1.4 0h-0.4z"/>
    <path class="st8" d="m203.2 310.6c-0.7 0-1.3 0.2-2-0.2 0.7 0 1.3 0 2 0.2z"/>
    <path class="st8" d="m212.4 323.7c-0.1 0.1-0.2 0.1-0.2 0.2h-1.6v-0.2h1.8z"/>
    <path class="st19" d="m246.4 185.4c0.3 0.5-0.3 0.9-0.3 1.4l-0.3-0.3c0.2-0.3 0.4-0.7 0.6-1.1z"/>
    <path class="st8" d="m293.3 234.1h1.4c0.1 0.1 0.2 0.1 0.2 0.2-0.5 0-1.1 0-1.6-0.2z"/>
    <path class="st8" d="m208.7 317.7c0-0.6-0.2-1.2 0.2-1.7 0 0.6 0 1.1-0.2 1.7z"/>
    <path class="st29" d="m176.1 204.7c0.1-0.5 0.2-1 0.9-0.9l-0.9 0.9z"/>
    <path class="st30" d="m205.9 125.3c-0.1 0.2-0.2 0.5-0.5 0.3 0.1-0.2 0.1-0.5 0.4-0.6 0 0.1 0.1 0.2 0.1 0.3z"/>
    <path class="st32" d="m246.3 222.9c0.5 0 0.7 0.2 0.5 0.7-0.1-0.2-0.3-0.5-0.5-0.7z"/>
    <path class="st32" d="m198 141.7c0.2-0.1 0.4-0.3 0.7 0-0.2 0.2-0.4 0.3-0.7 0.5-0.2-0.2-0.1-0.3 0-0.5z"/>
    <path class="st8" d="m208.9 315.1c0-0.5-0.1-1 0.2-1.5 0 0.6 0 1.1-0.2 1.5z"/>
    <path class="st28" d="m245.8 214.9 0.3 0.3c-0.5 0-1 0.1-1.4-0.3 0.4 0.1 0.7 0 1.1 0z"/>
    <path class="st32" d="m256.6 214.8c0.2 0.2 0.7 0.3 0.5 0.7-0.2-0.2-0.5-0.3-0.7-0.5 0-0.1 0.1-0.2 0.2-0.2z"/>
    <path class="st8" d="m206.3 298.3v1.2c-0.2-0.5-0.2-1-0.2-1.5 0.1 0.1 0.2 0.2 0.2 0.3z"/>
    <path class="st8" d="m247.2 215.9c-0.3-0.5-0.2-1-0.2-1.5 0.3 0.5 0.3 1 0.2 1.5z"/>
    <path class="st8" d="m206.6 300.6v1.5c-0.2-0.5-0.2-1-0.2-1.5h0.2z"/>
    <path class="st8" d="m246.8 213.4c-0.1 0.3-0.2 0.6-0.4 0.9 0.2-0.3-0.3-0.8 0.4-0.9z"/>
    <path class="st8" d="m169.1 177.8v-1.5c0.4 0.5 0.3 1 0 1.5z"/>
    <path class="st8" d="m168 194.8v-1.3c0.2 0.5 0.2 0.9 0 1.3z"/>
    <path class="st8" d="m208.4 319.8c0-0.4-0.1-0.9 0.2-1.2 0.1 0.4 0 0.8-0.2 1.2z"/>
    <path class="st8" d="m224.9 121.1c0 0.4 0.1 0.9-0.2 1.3 0-0.5 0-0.9 0.2-1.3z"/>
    <path class="st8" d="m295.7 234.3c0.2-0.2 0.4-0.3 0.5-0.1s-0.3 0.1-0.5 0.3v-0.2z"/>
    <path class="st8" d="m290.9 236.6h-1.2v-0.2c0.3 0 0.8 0 1.2 0.2z"/>
    <path class="st8" d="m292.4 236.6h-1c0.4-0.1 0.8-0.1 1.2-0.2 0 0.1-0.1 0.2-0.2 0.2z"/>
    <path class="st8" d="m183.6 243.5v-0.8c0.1-0.2 0.1-0.3 0.2-0.5 0 0.5 0 0.9-0.2 1.3z"/>
    <path class="st8" d="m296 235c-0.5 1.4-1.5 1.5-2.2 1.9-0.1-0.1-0.1-0.2-0.2-0.3 0.7-0.4 1.4-0.9 2.4-1.6z"/>
    <path class="st8" d="m282.3 230.6c-1-0.2-1.7-0.7-2.4-1.2 0.9 0.1 1.7 0.4 2.4 1.2z"/>
    <path class="st8" d="m277.3 232.9c-0.8 0.1-1.3-0.2-1.9-1 0.9 0.2 1.4 0.5 1.9 1z"/>
    <path class="st8" d="m282.6 234.8v0.2c-0.4 0.1-0.8 0.4-1-0.2 0.4-0.3 0.7 0.1 1 0z"/>
    <path class="st8" d="m284.1 230.9c0.1 0.1 0.2 0.2 0.2 0.3 0 0.2-0.2 0.2-0.3 0.2s-0.3-0.1-0.2-0.3c0-0.1 0.2-0.1 0.3-0.2z"/>
    <path class="st8" d="m282.8 230.7-0.1 0.2c-0.1 0-0.3-0.1-0.4-0.2-0.2-0.2 0.1-0.1 0.1-0.1 0.2-0.1 0.3-0.1 0.4 0.1z"/>



    <path class="st44" d="m428.2 217.7c-1.5 0.1-3.1 0.2-4.8 0.2s-4.2-0.1-7.6-0.4v39.1h-19.9v-100.5c7-0.9 15.6-1.4 25.9-1.4 13.9 0 24.3 2.6 31.1 7.7s10.3 13.1 10.3 23.8c0 8.3-3.1 15.4-9.4 21.3-2.1 1.9-4.4 3.6-7.1 5l15.3 32.3c3 6.7 5.3 10.6 6.9 11.9l-0.4 0.4c-4.9-0.8-12.5-0.8-22.9 0.1l-17.4-39.5zm-5-45.2c-2.6 0-5 0.1-7.4 0.4v28.7c2.5 0.4 5.3 0.5 8.6 0.5s6.1-0.3 8.3-0.9c2.3-0.6 4.2-1.5 5.9-2.7 3.6-2.7 5.3-6.6 5.3-11.9s-1.9-9-5.6-11.2c-3.3-2-8.4-2.9-15.1-2.9z"/>
    <path class="st44" d="m478 217.7c0-5.5 0.9-10.8 2.8-15.8s4.6-9.4 8.1-13.2c7.7-8.1 17.6-12.2 29.8-12.2s21.8 3.8 29 11.5c6.9 7.3 10.3 16.8 10.3 28.5s-3.5 21.3-10.6 29c-7.5 8.1-17.4 12.2-29.7 12.2-12.7 0-22.7-4-29.9-11.9-6.5-7.3-9.8-16.7-9.8-28.1zm18.2-0.4c0 3.2 0.5 6.2 1.6 9.2s2.6 5.5 4.5 7.6c4.2 4.6 9.6 6.8 16.4 6.8 6.3 0 11.2-2.2 14.8-6.7 3.5-4.3 5.3-9.9 5.3-16.8 0-7-1.8-12.7-5.4-17-3.9-4.6-9.1-6.9-15.9-6.9s-12.1 2.5-16 7.4c-3.5 4.4-5.3 9.9-5.3 16.4z"/>
    <path class="st44" d="m593.4 246.9c0 4.4 0.2 7.6 0.6 9.6h-18.9v-78.5h18.3v6.7c6.6-5.5 13.7-8.2 21.2-8.2 8.2 0 14.8 2.8 19.7 8.4s7.4 12.9 7.4 22.1v29.9c0 8.5 0.1 13.6 0.4 15.3s0.6 2.8 1 3.3 0.8 1 1.1 1.4l-0.2 0.3c-4.1-0.4-7-0.5-8.9-0.5h-5.3c-1.6 0-3.8 0.1-6.5 0.2v-41c0-14.7-4.5-22-13.4-22-6.6 0-12.1 3.4-16.6 10.2v42.8z"/>
    <path class="st44" d="m661.2 155.6c4-6.3 8.2-11.8 12.6-16.5l16.2 12.7c-2.2 2.7-4.2 5.3-6 7.8l-5.8 8.2-17-12.2zm19.8 92.5c0 4.3 0.1 7.1 0.3 8.4h-19.1v-78.5h18.8v70.1z"/>
    <path class="st44" d="m721.9 246.9c0 4.4 0.2 7.6 0.6 9.6h-18.9v-78.5h18.3v6.7c6.6-5.5 13.7-8.2 21.2-8.2 8.2 0 14.8 2.8 19.7 8.4s7.4 12.9 7.4 22.1v29.9c0 8.5 0.1 13.6 0.4 15.3s0.6 2.8 1 3.3 0.8 1 1.1 1.4l-0.2 0.3c-4.1-0.4-7-0.5-8.9-0.5h-5.3c-1.6 0-3.8 0.1-6.5 0.2v-41c0-14.7-4.5-22-13.4-22-6.6 0-12.1 3.4-16.6 10.2v42.8z"/>
    <path class="st44" d="m818.3 258.4c-8.1 0-15.8-0.7-22.9-2v-100.5c6.6-0.8 14.3-1.2 23-1.2s16.7 1.2 23.7 3.6c7.1 2.4 13 5.8 17.8 10.2 9.6 8.8 14.4 21.2 14.4 37 0 17.8-5.4 31.3-16.1 40.5-9.5 8.3-22.8 12.4-39.9 12.4zm-3.3-18.3c3.3 0.6 6.5 0.9 9.8 0.9s6.8-0.6 10.5-1.9c3.8-1.3 7-3.3 9.8-6 5.9-5.7 8.9-14 8.9-24.9 0-17.9-6.5-29-19.6-33.1-4.3-1.4-9.3-2-15-2h-2c-0.8 0-1.5 0-2.3 0.1v66.9z"/>
    <path class="st44" d="m888.9 217.7c0-5.5 0.9-10.8 2.8-15.8s4.6-9.4 8.1-13.2c7.7-8.1 17.6-12.2 29.8-12.2s21.8 3.8 29 11.5c6.9 7.3 10.3 16.8 10.3 28.5s-3.5 21.3-10.6 29c-7.5 8.1-17.4 12.2-29.7 12.2-12.7 0-22.7-4-29.9-11.9-6.5-7.3-9.8-16.7-9.8-28.1zm18.3-0.4c0 3.2 0.5 6.2 1.6 9.2s2.6 5.5 4.5 7.6c4.2 4.6 9.6 6.8 16.4 6.8 6.3 0 11.2-2.2 14.8-6.7 3.5-4.3 5.3-9.9 5.3-16.8 0-7-1.8-12.7-5.4-17-3.9-4.6-9.1-6.9-15.9-6.9s-12.1 2.5-16 7.4c-3.6 4.4-5.3 9.9-5.3 16.4z"/>
    <path class="st44" d="m972.3 268.2c7.4 0 11.1-5.5 11.1-16.5v-73.7h18.3v68.2c0 21-6 33.5-18 37.3-3.9 1.3-8.3 1.9-13.3 1.9l-7.8-19.8 0.2-0.4c2.8 2.1 6 3 9.5 3zm8.4-112c3.3-5.2 7-10.1 11.2-14.7l14.4 11.3c-2.5 3.2-4.2 5.4-5.1 6.6l-2.6 3.7c-0.9 1.2-1.8 2.5-2.7 3.9l-15.2-10.8z"/>
    <path class="st44" d="m1017.4 217.7c0-5.5 0.9-10.8 2.8-15.8s4.6-9.4 8.1-13.2c7.7-8.1 17.6-12.2 29.8-12.2s21.8 3.8 29 11.5c6.9 7.3 10.3 16.8 10.3 28.5s-3.5 21.3-10.6 29c-7.5 8.1-17.4 12.2-29.7 12.2-12.7 0-22.7-4-29.9-11.9-6.5-7.3-9.8-16.7-9.8-28.1zm18.3-0.4c0 3.2 0.5 6.2 1.6 9.2s2.6 5.5 4.5 7.6c4.2 4.6 9.6 6.8 16.4 6.8 6.3 0 11.2-2.2 14.8-6.7 3.5-4.3 5.3-9.9 5.3-16.8 0-7-1.8-12.7-5.4-17-3.9-4.6-9.1-6.9-15.9-6.9s-12.1 2.5-16 7.4c-3.6 4.4-5.3 9.9-5.3 16.4z"/>

</svg>
