<?xml version="1.0" encoding="utf-8"?>
<svg xmlns="http://www.w3.org/2000/svg" viewBox="0 0 430 430">
    <rect fill="white" width="430" height="430" />
    <path fill="black"
          d="M10,10h10v10h-10zM20,10h10v10h-10zM30,10h10v10h-10zM40,10h10v10h-10zM50,10h10v10h-10zM60,10h10v10h-10zM70,10h10v10h-10zM90,10h10v10h-10zM100,10h10v10h-10zM130,10h10v10h-10zM140,10h10v10h-10zM160,10h10v10h-10zM170,10h10v10h-10zM180,10h10v10h-10zM200,10h10v10h-10zM230,10h10v10h-10zM240,10h10v10h-10zM250,10h10v10h-10zM260,10h10v10h-10zM270,10h10v10h-10zM290,10h10v10h-10zM320,10h10v10h-10zM350,10h10v10h-10zM360,10h10v10h-10zM370,10h10v10h-10zM380,10h10v10h-10zM390,10h10v10h-10zM400,10h10v10h-10zM410,10h10v10h-10zM10,20h10v10h-10zM70,20h10v10h-10zM90,20h10v10h-10zM100,20h10v10h-10zM120,20h10v10h-10zM130,20h10v10h-10zM140,20h10v10h-10zM150,20h10v10h-10zM170,20h10v10h-10zM180,20h10v10h-10zM200,20h10v10h-10zM210,20h10v10h-10zM230,20h10v10h-10zM290,20h10v10h-10zM300,20h10v10h-10zM320,20h10v10h-10zM330,20h10v10h-10zM350,20h10v10h-10zM410,20h10v10h-10zM10,30h10v10h-10zM30,30h10v10h-10zM40,30h10v10h-10zM50,30h10v10h-10zM70,30h10v10h-10zM90,30h10v10h-10zM100,30h10v10h-10zM110,30h10v10h-10zM120,30h10v10h-10zM150,30h10v10h-10zM160,30h10v10h-10zM180,30h10v10h-10zM210,30h10v10h-10zM220,30h10v10h-10zM230,30h10v10h-10zM250,30h10v10h-10zM280,30h10v10h-10zM290,30h10v10h-10zM300,30h10v10h-10zM310,30h10v10h-10zM330,30h10v10h-10zM350,30h10v10h-10zM370,30h10v10h-10zM380,30h10v10h-10zM390,30h10v10h-10zM410,30h10v10h-10zM10,40h10v10h-10zM30,40h10v10h-10zM40,40h10v10h-10zM50,40h10v10h-10zM70,40h10v10h-10zM90,40h10v10h-10zM100,40h10v10h-10zM110,40h10v10h-10zM130,40h10v10h-10zM160,40h10v10h-10zM170,40h10v10h-10zM180,40h10v10h-10zM240,40h10v10h-10zM270,40h10v10h-10zM280,40h10v10h-10zM310,40h10v10h-10zM350,40h10v10h-10zM370,40h10v10h-10zM380,40h10v10h-10zM390,40h10v10h-10zM410,40h10v10h-10zM10,50h10v10h-10zM30,50h10v10h-10zM40,50h10v10h-10zM50,50h10v10h-10zM70,50h10v10h-10zM110,50h10v10h-10zM130,50h10v10h-10zM140,50h10v10h-10zM170,50h10v10h-10zM190,50h10v10h-10zM200,50h10v10h-10zM220,50h10v10h-10zM280,50h10v10h-10zM290,50h10v10h-10zM300,50h10v10h-10zM310,50h10v10h-10zM320,50h10v10h-10zM350,50h10v10h-10zM370,50h10v10h-10zM380,50h10v10h-10zM390,50h10v10h-10zM410,50h10v10h-10zM10,60h10v10h-10zM70,60h10v10h-10zM90,60h10v10h-10zM100,60h10v10h-10zM130,60h10v10h-10zM160,60h10v10h-10zM180,60h10v10h-10zM190,60h10v10h-10zM200,60h10v10h-10zM210,60h10v10h-10zM250,60h10v10h-10zM270,60h10v10h-10zM310,60h10v10h-10zM320,60h10v10h-10zM350,60h10v10h-10zM410,60h10v10h-10zM10,70h10v10h-10zM20,70h10v10h-10zM30,70h10v10h-10zM40,70h10v10h-10zM50,70h10v10h-10zM60,70h10v10h-10zM70,70h10v10h-10zM90,70h10v10h-10zM110,70h10v10h-10zM130,70h10v10h-10zM150,70h10v10h-10zM170,70h10v10h-10zM190,70h10v10h-10zM210,70h10v10h-10zM230,70h10v10h-10zM250,70h10v10h-10zM270,70h10v10h-10zM290,70h10v10h-10zM310,70h10v10h-10zM330,70h10v10h-10zM350,70h10v10h-10zM360,70h10v10h-10zM370,70h10v10h-10zM380,70h10v10h-10zM390,70h10v10h-10zM400,70h10v10h-10zM410,70h10v10h-10zM100,80h10v10h-10zM180,80h10v10h-10zM200,80h10v10h-10zM220,80h10v10h-10zM230,80h10v10h-10zM240,80h10v10h-10zM270,80h10v10h-10zM280,80h10v10h-10zM290,80h10v10h-10zM300,80h10v10h-10zM310,80h10v10h-10zM10,90h10v10h-10zM20,90h10v10h-10zM50,90h10v10h-10zM60,90h10v10h-10zM70,90h10v10h-10zM100,90h10v10h-10zM160,90h10v10h-10zM170,90h10v10h-10zM200,90h10v10h-10zM210,90h10v10h-10zM230,90h10v10h-10zM240,90h10v10h-10zM250,90h10v10h-10zM260,90h10v10h-10zM280,90h10v10h-10zM290,90h10v10h-10zM300,90h10v10h-10zM310,90h10v10h-10zM360,90h10v10h-10zM380,90h10v10h-10zM390,90h10v10h-10zM400,90h10v10h-10zM410,90h10v10h-10zM30,100h10v10h-10zM40,100h10v10h-10zM80,100h10v10h-10zM100,100h10v10h-10zM110,100h10v10h-10zM120,100h10v10h-10zM130,100h10v10h-10zM150,100h10v10h-10zM160,100h10v10h-10zM180,100h10v10h-10zM190,100h10v10h-10zM200,100h10v10h-10zM260,100h10v10h-10zM270,100h10v10h-10zM280,100h10v10h-10zM290,100h10v10h-10zM300,100h10v10h-10zM350,100h10v10h-10zM360,100h10v10h-10zM370,100h10v10h-10zM380,100h10v10h-10zM400,100h10v10h-10zM410,100h10v10h-10zM20,110h10v10h-10zM30,110h10v10h-10zM70,110h10v10h-10zM130,110h10v10h-10zM140,110h10v10h-10zM150,110h10v10h-10zM160,110h10v10h-10zM170,110h10v10h-10zM190,110h10v10h-10zM240,110h10v10h-10zM250,110h10v10h-10zM260,110h10v10h-10zM280,110h10v10h-10zM290,110h10v10h-10zM300,110h10v10h-10zM330,110h10v10h-10zM360,110h10v10h-10zM370,110h10v10h-10zM400,110h10v10h-10zM410,110h10v10h-10zM10,120h10v10h-10zM30,120h10v10h-10zM50,120h10v10h-10zM100,120h10v10h-10zM110,120h10v10h-10zM140,120h10v10h-10zM200,120h10v10h-10zM210,120h10v10h-10zM220,120h10v10h-10zM300,120h10v10h-10zM330,120h10v10h-10zM340,120h10v10h-10zM350,120h10v10h-10zM380,120h10v10h-10zM410,120h10v10h-10zM20,130h10v10h-10zM40,130h10v10h-10zM50,130h10v10h-10zM60,130h10v10h-10zM70,130h10v10h-10zM80,130h10v10h-10zM90,130h10v10h-10zM140,130h10v10h-10zM170,130h10v10h-10zM220,130h10v10h-10zM230,130h10v10h-10zM270,130h10v10h-10zM290,130h10v10h-10zM300,130h10v10h-10zM320,130h10v10h-10zM330,130h10v10h-10zM340,130h10v10h-10zM370,130h10v10h-10zM390,130h10v10h-10zM20,140h10v10h-10zM60,140h10v10h-10zM90,140h10v10h-10zM100,140h10v10h-10zM130,140h10v10h-10zM150,140h10v10h-10zM180,140h10v10h-10zM190,140h10v10h-10zM210,140h10v10h-10zM220,140h10v10h-10zM240,140h10v10h-10zM260,140h10v10h-10zM280,140h10v10h-10zM310,140h10v10h-10zM360,140h10v10h-10zM370,140h10v10h-10zM390,140h10v10h-10zM400,140h10v10h-10zM410,140h10v10h-10zM10,150h10v10h-10zM30,150h10v10h-10zM60,150h10v10h-10zM70,150h10v10h-10zM80,150h10v10h-10zM120,150h10v10h-10zM130,150h10v10h-10zM140,150h10v10h-10zM160,150h10v10h-10zM180,150h10v10h-10zM190,150h10v10h-10zM230,150h10v10h-10zM240,150h10v10h-10zM250,150h10v10h-10zM270,150h10v10h-10zM280,150h10v10h-10zM330,150h10v10h-10zM350,150h10v10h-10zM360,150h10v10h-10zM370,150h10v10h-10zM380,150h10v10h-10zM400,150h10v10h-10zM410,150h10v10h-10zM10,160h10v10h-10zM20,160h10v10h-10zM40,160h10v10h-10zM50,160h10v10h-10zM100,160h10v10h-10zM120,160h10v10h-10zM150,160h10v10h-10zM160,160h10v10h-10zM170,160h10v10h-10zM180,160h10v10h-10zM190,160h10v10h-10zM200,160h10v10h-10zM220,160h10v10h-10zM280,160h10v10h-10zM300,160h10v10h-10zM320,160h10v10h-10zM340,160h10v10h-10zM360,160h10v10h-10zM370,160h10v10h-10zM380,160h10v10h-10zM410,160h10v10h-10zM10,170h10v10h-10zM20,170h10v10h-10zM30,170h10v10h-10zM50,170h10v10h-10zM60,170h10v10h-10zM70,170h10v10h-10zM90,170h10v10h-10zM110,170h10v10h-10zM140,170h10v10h-10zM170,170h10v10h-10zM180,170h10v10h-10zM200,170h10v10h-10zM210,170h10v10h-10zM220,170h10v10h-10zM230,170h10v10h-10zM280,170h10v10h-10zM300,170h10v10h-10zM310,170h10v10h-10zM320,170h10v10h-10zM340,170h10v10h-10zM360,170h10v10h-10zM380,170h10v10h-10zM390,170h10v10h-10zM400,170h10v10h-10zM410,170h10v10h-10zM10,180h10v10h-10zM60,180h10v10h-10zM80,180h10v10h-10zM90,180h10v10h-10zM140,180h10v10h-10zM150,180h10v10h-10zM170,180h10v10h-10zM240,180h10v10h-10zM260,180h10v10h-10zM280,180h10v10h-10zM290,180h10v10h-10zM300,180h10v10h-10zM340,180h10v10h-10zM350,180h10v10h-10zM370,180h10v10h-10zM390,180h10v10h-10zM10,190h10v10h-10zM20,190h10v10h-10zM70,190h10v10h-10zM80,190h10v10h-10zM90,190h10v10h-10zM110,190h10v10h-10zM120,190h10v10h-10zM130,190h10v10h-10zM160,190h10v10h-10zM180,190h10v10h-10zM240,190h10v10h-10zM270,190h10v10h-10zM280,190h10v10h-10zM290,190h10v10h-10zM310,190h10v10h-10zM330,190h10v10h-10zM370,190h10v10h-10zM410,190h10v10h-10zM10,200h10v10h-10zM30,200h10v10h-10zM50,200h10v10h-10zM60,200h10v10h-10zM90,200h10v10h-10zM100,200h10v10h-10zM150,200h10v10h-10zM180,200h10v10h-10zM190,200h10v10h-10zM200,200h10v10h-10zM220,200h10v10h-10zM250,200h10v10h-10zM280,200h10v10h-10zM290,200h10v10h-10zM300,200h10v10h-10zM350,200h10v10h-10zM380,200h10v10h-10zM400,200h10v10h-10zM410,200h10v10h-10zM30,210h10v10h-10zM70,210h10v10h-10zM80,210h10v10h-10zM110,210h10v10h-10zM120,210h10v10h-10zM130,210h10v10h-10zM140,210h10v10h-10zM150,210h10v10h-10zM190,210h10v10h-10zM200,210h10v10h-10zM210,210h10v10h-10zM230,210h10v10h-10zM240,210h10v10h-10zM260,210h10v10h-10zM280,210h10v10h-10zM320,210h10v10h-10zM330,210h10v10h-10zM340,210h10v10h-10zM380,210h10v10h-10zM390,210h10v10h-10zM410,210h10v10h-10zM10,220h10v10h-10zM40,220h10v10h-10zM90,220h10v10h-10zM100,220h10v10h-10zM140,220h10v10h-10zM170,220h10v10h-10zM180,220h10v10h-10zM220,220h10v10h-10zM260,220h10v10h-10zM280,220h10v10h-10zM290,220h10v10h-10zM310,220h10v10h-10zM320,220h10v10h-10zM350,220h10v10h-10zM360,220h10v10h-10zM370,220h10v10h-10zM390,220h10v10h-10zM20,230h10v10h-10zM40,230h10v10h-10zM60,230h10v10h-10zM70,230h10v10h-10zM90,230h10v10h-10zM110,230h10v10h-10zM140,230h10v10h-10zM150,230h10v10h-10zM170,230h10v10h-10zM220,230h10v10h-10zM230,230h10v10h-10zM240,230h10v10h-10zM260,230h10v10h-10zM270,230h10v10h-10zM280,230h10v10h-10zM290,230h10v10h-10zM300,230h10v10h-10zM310,230h10v10h-10zM330,230h10v10h-10zM340,230h10v10h-10zM360,230h10v10h-10zM370,230h10v10h-10zM410,230h10v10h-10zM40,240h10v10h-10zM50,240h10v10h-10zM60,240h10v10h-10zM80,240h10v10h-10zM100,240h10v10h-10zM110,240h10v10h-10zM130,240h10v10h-10zM180,240h10v10h-10zM200,240h10v10h-10zM210,240h10v10h-10zM220,240h10v10h-10zM230,240h10v10h-10zM240,240h10v10h-10zM290,240h10v10h-10zM300,240h10v10h-10zM320,240h10v10h-10zM340,240h10v10h-10zM350,240h10v10h-10zM380,240h10v10h-10zM400,240h10v10h-10zM410,240h10v10h-10zM10,250h10v10h-10zM20,250h10v10h-10zM40,250h10v10h-10zM70,250h10v10h-10zM80,250h10v10h-10zM90,250h10v10h-10zM100,250h10v10h-10zM120,250h10v10h-10zM130,250h10v10h-10zM150,250h10v10h-10zM160,250h10v10h-10zM210,250h10v10h-10zM220,250h10v10h-10zM230,250h10v10h-10zM240,250h10v10h-10zM250,250h10v10h-10zM280,250h10v10h-10zM320,250h10v10h-10zM330,250h10v10h-10zM340,250h10v10h-10zM370,250h10v10h-10zM380,250h10v10h-10zM10,260h10v10h-10zM40,260h10v10h-10zM50,260h10v10h-10zM60,260h10v10h-10zM80,260h10v10h-10zM100,260h10v10h-10zM110,260h10v10h-10zM120,260h10v10h-10zM160,260h10v10h-10zM170,260h10v10h-10zM180,260h10v10h-10zM190,260h10v10h-10zM200,260h10v10h-10zM220,260h10v10h-10zM240,260h10v10h-10zM260,260h10v10h-10zM270,260h10v10h-10zM290,260h10v10h-10zM310,260h10v10h-10zM320,260h10v10h-10zM350,260h10v10h-10zM360,260h10v10h-10zM370,260h10v10h-10zM380,260h10v10h-10zM400,260h10v10h-10zM410,260h10v10h-10zM20,270h10v10h-10zM30,270h10v10h-10zM70,270h10v10h-10zM80,270h10v10h-10zM90,270h10v10h-10zM100,270h10v10h-10zM110,270h10v10h-10zM120,270h10v10h-10zM130,270h10v10h-10zM140,270h10v10h-10zM150,270h10v10h-10zM160,270h10v10h-10zM170,270h10v10h-10zM190,270h10v10h-10zM230,270h10v10h-10zM240,270h10v10h-10zM250,270h10v10h-10zM280,270h10v10h-10zM290,270h10v10h-10zM340,270h10v10h-10zM350,270h10v10h-10zM360,270h10v10h-10zM390,270h10v10h-10zM410,270h10v10h-10zM10,280h10v10h-10zM20,280h10v10h-10zM50,280h10v10h-10zM60,280h10v10h-10zM80,280h10v10h-10zM90,280h10v10h-10zM110,280h10v10h-10zM120,280h10v10h-10zM130,280h10v10h-10zM140,280h10v10h-10zM170,280h10v10h-10zM200,280h10v10h-10zM210,280h10v10h-10zM220,280h10v10h-10zM240,280h10v10h-10zM300,280h10v10h-10zM320,280h10v10h-10zM360,280h10v10h-10zM380,280h10v10h-10zM400,280h10v10h-10zM50,290h10v10h-10zM60,290h10v10h-10zM70,290h10v10h-10zM80,290h10v10h-10zM140,290h10v10h-10zM160,290h10v10h-10zM170,290h10v10h-10zM200,290h10v10h-10zM210,290h10v10h-10zM230,290h10v10h-10zM240,290h10v10h-10zM260,290h10v10h-10zM290,290h10v10h-10zM300,290h10v10h-10zM320,290h10v10h-10zM340,290h10v10h-10zM360,290h10v10h-10zM370,290h10v10h-10zM380,290h10v10h-10zM410,290h10v10h-10zM10,300h10v10h-10zM20,300h10v10h-10zM50,300h10v10h-10zM60,300h10v10h-10zM110,300h10v10h-10zM130,300h10v10h-10zM140,300h10v10h-10zM150,300h10v10h-10zM190,300h10v10h-10zM280,300h10v10h-10zM290,300h10v10h-10zM310,300h10v10h-10zM320,300h10v10h-10zM350,300h10v10h-10zM360,300h10v10h-10zM370,300h10v10h-10zM390,300h10v10h-10zM400,300h10v10h-10zM30,310h10v10h-10zM50,310h10v10h-10zM70,310h10v10h-10zM90,310h10v10h-10zM100,310h10v10h-10zM110,310h10v10h-10zM120,310h10v10h-10zM130,310h10v10h-10zM140,310h10v10h-10zM160,310h10v10h-10zM220,310h10v10h-10zM240,310h10v10h-10zM250,310h10v10h-10zM270,310h10v10h-10zM280,310h10v10h-10zM300,310h10v10h-10zM310,310h10v10h-10zM330,310h10v10h-10zM350,310h10v10h-10zM360,310h10v10h-10zM380,310h10v10h-10zM390,310h10v10h-10zM410,310h10v10h-10zM60,320h10v10h-10zM120,320h10v10h-10zM160,320h10v10h-10zM170,320h10v10h-10zM180,320h10v10h-10zM200,320h10v10h-10zM210,320h10v10h-10zM220,320h10v10h-10zM230,320h10v10h-10zM240,320h10v10h-10zM270,320h10v10h-10zM290,320h10v10h-10zM300,320h10v10h-10zM320,320h10v10h-10zM350,320h10v10h-10zM360,320h10v10h-10zM370,320h10v10h-10zM380,320h10v10h-10zM400,320h10v10h-10zM410,320h10v10h-10zM10,330h10v10h-10zM20,330h10v10h-10zM50,330h10v10h-10zM70,330h10v10h-10zM100,330h10v10h-10zM130,330h10v10h-10zM180,330h10v10h-10zM200,330h10v10h-10zM230,330h10v10h-10zM240,330h10v10h-10zM280,330h10v10h-10zM290,330h10v10h-10zM330,330h10v10h-10zM340,330h10v10h-10zM350,330h10v10h-10zM360,330h10v10h-10zM370,330h10v10h-10zM390,330h10v10h-10zM400,330h10v10h-10zM90,340h10v10h-10zM100,340h10v10h-10zM110,340h10v10h-10zM120,340h10v10h-10zM140,340h10v10h-10zM160,340h10v10h-10zM170,340h10v10h-10zM190,340h10v10h-10zM210,340h10v10h-10zM240,340h10v10h-10zM260,340h10v10h-10zM280,340h10v10h-10zM290,340h10v10h-10zM310,340h10v10h-10zM320,340h10v10h-10zM330,340h10v10h-10zM370,340h10v10h-10zM380,340h10v10h-10zM390,340h10v10h-10zM10,350h10v10h-10zM20,350h10v10h-10zM30,350h10v10h-10zM40,350h10v10h-10zM50,350h10v10h-10zM60,350h10v10h-10zM70,350h10v10h-10zM100,350h10v10h-10zM110,350h10v10h-10zM120,350h10v10h-10zM130,350h10v10h-10zM160,350h10v10h-10zM170,350h10v10h-10zM180,350h10v10h-10zM210,350h10v10h-10zM220,350h10v10h-10zM240,350h10v10h-10zM250,350h10v10h-10zM260,350h10v10h-10zM280,350h10v10h-10zM300,350h10v10h-10zM310,350h10v10h-10zM330,350h10v10h-10zM350,350h10v10h-10zM370,350h10v10h-10zM380,350h10v10h-10zM390,350h10v10h-10zM410,350h10v10h-10zM10,360h10v10h-10zM70,360h10v10h-10zM90,360h10v10h-10zM100,360h10v10h-10zM120,360h10v10h-10zM150,360h10v10h-10zM160,360h10v10h-10zM170,360h10v10h-10zM180,360h10v10h-10zM190,360h10v10h-10zM200,360h10v10h-10zM210,360h10v10h-10zM220,360h10v10h-10zM230,360h10v10h-10zM250,360h10v10h-10zM270,360h10v10h-10zM290,360h10v10h-10zM300,360h10v10h-10zM320,360h10v10h-10zM330,360h10v10h-10zM370,360h10v10h-10zM380,360h10v10h-10zM410,360h10v10h-10zM10,370h10v10h-10zM30,370h10v10h-10zM40,370h10v10h-10zM50,370h10v10h-10zM70,370h10v10h-10zM90,370h10v10h-10zM100,370h10v10h-10zM130,370h10v10h-10zM140,370h10v10h-10zM150,370h10v10h-10zM160,370h10v10h-10zM190,370h10v10h-10zM220,370h10v10h-10zM230,370h10v10h-10zM250,370h10v10h-10zM270,370h10v10h-10zM320,370h10v10h-10zM330,370h10v10h-10zM340,370h10v10h-10zM350,370h10v10h-10zM360,370h10v10h-10zM370,370h10v10h-10zM10,380h10v10h-10zM30,380h10v10h-10zM40,380h10v10h-10zM50,380h10v10h-10zM70,380h10v10h-10zM100,380h10v10h-10zM110,380h10v10h-10zM140,380h10v10h-10zM170,380h10v10h-10zM180,380h10v10h-10zM200,380h10v10h-10zM220,380h10v10h-10zM230,380h10v10h-10zM240,380h10v10h-10zM260,380h10v10h-10zM290,380h10v10h-10zM300,380h10v10h-10zM320,380h10v10h-10zM340,380h10v10h-10zM360,380h10v10h-10zM370,380h10v10h-10zM390,380h10v10h-10zM400,380h10v10h-10zM410,380h10v10h-10zM10,390h10v10h-10zM30,390h10v10h-10zM40,390h10v10h-10zM50,390h10v10h-10zM70,390h10v10h-10zM110,390h10v10h-10zM170,390h10v10h-10zM190,390h10v10h-10zM210,390h10v10h-10zM240,390h10v10h-10zM250,390h10v10h-10zM280,390h10v10h-10zM310,390h10v10h-10zM350,390h10v10h-10zM380,390h10v10h-10zM390,390h10v10h-10zM410,390h10v10h-10zM10,400h10v10h-10zM70,400h10v10h-10zM90,400h10v10h-10zM130,400h10v10h-10zM180,400h10v10h-10zM200,400h10v10h-10zM220,400h10v10h-10zM230,400h10v10h-10zM250,400h10v10h-10zM300,400h10v10h-10zM330,400h10v10h-10zM360,400h10v10h-10zM370,400h10v10h-10zM380,400h10v10h-10zM400,400h10v10h-10zM410,400h10v10h-10zM10,410h10v10h-10zM20,410h10v10h-10zM30,410h10v10h-10zM40,410h10v10h-10zM50,410h10v10h-10zM60,410h10v10h-10zM70,410h10v10h-10zM90,410h10v10h-10zM120,410h10v10h-10zM150,410h10v10h-10zM160,410h10v10h-10zM170,410h10v10h-10zM200,410h10v10h-10zM210,410h10v10h-10zM220,410h10v10h-10zM230,410h10v10h-10zM270,410h10v10h-10zM330,410h10v10h-10zM350,410h10v10h-10zM360,410h10v10h-10zM370,410h10v10h-10zM400,410h10v10h-10z" />
</svg>
